<?xml version="1.0" encoding="UTF-8"?>
<svg role="img" xmlns="http://www.w3.org/2000/svg" xmlns:xlink="http://www.w3.org/1999/xlink" width="320.445pt" height="490.882pt" viewBox="0 0 320.445 490.882"><style data-diagram-theme>:root{--diagram-ink:#1A1A19;--diagram-paper:#FDFCF9;--diagram-grid:#B5B3AA}@media (prefers-color-scheme:dark){:root{--diagram-ink:#E8E5DD;--diagram-paper:#1A1816;--diagram-grid:#3A3632}}</style><style data-diagram-map>[fill="rgb(95.999146%, 95.999146%, 95.999146%)"]{fill:var(--diagram-paper, rgb(95.999146%, 95.999146%, 95.999146%))}[stroke="rgb(95.999146%, 95.999146%, 95.999146%)"]{stroke:var(--diagram-paper, rgb(95.999146%, 95.999146%, 95.999146%))}[fill="rgb(29.998779%, 29.998779%, 29.998779%)"]{fill:var(--diagram-ink, rgb(29.998779%, 29.998779%, 29.998779%))}[stroke="rgb(29.998779%, 29.998779%, 29.998779%)"]{stroke:var(--diagram-ink, rgb(29.998779%, 29.998779%, 29.998779%))}[fill="rgb(0%, 0%, 0%)"]{fill:var(--diagram-ink, rgb(0%, 0%, 0%))}[stroke="rgb(0%, 0%, 0%)"]{stroke:var(--diagram-ink, rgb(0%, 0%, 0%))}[fill="rgb(90.008545%, 92.658997%, 95.15686%)"]{fill:var(--diagram-paper, rgb(90.008545%, 92.658997%, 95.15686%))}[stroke="rgb(90.008545%, 92.658997%, 95.15686%)"]{stroke:var(--diagram-paper, rgb(90.008545%, 92.658997%, 95.15686%))}[fill="rgb(89.350891%, 92.411804%, 88.703918%)"]{fill:var(--diagram-paper, rgb(89.350891%, 92.411804%, 88.703918%))}[stroke="rgb(89.350891%, 92.411804%, 88.703918%)"]{stroke:var(--diagram-paper, rgb(89.350891%, 92.411804%, 88.703918%))}[fill="rgb(96.29364%, 91.117859%, 90.174866%)"]{fill:var(--diagram-paper, rgb(96.29364%, 91.117859%, 90.174866%))}[stroke="rgb(96.29364%, 91.117859%, 90.174866%)"]{stroke:var(--diagram-paper, rgb(96.29364%, 91.117859%, 90.174866%))}[fill="rgb(93.11676%, 89.588928%, 92.64679%)"]{fill:var(--diagram-paper, rgb(93.11676%, 89.588928%, 92.64679%))}[stroke="rgb(93.11676%, 89.588928%, 92.64679%)"]{stroke:var(--diagram-paper, rgb(93.11676%, 89.588928%, 92.64679%))}[fill="rgb(96.044922%, 93.537903%, 88.015747%)"]{fill:var(--diagram-paper, rgb(96.044922%, 93.537903%, 88.015747%))}[stroke="rgb(96.044922%, 93.537903%, 88.015747%)"]{stroke:var(--diagram-paper, rgb(96.044922%, 93.537903%, 88.015747%))}[fill="rgb(100%, 100%, 100%)"]{fill:var(--diagram-paper, rgb(100%, 100%, 100%))}[stroke="rgb(100%, 100%, 100%)"]{stroke:var(--diagram-paper, rgb(100%, 100%, 100%))}</style>
<defs>
<g>
<g id="glyph-0-0">
<path d="M 4.171875 -3.25 C 5.203125 -3.546875 5.859375 -4.25 5.859375 -5.0625 C 5.859375 -6.046875 4.78125 -6.90625 3.359375 -6.90625 L 0.953125 -6.90625 L 0.953125 0 L 1.8125 0 L 1.8125 -3.15625 L 3.390625 -3.15625 L 5.25 0 L 6.140625 0 Z M 1.8125 -3.765625 L 1.8125 -6.34375 L 3.25 -6.34375 C 4.40625 -6.34375 5.0625 -5.765625 5.0625 -5.0625 C 5.0625 -4.34375 4.421875 -3.765625 3.25 -3.765625 Z M 1.8125 -3.765625 "/>
</g>
<g id="glyph-0-1">
<path d="M 4.125 -2.1875 C 4.125 -2.515625 4.109375 -3.265625 3.71875 -3.859375 C 3.3125 -4.484375 2.703125 -4.59375 2.34375 -4.59375 C 1.25 -4.59375 0.34375 -3.53125 0.34375 -2.25 C 0.34375 -0.9375 1.296875 0.109375 2.5 0.109375 C 3.125 0.109375 3.6875 -0.125 4.078125 -0.40625 L 4.015625 -1.0625 C 3.390625 -0.53125 2.734375 -0.5 2.515625 -0.5 C 1.71875 -0.5 1.078125 -1.203125 1.046875 -2.1875 Z M 1.09375 -2.734375 C 1.25 -3.484375 1.78125 -3.984375 2.34375 -3.984375 C 2.859375 -3.984375 3.421875 -3.640625 3.546875 -2.734375 Z M 1.09375 -2.734375 "/>
</g>
<g id="glyph-0-2">
<path d="M 4.328125 -4.421875 L 3.546875 -4.421875 L 3.546875 -1.53125 C 3.546875 -0.78125 3 -0.4375 2.359375 -0.4375 C 1.65625 -0.4375 1.578125 -0.703125 1.578125 -1.125 L 1.578125 -4.421875 L 0.8125 -4.421875 L 0.8125 -1.078125 C 0.8125 -0.375 1.03125 0.109375 1.859375 0.109375 C 2.390625 0.109375 3.09375 -0.046875 3.578125 -0.484375 L 3.578125 0 L 4.328125 0 Z M 4.328125 -4.421875 "/>
</g>
<g id="glyph-0-3">
<path d="M 3.40625 -4.265625 C 2.890625 -4.515625 2.484375 -4.59375 1.984375 -4.59375 C 1.734375 -4.59375 0.328125 -4.59375 0.328125 -3.28125 C 0.328125 -2.796875 0.609375 -2.484375 0.859375 -2.296875 C 1.171875 -2.0625 1.390625 -2.03125 1.9375 -1.921875 C 2.296875 -1.84375 2.875 -1.734375 2.875 -1.203125 C 2.875 -0.515625 2.09375 -0.515625 1.9375 -0.515625 C 1.140625 -0.515625 0.578125 -0.890625 0.390625 -1 L 0.28125 -0.328125 C 0.59375 -0.171875 1.140625 0.109375 1.953125 0.109375 C 2.125 0.109375 2.671875 0.109375 3.109375 -0.203125 C 3.40625 -0.453125 3.578125 -0.84375 3.578125 -1.28125 C 3.578125 -1.828125 3.21875 -2.15625 3.1875 -2.1875 C 2.8125 -2.53125 2.53125 -2.59375 2.046875 -2.6875 C 1.5 -2.796875 1.03125 -2.890625 1.03125 -3.390625 C 1.03125 -4 1.75 -4 1.875 -4 C 2.203125 -4 2.734375 -3.96875 3.296875 -3.625 Z M 3.40625 -4.265625 "/>
</g>
<g id="glyph-0-4">
<path d="M 3.96875 -2.875 C 3.96875 -3.890625 3.25 -4.59375 2.328125 -4.59375 C 1.6875 -4.59375 1.234375 -4.421875 0.765625 -4.15625 L 0.828125 -3.5 C 1.34375 -3.875 1.84375 -4 2.328125 -4 C 2.796875 -4 3.1875 -3.609375 3.1875 -2.859375 L 3.1875 -2.4375 C 1.703125 -2.421875 0.4375 -2 0.4375 -1.125 C 0.4375 -0.703125 0.703125 0.109375 1.578125 0.109375 C 1.71875 0.109375 2.640625 0.09375 3.21875 -0.359375 L 3.21875 0 L 3.96875 0 Z M 3.1875 -1.3125 C 3.1875 -1.125 3.1875 -0.875 2.859375 -0.6875 C 2.5625 -0.5 2.1875 -0.5 2.078125 -0.5 C 1.609375 -0.5 1.15625 -0.734375 1.15625 -1.140625 C 1.15625 -1.84375 2.765625 -1.90625 3.1875 -1.9375 Z M 3.1875 -1.3125 "/>
</g>
<g id="glyph-0-5">
<path d="M 1.5625 -6.90625 L 0.8125 -6.90625 L 0.8125 0 L 1.59375 0 L 1.59375 -0.453125 C 1.828125 -0.234375 2.265625 0.109375 2.921875 0.109375 C 3.921875 0.109375 4.78125 -0.890625 4.78125 -2.21875 C 4.78125 -3.453125 4.09375 -4.53125 3.171875 -4.53125 C 2.78125 -4.53125 2.15625 -4.421875 1.5625 -3.9375 Z M 1.59375 -3.328125 C 1.75 -3.578125 2.109375 -3.921875 2.65625 -3.921875 C 3.25 -3.921875 4 -3.5 4 -2.21875 C 4 -0.921875 3.171875 -0.5 2.5625 -0.5 C 2.171875 -0.5 1.84375 -0.671875 1.59375 -1.140625 Z M 1.59375 -3.328125 "/>
</g>
<g id="glyph-0-6">
<path d="M 1.546875 -6.90625 L 0.8125 -6.90625 L 0.8125 0 L 1.546875 0 Z M 1.546875 -6.90625 "/>
</g>
<g id="glyph-0-7">
<path d="M 1.59375 -0.453125 C 1.90625 -0.171875 2.34375 0.109375 2.9375 0.109375 C 3.90625 0.109375 4.78125 -0.859375 4.78125 -2.21875 C 4.78125 -3.40625 4.15625 -4.53125 3.1875 -4.53125 C 2.59375 -4.53125 2.015625 -4.3125 1.5625 -3.9375 L 1.5625 -4.421875 L 0.8125 -4.421875 L 0.8125 1.9375 L 1.59375 1.9375 Z M 1.59375 -3.3125 C 1.828125 -3.65625 2.21875 -3.890625 2.640625 -3.890625 C 3.40625 -3.890625 4 -3.140625 4 -2.21875 C 4 -1.1875 3.296875 -0.5 2.546875 -0.5 C 2.15625 -0.5 1.890625 -0.703125 1.6875 -0.96875 C 1.59375 -1.109375 1.59375 -1.140625 1.59375 -1.3125 Z M 1.59375 -3.3125 "/>
</g>
<g id="glyph-0-8">
<path d="M 1.5625 -2.125 C 1.5625 -3.125 2.28125 -3.84375 3.25 -3.859375 L 3.25 -4.53125 C 2.375 -4.515625 1.828125 -4.03125 1.515625 -3.578125 L 1.515625 -4.484375 L 0.8125 -4.484375 L 0.8125 0 L 1.5625 0 Z M 1.5625 -2.125 "/>
</g>
<g id="glyph-0-9">
<path d="M 4.671875 -2.1875 C 4.671875 -3.515625 3.671875 -4.59375 2.484375 -4.59375 C 1.265625 -4.59375 0.296875 -3.5 0.296875 -2.1875 C 0.296875 -0.875 1.3125 0.109375 2.484375 0.109375 C 3.671875 0.109375 4.671875 -0.890625 4.671875 -2.1875 Z M 2.484375 -0.53125 C 1.796875 -0.53125 1.078125 -1.078125 1.078125 -2.296875 C 1.078125 -3.5 1.828125 -3.984375 2.484375 -3.984375 C 3.171875 -3.984375 3.890625 -3.46875 3.890625 -2.296875 C 3.890625 -1.109375 3.21875 -0.53125 2.484375 -0.53125 Z M 2.484375 -0.53125 "/>
</g>
<g id="glyph-0-10">
<path d="M 7.09375 -2.96875 C 7.09375 -3.640625 6.9375 -4.53125 5.734375 -4.53125 C 5.140625 -4.53125 4.625 -4.25 4.25 -3.71875 C 3.984375 -4.46875 3.296875 -4.53125 2.96875 -4.53125 C 2.265625 -4.53125 1.796875 -4.125 1.515625 -3.765625 L 1.515625 -4.484375 L 0.8125 -4.484375 L 0.8125 0 L 1.578125 0 L 1.578125 -2.4375 C 1.578125 -3.109375 1.84375 -3.921875 2.59375 -3.921875 C 3.515625 -3.921875 3.5625 -3.28125 3.5625 -2.890625 L 3.5625 0 L 4.34375 0 L 4.34375 -2.4375 C 4.34375 -3.109375 4.609375 -3.921875 5.34375 -3.921875 C 6.265625 -3.921875 6.3125 -3.28125 6.3125 -2.890625 L 6.3125 0 L 7.09375 0 Z M 7.09375 -2.96875 "/>
</g>
<g id="glyph-0-11">
<path d="M 1.734375 -3.84375 L 3.140625 -3.84375 L 3.140625 -4.421875 L 1.734375 -4.421875 L 1.734375 -5.6875 L 1.0625 -5.6875 L 1.0625 -4.421875 L 0.1875 -4.421875 L 0.1875 -3.84375 L 1.03125 -3.84375 L 1.03125 -1.1875 C 1.03125 -0.59375 1.171875 0.109375 1.84375 0.109375 C 2.546875 0.109375 3.0625 -0.140625 3.296875 -0.265625 L 3.140625 -0.859375 C 2.890625 -0.640625 2.5625 -0.53125 2.25 -0.53125 C 1.875 -0.53125 1.734375 -0.828125 1.734375 -1.359375 Z M 1.734375 -3.84375 "/>
</g>
<g id="glyph-0-12">
<path d="M 2.53125 -2.28125 C 2.53125 -2.96875 2.875 -3.703125 3.5625 -4.28125 C 3.75 -4.4375 4.125 -4.75 4.125 -5.46875 C 4.125 -6.15625 3.734375 -7.015625 2.234375 -7.015625 C 1.625 -7.015625 1.078125 -6.84375 0.5625 -6.484375 L 0.78125 -5.859375 C 1.03125 -6.078125 1.515625 -6.40625 2.234375 -6.40625 C 2.703125 -6.40625 3.359375 -6.328125 3.359375 -5.484375 C 3.359375 -5.03125 3.140625 -4.84375 3 -4.734375 C 1.875 -3.765625 1.875 -2.484375 1.875 -2.0625 L 1.875 -1.734375 L 2.53125 -1.734375 Z M 1.796875 0 L 2.625 0 L 2.625 -0.828125 L 1.796875 -0.828125 Z M 1.796875 0 "/>
</g>
<g id="glyph-0-13">
<path d="M 5.28125 -3.53125 C 4.921875 -2.625 4.453125 -1.390625 4.34375 -0.921875 C 4.296875 -1.140625 4.171875 -1.5 4.015625 -1.921875 L 2.453125 -6.046875 L 2.125 -6.90625 L 1 -6.90625 L 1 0 L 1.765625 0 L 1.765625 -6.171875 L 1.78125 -6.171875 C 1.84375 -5.859375 2.234375 -4.765625 2.5 -4.09375 L 3.96875 -0.21875 L 4.703125 -0.21875 L 6.015625 -3.6875 C 6.34375 -4.5 6.421875 -4.75 6.5 -4.953125 C 6.59375 -5.234375 6.875 -5.953125 6.921875 -6.1875 L 6.921875 0 L 7.703125 0 L 7.703125 -6.90625 L 6.5625 -6.90625 Z M 5.28125 -3.53125 "/>
</g>
<g id="glyph-0-14">
<path d="M 1.625 -6.765625 L 0.734375 -6.765625 L 0.734375 -5.875 L 1.625 -5.875 Z M 1.546875 -4.421875 L 0.8125 -4.421875 L 0.8125 0 L 1.546875 0 Z M 1.546875 -4.421875 "/>
</g>
<g id="glyph-0-15">
<path d="M 2.75 -1.921875 L 2.75 -2.5 L 0.109375 -2.5 L 0.109375 -1.921875 Z M 2.75 -1.921875 "/>
</g>
<g id="glyph-0-16">
<path d="M 4.078125 -4.15625 C 3.5 -4.5 3.15625 -4.59375 2.546875 -4.59375 C 1.171875 -4.59375 0.359375 -3.390625 0.359375 -2.203125 C 0.359375 -0.96875 1.265625 0.109375 2.515625 0.109375 C 3.046875 0.109375 3.59375 -0.03125 4.125 -0.390625 L 4.078125 -1.0625 C 3.5625 -0.671875 3.03125 -0.53125 2.515625 -0.53125 C 1.6875 -0.53125 1.140625 -1.25 1.140625 -2.21875 C 1.140625 -3 1.5 -3.953125 2.5625 -3.953125 C 3.078125 -3.953125 3.40625 -3.875 3.96875 -3.515625 Z M 4.078125 -4.15625 "/>
</g>
<g id="glyph-0-17">
<path d="M 4.3125 -6.90625 L 3.578125 -6.90625 L 3.578125 -3.984375 C 3.046875 -4.421875 2.484375 -4.53125 2.125 -4.53125 C 1.140625 -4.53125 0.359375 -3.5 0.359375 -2.203125 C 0.359375 -0.90625 1.125 0.109375 2.0625 0.109375 C 2.40625 0.109375 2.984375 0.015625 3.546875 -0.515625 L 3.546875 0 L 4.3125 0 Z M 3.546875 -1.390625 C 3.546875 -1.25 3.53125 -1.0625 3.21875 -0.78125 C 2.984375 -0.578125 2.734375 -0.5 2.484375 -0.5 C 1.859375 -0.5 1.140625 -0.96875 1.140625 -2.203125 C 1.140625 -3.515625 1.984375 -3.921875 2.578125 -3.921875 C 3.03125 -3.921875 3.328125 -3.6875 3.546875 -3.375 Z M 3.546875 -1.390625 "/>
</g>
<g id="glyph-0-18">
<path d="M 4.828125 -3.140625 L 4.828125 -3.75 L 1.828125 -3.75 L 1.828125 -6.234375 L 3.125 -6.234375 C 3.25 -6.234375 3.359375 -6.234375 3.484375 -6.234375 L 5.234375 -6.234375 L 5.234375 -6.875 L 0.9375 -6.875 L 0.9375 0 L 1.828125 0 L 1.828125 -3.140625 Z M 4.828125 -3.140625 "/>
</g>
<g id="glyph-0-19">
<path d="M 4.328125 -2.96875 C 4.328125 -3.625 4.1875 -4.53125 2.96875 -4.53125 C 2.0625 -4.53125 1.578125 -3.859375 1.515625 -3.765625 L 1.515625 -4.484375 L 0.8125 -4.484375 L 0.8125 0 L 1.578125 0 L 1.578125 -2.4375 C 1.578125 -3.09375 1.828125 -3.921875 2.59375 -3.921875 C 3.546875 -3.921875 3.546875 -3.21875 3.546875 -2.890625 L 3.546875 0 L 4.328125 0 Z M 4.328125 -2.96875 "/>
</g>
<g id="glyph-0-20">
<path d="M 4.4375 -4.421875 L 3.6875 -4.421875 L 2.90625 -2.34375 C 2.703125 -1.796875 2.390625 -1 2.3125 -0.53125 L 2.296875 -0.53125 C 2.234375 -0.890625 1.984375 -1.578125 1.875 -1.84375 L 0.921875 -4.421875 L 0.140625 -4.421875 L 1.84375 0 L 2.734375 0 Z M 4.4375 -4.421875 "/>
</g>
<g id="glyph-0-21">
<path d="M 2.1875 -6.90625 L 0.953125 -6.90625 L 0.953125 0 L 1.734375 0 L 1.734375 -6.203125 C 1.9375 -5.796875 2.34375 -4.953125 2.40625 -4.84375 L 4.84375 0 L 6.078125 0 L 6.078125 -6.90625 L 5.3125 -6.90625 L 5.3125 -0.703125 L 5.296875 -0.703125 C 5.109375 -1.109375 4.6875 -1.953125 4.625 -2.0625 Z M 2.1875 -6.90625 "/>
</g>
<g id="glyph-0-22">
<path d="M 2.59375 -2.28125 L 4.40625 -4.421875 L 3.59375 -4.421875 L 2.265625 -2.78125 L 0.890625 -4.421875 L 0.0625 -4.421875 L 1.9375 -2.28125 L 0 0 L 0.8125 0 L 2.265625 -1.875 L 3.75 0 L 4.578125 0 Z M 2.59375 -2.28125 "/>
</g>
<g id="glyph-0-23">
<path d="M 0.96875 -6.90625 L 0.96875 0 L 3.59375 0 C 5.03125 0 6.078125 -0.890625 6.078125 -1.875 C 6.078125 -2.734375 5.203125 -3.4375 4.15625 -3.609375 C 5.0625 -3.84375 5.796875 -4.421875 5.796875 -5.171875 C 5.796875 -6.09375 4.734375 -6.90625 3.328125 -6.90625 Z M 1.796875 -3.890625 L 1.796875 -6.34375 L 3.046875 -6.34375 C 4.15625 -6.34375 5.03125 -5.828125 5.03125 -5.171875 C 5.03125 -4.5625 4.3125 -3.890625 2.953125 -3.890625 Z M 1.796875 -0.5625 L 1.796875 -3.28125 L 3.234375 -3.28125 C 4.296875 -3.28125 5.265625 -2.671875 5.265625 -1.875 C 5.265625 -1.140625 4.390625 -0.5625 3.3125 -0.5625 Z M 1.796875 -0.5625 "/>
</g>
<g id="glyph-0-24">
<path d="M 3.5 -3.890625 C 3.71875 -3.890625 4 -3.9375 4.234375 -3.9375 C 4.421875 -3.9375 4.8125 -3.90625 4.828125 -3.90625 L 4.71875 -4.53125 C 4.015625 -4.53125 3.4375 -4.34375 3.140625 -4.203125 C 2.9375 -4.375 2.59375 -4.53125 2.203125 -4.53125 C 1.34375 -4.53125 0.609375 -3.8125 0.609375 -2.90625 C 0.609375 -2.53125 0.75 -2.1875 0.953125 -1.921875 C 0.65625 -1.515625 0.65625 -1.125 0.65625 -1.078125 C 0.65625 -0.8125 0.75 -0.53125 0.921875 -0.3125 C 0.390625 -0.015625 0.28125 0.453125 0.28125 0.703125 C 0.28125 1.453125 1.265625 2.046875 2.484375 2.046875 C 3.703125 2.046875 4.6875 1.46875 4.6875 0.703125 C 4.6875 -0.6875 3.03125 -0.6875 2.640625 -0.6875 L 1.765625 -0.6875 C 1.625 -0.6875 1.1875 -0.6875 1.1875 -1.21875 C 1.1875 -1.328125 1.21875 -1.484375 1.296875 -1.578125 C 1.5 -1.421875 1.828125 -1.28125 2.203125 -1.28125 C 3.09375 -1.28125 3.796875 -2.015625 3.796875 -2.90625 C 3.796875 -3.390625 3.578125 -3.75 3.46875 -3.90625 Z M 2.203125 -1.84375 C 1.828125 -1.84375 1.3125 -2.078125 1.3125 -2.90625 C 1.3125 -3.734375 1.828125 -3.96875 2.203125 -3.96875 C 2.625 -3.96875 3.09375 -3.6875 3.09375 -2.90625 C 3.09375 -2.125 2.625 -1.84375 2.203125 -1.84375 Z M 2.640625 0.03125 C 2.859375 0.03125 3.984375 0.03125 3.984375 0.71875 C 3.984375 1.15625 3.296875 1.484375 2.484375 1.484375 C 1.6875 1.484375 0.96875 1.171875 0.96875 0.703125 C 0.96875 0.671875 0.96875 0.03125 1.75 0.03125 Z M 2.640625 0.03125 "/>
</g>
<g id="glyph-1-0">
<path d="M 6.375 -1.421875 C 6.375 -1.5 6.296875 -1.546875 6.265625 -1.546875 C 6.015625 -1.546875 5.734375 -0.890625 4.328125 -0.890625 C 2.578125 -0.890625 2.078125 -1.96875 2.078125 -3.46875 C 2.078125 -4.953125 2.625 -6.015625 4.25 -6.015625 C 5.140625 -6.015625 5.609375 -5.671875 5.875 -5.453125 C 5.9375 -5.40625 5.96875 -5.359375 6.03125 -5.359375 C 6.078125 -5.359375 6.125 -5.421875 6.125 -5.453125 L 6.328125 -6.5625 C 6.34375 -6.59375 6.328125 -6.640625 6.25 -6.671875 C 5.65625 -6.890625 5.0625 -7.03125 4.28125 -7.03125 C 1.84375 -7.03125 0.609375 -5.84375 0.609375 -3.46875 C 0.609375 -1.03125 1.875 0.09375 4.296875 0.09375 C 5.140625 0.09375 5.65625 -0.015625 6.390625 -0.46875 C 6.46875 -0.515625 6.453125 -0.59375 6.453125 -0.59375 Z M 6.375 -1.421875 "/>
</g>
<g id="glyph-1-1">
<path d="M 5.15625 -2.234375 C 5.15625 -3.875 4.359375 -4.734375 2.734375 -4.734375 C 1.078125 -4.734375 0.3125 -3.84375 0.3125 -2.234375 C 0.3125 -0.609375 1.171875 0.109375 2.734375 0.109375 C 4.296875 0.109375 5.15625 -0.609375 5.15625 -2.234375 Z M 2.734375 -0.671875 C 1.65625 -0.671875 1.65625 -1.5625 1.65625 -2.359375 C 1.65625 -3.125 1.65625 -4.015625 2.734375 -4.015625 C 3.796875 -4.015625 3.796875 -3.140625 3.796875 -2.359375 C 3.796875 -1.578125 3.796875 -0.671875 2.734375 -0.671875 Z M 2.734375 -0.671875 "/>
</g>
<g id="glyph-1-2">
<path d="M 8.015625 -3.234375 C 8.015625 -4.265625 7.578125 -4.671875 6.5625 -4.671875 C 5.859375 -4.671875 5.3125 -4.34375 4.953125 -3.6875 C 4.796875 -4.640625 3.953125 -4.671875 3.53125 -4.671875 C 3.34375 -4.671875 2.921875 -4.671875 2.484375 -4.34375 C 2.171875 -4.109375 1.96875 -3.796875 1.90625 -3.640625 L 1.890625 -3.640625 L 1.890625 -4.140625 C 1.890625 -4.453125 1.828125 -4.625 1.40625 -4.625 L 1.078125 -4.625 C 0.71875 -4.625 0.59375 -4.515625 0.59375 -4.140625 L 0.59375 -0.484375 C 0.59375 -0.125 0.703125 0 1.078125 0 L 1.46875 0 C 1.84375 0 1.953125 -0.125 1.953125 -0.484375 L 1.953125 -2.671875 C 1.953125 -3.578125 2.5625 -3.953125 3.046875 -3.953125 C 3.515625 -3.953125 3.640625 -3.75 3.640625 -3.21875 L 3.640625 -0.484375 C 3.640625 -0.125 3.75 0 4.109375 0 L 4.515625 0 C 4.890625 0 4.984375 -0.125 4.984375 -0.484375 L 4.984375 -2.671875 C 4.984375 -3.578125 5.59375 -3.953125 6.078125 -3.953125 C 6.5625 -3.953125 6.671875 -3.75 6.671875 -3.21875 L 6.671875 -0.484375 C 6.671875 -0.125 6.78125 0 7.140625 0 L 7.546875 0 C 7.921875 0 8.015625 -0.125 8.015625 -0.484375 Z M 8.015625 -3.234375 "/>
</g>
<g id="glyph-1-3">
<path d="M 4.625 -3.140625 C 4.625 -4.71875 3.109375 -4.734375 2.609375 -4.734375 C 2.140625 -4.734375 1.640625 -4.6875 0.96875 -4.40625 C 0.765625 -4.3125 0.71875 -4.296875 0.71875 -4.1875 C 0.71875 -4.109375 0.78125 -3.53125 0.78125 -3.453125 C 0.796875 -3.390625 0.84375 -3.34375 0.921875 -3.34375 C 0.96875 -3.34375 1 -3.375 1.03125 -3.40625 C 1.453125 -3.859375 1.953125 -4.078125 2.5625 -4.078125 C 3.109375 -4.078125 3.265625 -3.75 3.265625 -3.15625 L 3.265625 -2.8125 C 2.921875 -2.8125 0.3125 -2.78125 0.3125 -1.328125 C 0.3125 -0.625 0.859375 0.109375 1.734375 0.109375 C 2.078125 0.109375 2.828125 0.015625 3.296875 -0.671875 L 3.296875 -0.484375 C 3.296875 -0.15625 3.359375 0 3.765625 0 L 4.140625 0 C 4.515625 0 4.625 -0.125 4.625 -0.484375 Z M 3.265625 -1.53125 C 3.265625 -0.609375 2.3125 -0.609375 2.296875 -0.609375 C 1.875 -0.609375 1.609375 -0.96875 1.609375 -1.34375 C 1.609375 -2.3125 2.984375 -2.390625 3.265625 -2.40625 Z M 3.265625 -1.53125 "/>
</g>
<g id="glyph-1-4">
<path d="M 4.96875 -3.234375 C 4.96875 -4.265625 4.53125 -4.671875 3.515625 -4.671875 C 2.484375 -4.671875 2.03125 -3.90625 1.90625 -3.640625 L 1.890625 -3.640625 L 1.890625 -4.140625 C 1.890625 -4.453125 1.828125 -4.625 1.40625 -4.625 L 1.078125 -4.625 C 0.71875 -4.625 0.59375 -4.515625 0.59375 -4.140625 L 0.59375 -0.484375 C 0.59375 -0.125 0.703125 0 1.078125 0 L 1.46875 0 C 1.84375 0 1.953125 -0.125 1.953125 -0.484375 L 1.953125 -2.671875 C 1.953125 -3.546875 2.53125 -3.953125 3.046875 -3.953125 C 3.515625 -3.953125 3.625 -3.71875 3.625 -3.21875 L 3.625 -0.484375 C 3.625 -0.15625 3.6875 0 4.09375 0 L 4.5 0 C 4.875 0 4.96875 -0.125 4.96875 -0.484375 Z M 4.96875 -3.234375 "/>
</g>
<g id="glyph-1-5">
<path d="M 4.96875 -6.421875 C 4.96875 -6.75 4.890625 -6.90625 4.484375 -6.90625 L 4.125 -6.90625 C 3.75 -6.90625 3.640625 -6.78125 3.640625 -6.421875 L 3.640625 -4.171875 C 3.1875 -4.59375 2.703125 -4.671875 2.390625 -4.671875 C 0.375 -4.671875 0.375 -2.75 0.375 -2.265625 C 0.375 -1.8125 0.375 0.109375 2.34375 0.109375 C 2.75 0.109375 3.1875 -0.015625 3.609375 -0.46875 C 3.609375 -0.09375 3.75 0 4.09375 0 L 4.484375 0 C 4.859375 0 4.96875 -0.125 4.96875 -0.484375 Z M 3.609375 -1.25 C 3.609375 -1.078125 3.609375 -0.984375 3.328125 -0.78125 C 3.078125 -0.625 2.84375 -0.609375 2.734375 -0.609375 C 1.71875 -0.609375 1.71875 -1.515625 1.71875 -2.265625 C 1.71875 -3.015625 1.71875 -3.953125 2.84375 -3.953125 C 3.125 -3.953125 3.390625 -3.859375 3.609375 -3.640625 Z M 3.609375 -1.25 "/>
</g>
<g id="glyph-1-6">
<path d="M 2.6875 -4.390625 C 2.46875 -4.4375 1.84375 -4.671875 1.84375 -5.234375 C 1.84375 -6.078125 2.703125 -6.09375 3.03125 -6.09375 C 3.59375 -6.09375 4.09375 -5.96875 4.578125 -5.5 C 4.734375 -5.34375 4.75 -5.328125 4.78125 -5.328125 C 4.84375 -5.328125 4.890625 -5.359375 4.921875 -5.515625 L 5.078125 -6.375 C 5.09375 -6.453125 5.09375 -6.484375 5.09375 -6.515625 C 5.09375 -6.59375 5.09375 -6.59375 4.84375 -6.734375 C 4.125 -7.078125 3.546875 -7.125 3.03125 -7.125 C 2.15625 -7.125 0.609375 -6.921875 0.609375 -5.0625 C 0.609375 -4.34375 0.96875 -3.890625 1.171875 -3.6875 C 1.671875 -3.171875 2.140625 -3.078125 2.921875 -2.890625 C 3.46875 -2.765625 3.6875 -2.71875 3.90625 -2.515625 C 4.015625 -2.421875 4.21875 -2.203125 4.21875 -1.828125 C 4.21875 -0.890625 3.359375 -0.859375 3.03125 -0.859375 C 2.203125 -0.859375 1.46875 -1.203125 0.96875 -1.65625 C 0.859375 -1.765625 0.84375 -1.765625 0.796875 -1.765625 C 0.734375 -1.765625 0.6875 -1.734375 0.65625 -1.59375 L 0.5 -0.734375 C 0.484375 -0.640625 0.484375 -0.625 0.484375 -0.59375 C 0.484375 -0.390625 1.515625 -0.03125 1.578125 -0.015625 C 2.234375 0.203125 2.78125 0.21875 3.03125 0.21875 C 4.53125 0.21875 5.46875 -0.453125 5.46875 -1.984375 C 5.46875 -3.109375 4.640625 -3.9375 3.640625 -4.171875 Z M 2.6875 -4.390625 "/>
</g>
<g id="glyph-1-7">
<path d="M 3.109375 -2.703125 L 4.640625 -4.125 C 4.765625 -4.234375 4.796875 -4.265625 4.796875 -4.34375 C 4.796875 -4.5625 4.59375 -4.5625 4.453125 -4.5625 L 3.875 -4.5625 C 3.703125 -4.5625 3.515625 -4.5625 3.28125 -4.34375 L 1.84375 -3.015625 L 1.84375 -6.421875 C 1.84375 -6.75 1.78125 -6.90625 1.375 -6.90625 L 1.171875 -6.90625 C 0.8125 -6.90625 0.6875 -6.796875 0.6875 -6.421875 L 0.6875 -0.484375 C 0.6875 -0.125 0.796875 0 1.171875 0 L 1.34375 0 C 1.71875 0 1.828125 -0.125 1.828125 -0.484375 L 1.828125 -1.515625 L 2.296875 -1.9375 L 3.578125 -0.25 C 3.75 -0.03125 3.828125 0 4.109375 0 L 4.59375 0 C 4.734375 0 4.953125 0 4.953125 -0.21875 C 4.953125 -0.234375 4.953125 -0.3125 4.84375 -0.4375 Z M 3.109375 -2.703125 "/>
</g>
<g id="glyph-1-8">
<path d="M 1.015625 -6.921875 C 0.703125 -6.921875 0.53125 -6.859375 0.53125 -6.453125 L 0.53125 -6 C 0.53125 -5.6875 0.640625 -5.546875 1 -5.546875 L 1.515625 -5.546875 C 2 -5.546875 2 -5.765625 2 -6.234375 C 2 -6.703125 2 -6.921875 1.515625 -6.921875 Z M 1.9375 -4.078125 C 1.9375 -4.40625 1.859375 -4.5625 1.453125 -4.5625 L 1.078125 -4.5625 C 0.734375 -4.5625 0.609375 -4.453125 0.609375 -4.078125 L 0.609375 -0.484375 C 0.609375 -0.125 0.71875 0 1.078125 0 L 1.453125 0 C 1.828125 0 1.9375 -0.125 1.9375 -0.484375 Z M 1.9375 -4.078125 "/>
</g>
<g id="glyph-1-9">
<path d="M 1.9375 -6.421875 C 1.9375 -6.75 1.859375 -6.90625 1.453125 -6.90625 L 1.078125 -6.90625 C 0.734375 -6.90625 0.609375 -6.796875 0.609375 -6.421875 L 0.609375 -0.484375 C 0.609375 -0.125 0.71875 0 1.078125 0 L 1.453125 0 C 1.828125 0 1.9375 -0.125 1.9375 -0.484375 Z M 1.9375 -6.421875 "/>
</g>
<g id="glyph-1-10">
<path d="M 6.984375 -6.421875 C 6.984375 -6.75 6.921875 -6.90625 6.515625 -6.90625 L 6 -6.90625 C 5.625 -6.90625 5.53125 -6.78125 5.53125 -6.421875 L 5.53125 -4.0625 L 2.375 -4.0625 L 2.375 -6.421875 C 2.375 -6.75 2.296875 -6.90625 1.890625 -6.90625 L 1.390625 -6.90625 C 1.03125 -6.90625 0.90625 -6.796875 0.90625 -6.421875 L 0.90625 -0.484375 C 0.90625 -0.125 1.015625 0 1.390625 0 L 1.890625 0 C 2.265625 0 2.375 -0.125 2.375 -0.484375 L 2.375 -3.125 L 5.53125 -3.125 L 5.53125 -0.484375 C 5.53125 -0.15625 5.59375 0 6 0 L 6.515625 0 C 6.890625 0 6.984375 -0.125 6.984375 -0.484375 Z M 6.984375 -6.421875 "/>
</g>
<g id="glyph-1-11">
<path d="M 5.53125 -3.25 C 5.3125 -2.75 4.953125 -1.828125 4.859375 -1.484375 C 4.765625 -1.84375 4.359375 -2.828125 4.15625 -3.359375 L 2.875 -6.5 C 2.703125 -6.90625 2.390625 -6.90625 2.203125 -6.90625 L 1.390625 -6.90625 C 1.03125 -6.90625 0.90625 -6.796875 0.90625 -6.421875 L 0.90625 -0.484375 C 0.90625 -0.125 1.015625 0 1.390625 0 L 1.65625 0 C 2.03125 0 2.125 -0.125 2.125 -0.484375 L 2.125 -5.625 L 2.140625 -5.625 C 2.25 -5.171875 2.703125 -4.078125 2.9375 -3.484375 L 4.09375 -0.640625 C 4.265625 -0.21875 4.515625 -0.21875 4.84375 -0.21875 C 5.1875 -0.21875 5.421875 -0.21875 5.609375 -0.640625 L 6.875 -3.765625 C 6.984375 -4.015625 7.515625 -5.359375 7.578125 -5.625 L 7.59375 -5.625 L 7.59375 -0.484375 C 7.59375 -0.15625 7.65625 0 8.078125 0 L 8.34375 0 C 8.71875 0 8.8125 -0.125 8.8125 -0.484375 L 8.8125 -6.421875 C 8.8125 -6.75 8.75 -6.90625 8.34375 -6.90625 L 7.5 -6.90625 C 7.25 -6.90625 7 -6.890625 6.84375 -6.484375 Z M 5.53125 -3.25 "/>
</g>
<g id="glyph-1-12">
<path d="M 2.375 -2.671875 L 3.875 -2.671875 C 5.4375 -2.671875 6.375 -3.328125 6.375 -4.75 C 6.375 -6.265625 5.40625 -6.90625 3.875 -6.90625 L 1.390625 -6.90625 C 1.03125 -6.90625 0.90625 -6.796875 0.90625 -6.421875 L 0.90625 -0.484375 C 0.90625 -0.125 1.015625 0 1.390625 0 L 1.890625 0 C 2.265625 0 2.375 -0.125 2.375 -0.484375 Z M 3.5625 -6.046875 C 4.859375 -6.046875 5 -5.453125 5 -4.75 C 5 -4.09375 4.890625 -3.453125 3.546875 -3.453125 L 2.34375 -3.453125 L 2.34375 -6.046875 Z M 3.5625 -6.046875 "/>
</g>
<g id="glyph-1-13">
<path d="M 3.9375 -1.40625 C 3.9375 -1.953125 3.640625 -2.3125 3.46875 -2.46875 C 3.0625 -2.828125 2.71875 -2.890625 2.296875 -2.96875 C 1.75 -3.0625 1.359375 -3.140625 1.359375 -3.53125 C 1.359375 -3.9375 1.6875 -4.015625 2.0625 -4.015625 C 2.734375 -4.015625 3.09375 -3.765625 3.359375 -3.546875 C 3.453125 -3.453125 3.46875 -3.453125 3.515625 -3.453125 C 3.609375 -3.453125 3.640625 -3.546875 3.640625 -3.578125 C 3.65625 -3.65625 3.765625 -4.21875 3.765625 -4.265625 C 3.765625 -4.421875 3.234375 -4.5625 3.125 -4.609375 C 2.734375 -4.71875 2.40625 -4.734375 2.15625 -4.734375 C 1.703125 -4.734375 0.375 -4.734375 0.375 -3.296875 C 0.375 -2.8125 0.59375 -2.515625 0.859375 -2.28125 C 1.203125 -1.953125 1.59375 -1.890625 2.15625 -1.78125 C 2.453125 -1.734375 2.953125 -1.640625 2.953125 -1.203125 C 2.953125 -0.734375 2.5625 -0.671875 2.1875 -0.671875 C 1.734375 -0.671875 1.1875 -0.796875 0.71875 -1.359375 C 0.671875 -1.40625 0.640625 -1.4375 0.578125 -1.4375 C 0.484375 -1.4375 0.453125 -1.34375 0.453125 -1.28125 C 0.421875 -1.140625 0.3125 -0.578125 0.3125 -0.484375 C 0.3125 -0.296875 1.046875 -0.0625 1.0625 -0.0625 C 1.609375 0.109375 2.015625 0.109375 2.1875 0.109375 C 2.6875 0.109375 3.9375 0.0625 3.9375 -1.40625 Z M 3.9375 -1.40625 "/>
</g>
<g id="glyph-1-14">
<path d="M 4.296875 -2.125 C 4.515625 -2.125 4.765625 -2.140625 4.765625 -2.59375 C 4.765625 -3.875 4.171875 -4.734375 2.6875 -4.734375 C 1.09375 -4.734375 0.3125 -3.828125 0.3125 -2.3125 C 0.3125 -0.6875 1.25 0.109375 2.8125 0.109375 C 3.1875 0.109375 3.765625 0.0625 4.421875 -0.265625 C 4.640625 -0.375 4.703125 -0.40625 4.703125 -0.53125 C 4.703125 -0.59375 4.671875 -0.890625 4.671875 -0.96875 C 4.625 -1.28125 4.625 -1.28125 4.53125 -1.28125 C 4.484375 -1.28125 4.46875 -1.28125 4.359375 -1.1875 C 3.765625 -0.671875 3.171875 -0.609375 2.859375 -0.609375 C 1.734375 -0.609375 1.609375 -1.5 1.578125 -2.125 Z M 1.59375 -2.65625 C 1.625 -3.265625 1.828125 -4.015625 2.6875 -4.015625 C 3.484375 -4.015625 3.640625 -3.4375 3.65625 -2.65625 Z M 1.59375 -2.65625 "/>
</g>
<g id="glyph-1-15">
<path d="M 1.9375 -2.296875 C 1.9375 -3.234375 2.71875 -3.625 3.34375 -3.65625 C 3.515625 -3.671875 3.546875 -3.671875 3.546875 -3.9375 L 3.546875 -4.40625 C 3.546875 -4.59375 3.546875 -4.671875 3.359375 -4.671875 C 3.078125 -4.671875 2.359375 -4.5625 1.890625 -3.5 L 1.875 -3.5 L 1.875 -4.140625 C 1.875 -4.453125 1.8125 -4.625 1.40625 -4.625 L 1.078125 -4.625 C 0.734375 -4.625 0.609375 -4.515625 0.609375 -4.140625 L 0.609375 -0.484375 C 0.609375 -0.125 0.71875 0 1.078125 0 L 1.453125 0 C 1.828125 0 1.9375 -0.125 1.9375 -0.484375 Z M 1.9375 -2.296875 "/>
</g>
<g id="glyph-1-16">
<path d="M 4.65625 -4.09375 C 4.703125 -4.234375 4.703125 -4.25 4.703125 -4.28125 C 4.703125 -4.5625 4.453125 -4.5625 4.3125 -4.5625 L 4.09375 -4.5625 C 3.6875 -4.5625 3.578125 -4.40625 3.484375 -4.125 L 2.5 -1.125 L 1.515625 -4.125 C 1.4375 -4.34375 1.375 -4.5625 0.890625 -4.5625 L 0.65625 -4.5625 C 0.5 -4.5625 0.265625 -4.5625 0.265625 -4.28125 C 0.265625 -4.25 0.265625 -4.234375 0.3125 -4.09375 L 1.5 -0.421875 C 1.625 0 1.9375 0 2.125 0 L 2.84375 0 C 3.03125 0 3.328125 0 3.46875 -0.421875 Z M 4.65625 -4.09375 "/>
</g>
<g id="glyph-1-17">
<path d="M 4.96875 -4.078125 C 4.96875 -4.40625 4.90625 -4.5625 4.5 -4.5625 L 4.09375 -4.5625 C 3.71875 -4.5625 3.625 -4.421875 3.625 -4.078125 L 3.625 -1.71875 C 3.625 -1.0625 3.28125 -0.5 2.5625 -0.5 C 2.015625 -0.5 1.953125 -0.640625 1.953125 -1.171875 L 1.953125 -4.078125 C 1.953125 -4.40625 1.875 -4.5625 1.46875 -4.5625 L 1.078125 -4.5625 C 0.71875 -4.5625 0.59375 -4.453125 0.59375 -4.078125 L 0.59375 -1.25 C 0.59375 -0.1875 1.171875 0.109375 2.203125 0.109375 C 2.484375 0.109375 3.1875 0.109375 3.65625 -0.734375 L 3.65625 -0.484375 C 3.65625 -0.15625 3.71875 0 4.125 0 L 4.5 0 C 4.875 0 4.96875 -0.125 4.96875 -0.484375 Z M 4.96875 -4.078125 "/>
</g>
<g id="glyph-1-18">
<path d="M 1.984375 -0.921875 C 1.625 -0.921875 1.5 -0.921875 1.359375 -1.03125 C 1.3125 -1.078125 1.140625 -1.21875 1.140625 -1.484375 C 1.140625 -1.546875 1.15625 -1.578125 1.171875 -1.625 C 1.625 -1.375 2.21875 -1.375 2.421875 -1.375 C 2.84375 -1.375 4.421875 -1.375 4.421875 -3.015625 C 4.421875 -3.59375 4.203125 -3.9375 4.125 -4.046875 C 4.296875 -4.046875 4.640625 -4.046875 5.046875 -3.9375 C 5.09375 -3.921875 5.15625 -3.90625 5.1875 -3.90625 C 5.265625 -3.90625 5.3125 -3.96875 5.3125 -4.03125 C 5.3125 -4.078125 5.265625 -4.3125 5.25 -4.40625 C 5.203125 -4.640625 5.203125 -4.671875 5.03125 -4.671875 C 4.71875 -4.671875 4.21875 -4.546875 3.84375 -4.3125 C 3.375 -4.625 2.859375 -4.671875 2.421875 -4.671875 C 2.015625 -4.671875 0.421875 -4.671875 0.421875 -3.03125 C 0.421875 -2.625 0.53125 -2.125 0.921875 -1.796875 C 0.640625 -1.4375 0.640625 -1.046875 0.640625 -1 C 0.640625 -0.8125 0.703125 -0.484375 0.921875 -0.203125 C 0.765625 -0.15625 0.25 0.03125 0.25 0.671875 C 0.25 0.96875 0.390625 1.5 1.03125 1.78125 C 1.59375 2.046875 2.265625 2.046875 2.734375 2.046875 C 3.3125 2.046875 5.21875 2.046875 5.21875 0.640625 C 5.21875 -0.921875 3.8125 -0.921875 2.46875 -0.921875 Z M 2.421875 -2.09375 C 1.734375 -2.09375 1.703125 -2.46875 1.703125 -3.015625 C 1.703125 -3.5625 1.734375 -3.953125 2.421875 -3.953125 C 3.125 -3.953125 3.15625 -3.578125 3.15625 -3.03125 C 3.15625 -2.484375 3.125 -2.09375 2.421875 -2.09375 Z M 2.96875 0.171875 C 3.765625 0.171875 4.1875 0.3125 4.1875 0.671875 C 4.1875 1.328125 3.0625 1.328125 2.734375 1.328125 C 2.34375 1.328125 1.28125 1.328125 1.28125 0.640625 C 1.28125 0.171875 1.578125 0.171875 1.8125 0.171875 Z M 2.96875 0.171875 "/>
</g>
<g id="glyph-2-0">
<path d="M 4.109375 -3.96875 L 3.40625 -3.96875 C 2.71875 -2.34375 2.234375 -1.15625 2.1875 -0.53125 C 2.15625 -0.9375 1.78125 -1.859375 1.671875 -2.125 C 1.3125 -3.03125 1.15625 -3.34375 0.875 -3.96875 L 0.125 -3.96875 L 1.921875 0 L 1.578125 0.796875 C 1.359375 1.296875 1.1875 1.296875 1.0625 1.296875 C 0.90625 1.296875 0.59375 1.265625 0.328125 1.140625 L 0.390625 1.765625 C 0.40625 1.765625 0.75 1.828125 1.046875 1.828125 C 1.296875 1.828125 1.671875 1.828125 2.125 0.765625 Z M 4.109375 -3.96875 "/>
</g>
<g id="glyph-2-1">
<path d="M 3.828125 -1.953125 C 3.828125 -2.234375 3.8125 -2.921875 3.46875 -3.453125 C 3.09375 -4.015625 2.515625 -4.125 2.171875 -4.125 C 1.140625 -4.125 0.3125 -3.171875 0.3125 -2.015625 C 0.3125 -0.84375 1.1875 0.09375 2.3125 0.09375 C 2.734375 0.09375 3.265625 -0.015625 3.78125 -0.34375 L 3.71875 -0.953125 C 3.15625 -0.5625 2.625 -0.484375 2.3125 -0.484375 C 1.578125 -0.484375 1 -1.140625 0.96875 -1.953125 Z M 1.03125 -2.484375 C 1.171875 -3.0625 1.609375 -3.546875 2.171875 -3.546875 C 2.5 -3.546875 3.109375 -3.390625 3.28125 -2.484375 Z M 1.03125 -2.484375 "/>
</g>
<g id="glyph-2-2">
<path d="M 3.15625 -3.84375 C 2.609375 -4.09375 2.1875 -4.125 1.828125 -4.125 C 1.625 -4.125 0.296875 -4.125 0.296875 -2.953125 C 0.296875 -2.515625 0.5625 -2.25 0.65625 -2.15625 C 1 -1.859375 1.234375 -1.8125 1.84375 -1.6875 C 2.125 -1.640625 2.640625 -1.546875 2.640625 -1.078125 C 2.640625 -0.5 1.921875 -0.5 1.796875 -0.5 C 1.265625 -0.5 0.765625 -0.6875 0.375 -0.953125 L 0.265625 -0.296875 C 0.796875 -0.015625 1.34375 0.09375 1.796875 0.09375 C 2.375 0.09375 3.3125 -0.09375 3.3125 -1.15625 C 3.3125 -1.46875 3.1875 -1.78125 2.875 -2.046875 C 2.5625 -2.3125 2.296875 -2.359375 1.75 -2.46875 C 1.421875 -2.53125 0.96875 -2.609375 0.96875 -3.03125 C 0.96875 -3.5625 1.609375 -3.5625 1.75 -3.5625 C 2.40625 -3.5625 2.78125 -3.359375 3.046875 -3.21875 Z M 3.15625 -3.84375 "/>
</g>
<g id="glyph-2-3">
<path d="M 4.015625 -2.65625 C 4.015625 -3.328125 3.84375 -4.078125 2.75 -4.078125 C 2.046875 -4.078125 1.625 -3.65625 1.421875 -3.390625 L 1.421875 -4.03125 L 0.71875 -4.03125 L 0.71875 0 L 1.46875 0 L 1.46875 -2.1875 C 1.46875 -2.78125 1.703125 -3.484375 2.375 -3.484375 C 3.28125 -3.484375 3.28125 -2.859375 3.28125 -2.59375 L 3.28125 0 L 4.015625 0 Z M 4.015625 -2.65625 "/>
</g>
<g id="glyph-2-4">
<path d="M 4.328125 -1.96875 C 4.328125 -3.140625 3.421875 -4.125 2.296875 -4.125 C 1.1875 -4.125 0.265625 -3.15625 0.265625 -1.96875 C 0.265625 -0.78125 1.203125 0.09375 2.296875 0.09375 C 3.40625 0.09375 4.328125 -0.8125 4.328125 -1.96875 Z M 2.296875 -0.515625 C 1.609375 -0.515625 1.015625 -1.046875 1.015625 -2.0625 C 1.015625 -3.109375 1.6875 -3.546875 2.296875 -3.546875 C 2.9375 -3.546875 3.578125 -3.09375 3.578125 -2.0625 C 3.578125 -1.015625 2.953125 -0.515625 2.296875 -0.515625 Z M 2.296875 -0.515625 "/>
</g>
</g>
<clipPath id="clip-0">
<path clip-rule="nonzero" d="M 204 112 L 319.890625 112 L 319.890625 168 L 204 168 Z M 204 112 "/>
</clipPath>
</defs>
<path fill-rule="nonzero" fill="rgb(95.999146%, 95.999146%, 95.999146%)" fill-opacity="1" stroke-width="0.3985" stroke-linecap="butt" stroke-linejoin="miter" stroke="rgb(29.998779%, 29.998779%, 29.998779%)" stroke-opacity="1" stroke-miterlimit="10" d="M 63.248797 0.0007544 L -0.00118554 31.582702 L -63.247255 0.0007544 L -0.00118554 -31.581194 Z M 63.248797 0.0007544 " transform="matrix(0.998271, 0, 0, -0.998271, 86.591027, 43.410909)"/>
<g fill="rgb(0%, 0%, 0%)" fill-opacity="1">
<use xlink:href="#glyph-0-0" x="49.399442" y="45.897602"/>
<use xlink:href="#glyph-0-1" x="55.822165" y="45.897602"/>
<use xlink:href="#glyph-0-2" x="60.24189" y="45.897602"/>
<use xlink:href="#glyph-0-3" x="65.380665" y="45.897602"/>
<use xlink:href="#glyph-0-4" x="69.192727" y="45.897602"/>
<use xlink:href="#glyph-0-5" x="73.972474" y="45.897602"/>
<use xlink:href="#glyph-0-6" x="79.111249" y="45.897602"/>
<use xlink:href="#glyph-0-1" x="81.4872" y="45.897602"/>
</g>
<g fill="rgb(0%, 0%, 0%)" fill-opacity="1">
<use xlink:href="#glyph-0-7" x="89.218734" y="45.897602"/>
</g>
<g fill="rgb(0%, 0%, 0%)" fill-opacity="1">
<use xlink:href="#glyph-0-8" x="94.088984" y="45.897602"/>
<use xlink:href="#glyph-0-9" x="97.487319" y="45.897602"/>
<use xlink:href="#glyph-0-10" x="102.460006" y="45.897602"/>
<use xlink:href="#glyph-0-7" x="110.360612" y="45.897602"/>
<use xlink:href="#glyph-0-11" x="115.499387" y="45.897602"/>
<use xlink:href="#glyph-0-12" x="119.090662" y="45.897602"/>
</g>
<path fill-rule="nonzero" fill="rgb(90.008545%, 92.658997%, 95.15686%)" fill-opacity="1" stroke-width="0.89664" stroke-linecap="butt" stroke-linejoin="miter" stroke="rgb(23.136902%, 43.528748%, 62.745667%)" stroke-opacity="1" stroke-miterlimit="10" d="M 205.97995 14.881952 L 123.239237 14.881952 C 121.040123 14.881952 119.255788 13.097617 119.255788 10.898503 L 119.255788 -10.896994 C 119.255788 -13.096108 121.040123 -14.880444 123.239237 -14.880444 L 205.97995 -14.880444 C 208.179065 -14.880444 209.9634 -13.096108 209.9634 -10.896994 L 209.9634 10.898503 C 209.9634 13.097617 208.179065 14.881952 205.97995 14.881952 Z M 205.97995 14.881952 " transform="matrix(0.998271, 0, 0, -0.998271, 86.591027, 43.410909)"/>
<g fill="rgb(0%, 0%, 0%)" fill-opacity="1">
<use xlink:href="#glyph-1-0" x="227.874329" y="46.863929"/>
<use xlink:href="#glyph-1-1" x="234.863939" y="46.863929"/>
<use xlink:href="#glyph-1-2" x="240.333895" y="46.863929"/>
<use xlink:href="#glyph-1-2" x="248.953551" y="46.863929"/>
<use xlink:href="#glyph-1-3" x="257.573208" y="46.863929"/>
<use xlink:href="#glyph-1-4" x="262.79453" y="46.863929"/>
<use xlink:href="#glyph-1-5" x="268.37488" y="46.863929"/>
</g>
<path fill-rule="nonzero" fill="rgb(95.999146%, 95.999146%, 95.999146%)" fill-opacity="1" stroke-width="0.3985" stroke-linecap="butt" stroke-linejoin="miter" stroke="rgb(29.998779%, 29.998779%, 29.998779%)" stroke-opacity="1" stroke-miterlimit="10" d="M 75.203059 -96.635076 L -0.00118554 -59.077954 L -75.20543 -96.635076 L -0.00118554 -134.196112 Z M 75.203059 -96.635076 " transform="matrix(0.998271, 0, 0, -0.998271, 86.591027, 43.410909)"/>
<g fill="rgb(0%, 0%, 0%)" fill-opacity="1">
<use xlink:href="#glyph-0-13" x="65.359799" y="136.398857"/>
<use xlink:href="#glyph-0-2" x="74.062002" y="136.398857"/>
<use xlink:href="#glyph-0-6" x="79.200777" y="136.398857"/>
<use xlink:href="#glyph-0-11" x="81.576727" y="136.398857"/>
<use xlink:href="#glyph-0-14" x="85.168002" y="136.398857"/>
<use xlink:href="#glyph-0-15" x="87.543952" y="136.398857"/>
<use xlink:href="#glyph-0-3" x="90.858746" y="136.398857"/>
<use xlink:href="#glyph-0-11" x="94.670808" y="136.398857"/>
<use xlink:href="#glyph-0-1" x="98.262083" y="136.398857"/>
<use xlink:href="#glyph-0-7" x="102.681808" y="136.398857"/>
</g>
<g fill="rgb(0%, 0%, 0%)" fill-opacity="1">
<use xlink:href="#glyph-0-7" x="64.020119" y="148.333187"/>
</g>
<g fill="rgb(0%, 0%, 0%)" fill-opacity="1">
<use xlink:href="#glyph-0-8" x="68.880424" y="148.333187"/>
<use xlink:href="#glyph-0-9" x="72.278759" y="148.333187"/>
</g>
<g fill="rgb(0%, 0%, 0%)" fill-opacity="1">
<use xlink:href="#glyph-0-16" x="77.529917" y="148.333187"/>
<use xlink:href="#glyph-0-1" x="81.949641" y="148.333187"/>
<use xlink:href="#glyph-0-17" x="86.369366" y="148.333187"/>
<use xlink:href="#glyph-0-2" x="91.508141" y="148.333187"/>
<use xlink:href="#glyph-0-8" x="96.646916" y="148.333187"/>
<use xlink:href="#glyph-0-1" x="100.045251" y="148.333187"/>
<use xlink:href="#glyph-0-12" x="104.464976" y="148.333187"/>
</g>
<path fill-rule="nonzero" fill="rgb(89.350891%, 92.411804%, 88.703918%)" fill-opacity="1" d="M 304.148438 125.023438 L 221.554688 125.023438 C 219.355469 125.023438 217.574219 126.804688 217.574219 129.003906 L 217.574219 150.757812 C 217.574219 152.957031 219.355469 154.738281 221.554688 154.738281 L 304.148438 154.738281 C 306.347656 154.738281 308.128906 152.957031 308.128906 150.757812 L 308.128906 129.003906 C 308.128906 126.804688 306.347656 125.023438 304.148438 125.023438 Z M 304.148438 125.023438 "/>
<g clip-path="url(#clip-0)">
<path fill="none" stroke-width="0.89664" stroke-linecap="butt" stroke-linejoin="miter" stroke="rgb(29.019165%, 49.412537%, 24.705505%)" stroke-opacity="1" stroke-miterlimit="10" d="M 217.934212 -81.753878 L 135.197413 -81.753878 C 132.994385 -81.753878 131.21005 -83.538213 131.21005 -85.741241 L 131.21005 -107.532824 C 131.21005 -109.735852 132.994385 -111.520187 135.197413 -111.520187 L 217.934212 -111.520187 C 220.13724 -111.520187 221.921575 -109.735852 221.921575 -107.532824 L 221.921575 -85.741241 C 221.921575 -83.538213 220.13724 -81.753878 217.934212 -81.753878 Z M 217.934212 -81.753878 " transform="matrix(0.998271, 0, 0, -0.998271, 86.591027, 43.410909)"/>
</g>
<g fill="rgb(0%, 0%, 0%)" fill-opacity="1">
<use xlink:href="#glyph-1-6" x="253.35919" y="143.332848"/>
<use xlink:href="#glyph-1-7" x="259.436809" y="143.332848"/>
<use xlink:href="#glyph-1-8" x="264.713825" y="143.332848"/>
<use xlink:href="#glyph-1-9" x="267.255863" y="143.332848"/>
<use xlink:href="#glyph-1-9" x="269.797901" y="143.332848"/>
</g>
<path fill-rule="nonzero" fill="rgb(95.999146%, 95.999146%, 95.999146%)" fill-opacity="1" stroke-width="0.3985" stroke-linecap="butt" stroke-linejoin="miter" stroke="rgb(29.998779%, 29.998779%, 29.998779%)" stroke-opacity="1" stroke-miterlimit="10" d="M 73.266117 -198.28348 L -0.00118554 -161.688959 L -73.268488 -198.28348 L -0.00118554 -234.874088 Z M 73.266117 -198.28348 " transform="matrix(0.998271, 0, 0, -0.998271, 86.591027, 43.410909)"/>
<g fill="rgb(0%, 0%, 0%)" fill-opacity="1">
<use xlink:href="#glyph-0-18" x="70.042688" y="238.834442"/>
<use xlink:href="#glyph-0-14" x="75.705585" y="238.834442"/>
<use xlink:href="#glyph-0-8" x="78.081535" y="238.834442"/>
<use xlink:href="#glyph-0-1" x="81.47987" y="238.834442"/>
<use xlink:href="#glyph-0-3" x="85.899594" y="238.834442"/>
</g>
<g fill="rgb(0%, 0%, 0%)" fill-opacity="1">
<use xlink:href="#glyph-0-9" x="93.023466" y="238.834442"/>
<use xlink:href="#glyph-0-19" x="97.996154" y="238.834442"/>
</g>
<g fill="rgb(0%, 0%, 0%)" fill-opacity="1">
<use xlink:href="#glyph-0-4" x="66.54874" y="250.768772"/>
<use xlink:href="#glyph-0-19" x="71.328487" y="250.768772"/>
</g>
<g fill="rgb(0%, 0%, 0%)" fill-opacity="1">
<use xlink:href="#glyph-0-1" x="79.779072" y="250.768772"/>
<use xlink:href="#glyph-0-20" x="84.198797" y="250.768772"/>
<use xlink:href="#glyph-0-1" x="88.784609" y="250.768772"/>
<use xlink:href="#glyph-0-19" x="93.204334" y="250.768772"/>
<use xlink:href="#glyph-0-11" x="98.343109" y="250.768772"/>
<use xlink:href="#glyph-0-12" x="101.934384" y="250.768772"/>
</g>
<path fill-rule="nonzero" fill="rgb(96.29364%, 91.117859%, 90.174866%)" fill-opacity="1" stroke-width="0.89664" stroke-linecap="butt" stroke-linejoin="miter" stroke="rgb(75.292969%, 40.783691%, 34.510803%)" stroke-opacity="1" stroke-miterlimit="10" d="M 215.99727 -183.402282 L 133.256557 -183.402282 C 131.057442 -183.402282 129.273107 -185.186617 129.273107 -187.385732 L 129.273107 -209.181228 C 129.273107 -211.380343 131.057442 -213.164678 133.256557 -213.164678 L 215.99727 -213.164678 C 218.200297 -213.164678 219.984633 -211.380343 219.984633 -209.181228 L 219.984633 -187.385732 C 219.984633 -185.186617 218.200297 -183.402282 215.99727 -183.402282 Z M 215.99727 -183.402282 " transform="matrix(0.998271, 0, 0, -0.998271, 86.591027, 43.410909)"/>
<g fill="rgb(0%, 0%, 0%)" fill-opacity="1">
<use xlink:href="#glyph-1-10" x="248.704253" y="244.802107"/>
<use xlink:href="#glyph-1-1" x="256.605853" y="244.802107"/>
</g>
<g fill="rgb(0%, 0%, 0%)" fill-opacity="1">
<use xlink:href="#glyph-1-1" x="262.37417" y="244.802107"/>
<use xlink:href="#glyph-1-7" x="267.844127" y="244.802107"/>
</g>
<path fill-rule="nonzero" fill="rgb(95.999146%, 95.999146%, 95.999146%)" fill-opacity="1" stroke-width="0.3985" stroke-linecap="butt" stroke-linejoin="miter" stroke="rgb(29.998779%, 29.998779%, 29.998779%)" stroke-opacity="1" stroke-miterlimit="10" d="M 73.266117 -298.961455 L -0.00118554 -262.366934 L -73.268488 -298.961455 L -0.00118554 -335.552063 Z M 73.266117 -298.961455 " transform="matrix(0.998271, 0, 0, -0.998271, 86.591027, 43.410909)"/>
<g fill="rgb(0%, 0%, 0%)" fill-opacity="1">
<use xlink:href="#glyph-0-21" x="67.556994" y="339.336376"/>
<use xlink:href="#glyph-0-1" x="74.601303" y="339.336376"/>
<use xlink:href="#glyph-0-1" x="79.021027" y="339.336376"/>
<use xlink:href="#glyph-0-17" x="83.440752" y="339.336376"/>
<use xlink:href="#glyph-0-3" x="88.579527" y="339.336376"/>
</g>
<g fill="rgb(0%, 0%, 0%)" fill-opacity="1">
<use xlink:href="#glyph-0-4" x="95.703399" y="339.336376"/>
<use xlink:href="#glyph-0-19" x="100.483146" y="339.336376"/>
</g>
<g fill="rgb(0%, 0%, 0%)" fill-opacity="1">
<use xlink:href="#glyph-0-1" x="58.13631" y="351.270706"/>
<use xlink:href="#glyph-0-22" x="62.556034" y="351.270706"/>
<use xlink:href="#glyph-0-11" x="67.141847" y="351.270706"/>
<use xlink:href="#glyph-0-1" x="70.733122" y="351.270706"/>
<use xlink:href="#glyph-0-8" x="75.152846" y="351.270706"/>
<use xlink:href="#glyph-0-19" x="78.551181" y="351.270706"/>
<use xlink:href="#glyph-0-4" x="83.689956" y="351.270706"/>
<use xlink:href="#glyph-0-6" x="88.469703" y="351.270706"/>
</g>
<g fill="rgb(0%, 0%, 0%)" fill-opacity="1">
<use xlink:href="#glyph-0-11" x="94.157463" y="351.270706"/>
<use xlink:href="#glyph-0-9" x="97.748738" y="351.270706"/>
</g>
<g fill="rgb(0%, 0%, 0%)" fill-opacity="1">
<use xlink:href="#glyph-0-9" x="102.999896" y="351.270706"/>
<use xlink:href="#glyph-0-6" x="107.972584" y="351.270706"/>
<use xlink:href="#glyph-0-12" x="110.348534" y="351.270706"/>
</g>
<path fill-rule="nonzero" fill="rgb(93.11676%, 89.588928%, 92.64679%)" fill-opacity="1" stroke-width="0.89664" stroke-linecap="butt" stroke-linejoin="miter" stroke="rgb(54.116821%, 30.587769%, 50.979614%)" stroke-opacity="1" stroke-miterlimit="10" d="M 215.99727 -284.076344 L 133.256557 -284.076344 C 131.057442 -284.076344 129.273107 -285.86068 129.273107 -288.063707 L 129.273107 -309.855291 C 129.273107 -312.058318 131.057442 -313.842653 133.256557 -313.842653 L 215.99727 -313.842653 C 218.200297 -313.842653 219.984633 -312.058318 219.984633 -309.855291 L 219.984633 -288.063707 C 219.984633 -285.86068 218.200297 -284.076344 215.99727 -284.076344 Z M 215.99727 -284.076344 " transform="matrix(0.998271, 0, 0, -0.998271, 86.591027, 43.410909)"/>
<g fill="rgb(0%, 0%, 0%)" fill-opacity="1">
<use xlink:href="#glyph-1-11" x="233.871942" y="345.304041"/>
<use xlink:href="#glyph-1-0" x="243.596529" y="345.304041"/>
<use xlink:href="#glyph-1-12" x="250.586139" y="345.304041"/>
</g>
<g fill="rgb(0%, 0%, 0%)" fill-opacity="1">
<use xlink:href="#glyph-1-13" x="261.225701" y="345.304041"/>
<use xlink:href="#glyph-1-14" x="265.419665" y="345.304041"/>
<use xlink:href="#glyph-1-15" x="270.502747" y="345.304041"/>
<use xlink:href="#glyph-1-16" x="274.204415" y="345.304041"/>
<use xlink:href="#glyph-1-14" x="279.177103" y="345.304041"/>
<use xlink:href="#glyph-1-15" x="284.260184" y="345.304041"/>
</g>
<path fill-rule="nonzero" fill="rgb(95.999146%, 95.999146%, 95.999146%)" fill-opacity="1" stroke-width="0.3985" stroke-linecap="butt" stroke-linejoin="miter" stroke="rgb(29.998779%, 29.998779%, 29.998779%)" stroke-opacity="1" stroke-miterlimit="10" d="M 73.266117 -399.635518 L -0.00118554 -363.04491 L -73.268488 -399.635518 L -0.00118554 -436.230039 Z M 73.266117 -399.635518 " transform="matrix(0.998271, 0, 0, -0.998271, 86.591027, 43.410909)"/>
<g fill="rgb(0%, 0%, 0%)" fill-opacity="1">
<use xlink:href="#glyph-0-23" x="68.136989" y="439.83831"/>
<use xlink:href="#glyph-0-2" x="74.76757" y="439.83831"/>
<use xlink:href="#glyph-0-19" x="79.906346" y="439.83831"/>
<use xlink:href="#glyph-0-17" x="85.045121" y="439.83831"/>
<use xlink:href="#glyph-0-6" x="90.183896" y="439.83831"/>
<use xlink:href="#glyph-0-14" x="92.559846" y="439.83831"/>
<use xlink:href="#glyph-0-19" x="94.935796" y="439.83831"/>
<use xlink:href="#glyph-0-24" x="100.074572" y="439.83831"/>
</g>
<g fill="rgb(0%, 0%, 0%)" fill-opacity="1">
<use xlink:href="#glyph-0-3" x="70.347161" y="451.772641"/>
<use xlink:href="#glyph-0-1" x="74.159223" y="451.772641"/>
<use xlink:href="#glyph-0-20" x="78.578948" y="451.772641"/>
<use xlink:href="#glyph-0-1" x="83.16476" y="451.772641"/>
<use xlink:href="#glyph-0-8" x="87.584485" y="451.772641"/>
<use xlink:href="#glyph-0-4" x="90.98282" y="451.772641"/>
<use xlink:href="#glyph-0-6" x="95.762567" y="451.772641"/>
<use xlink:href="#glyph-0-12" x="98.138517" y="451.772641"/>
</g>
<path fill-rule="nonzero" fill="rgb(96.044922%, 93.537903%, 88.015747%)" fill-opacity="1" stroke-width="0.89664" stroke-linecap="butt" stroke-linejoin="miter" stroke="rgb(75.292969%, 59.606934%, 25.097656%)" stroke-opacity="1" stroke-miterlimit="10" d="M 215.99727 -384.75432 L 133.256557 -384.75432 C 131.057442 -384.75432 129.273107 -386.538655 129.273107 -388.741683 L 129.273107 -410.533266 C 129.273107 -412.736294 131.057442 -414.520629 133.256557 -414.520629 L 215.99727 -414.520629 C 218.200297 -414.520629 219.984633 -412.736294 219.984633 -410.533266 L 219.984633 -388.741683 C 219.984633 -386.538655 218.200297 -384.75432 215.99727 -384.75432 Z M 215.99727 -384.75432 " transform="matrix(0.998271, 0, 0, -0.998271, 86.591027, 43.410909)"/>
<g fill="rgb(0%, 0%, 0%)" fill-opacity="1">
<use xlink:href="#glyph-1-12" x="246.562961" y="444.83865"/>
<use xlink:href="#glyph-1-9" x="253.552571" y="444.83865"/>
<use xlink:href="#glyph-1-17" x="256.094609" y="444.83865"/>
<use xlink:href="#glyph-1-18" x="261.674958" y="444.83865"/>
<use xlink:href="#glyph-1-8" x="267.144915" y="444.83865"/>
<use xlink:href="#glyph-1-4" x="269.686952" y="444.83865"/>
</g>
<path fill="none" stroke-width="0.79701" stroke-linecap="butt" stroke-linejoin="miter" stroke="rgb(29.998779%, 29.998779%, 29.998779%)" stroke-opacity="1" stroke-miterlimit="10" d="M 63.53836 0.0007544 L 114.697125 0.0007544 " transform="matrix(0.998271, 0, 0, -0.998271, 86.591027, 43.410909)"/>
<path fill-rule="nonzero" fill="rgb(29.998779%, 29.998779%, 29.998779%)" fill-opacity="1" stroke-width="0.79701" stroke-linecap="butt" stroke-linejoin="miter" stroke="rgb(29.998779%, 29.998779%, 29.998779%)" stroke-opacity="1" stroke-miterlimit="10" d="M 5.439696 0.0007544 L 1.287987 1.569874 L 2.665368 0.0007544 L 1.287987 -1.572278 Z M 5.439696 0.0007544 " transform="matrix(0.998271, 0, 0, -0.998271, 198.628302, 43.410909)"/>
<path fill-rule="nonzero" fill="rgb(100%, 100%, 100%)" fill-opacity="1" d="M 170.3125 47.761719 L 184.898438 47.761719 L 184.898438 39.058594 L 170.3125 39.058594 Z M 170.3125 47.761719 "/>
<g fill="rgb(0%, 0%, 0%)" fill-opacity="1">
<use xlink:href="#glyph-2-0" x="171.803442" y="44.529971"/>
</g>
<g fill="rgb(0%, 0%, 0%)" fill-opacity="1">
<use xlink:href="#glyph-2-1" x="175.784801" y="44.529971"/>
<use xlink:href="#glyph-2-2" x="179.873571" y="44.529971"/>
</g>
<path fill="none" stroke-width="0.79701" stroke-linecap="butt" stroke-linejoin="miter" stroke="rgb(29.998779%, 29.998779%, 29.998779%)" stroke-opacity="1" stroke-miterlimit="10" d="M -0.00118554 -31.866844 L -0.00118554 -54.679724 " transform="matrix(0.998271, 0, 0, -0.998271, 86.591027, 43.410909)"/>
<path fill-rule="nonzero" fill="rgb(29.998779%, 29.998779%, 29.998779%)" fill-opacity="1" stroke-width="0.79701" stroke-linecap="butt" stroke-linejoin="miter" stroke="rgb(29.998779%, 29.998779%, 29.998779%)" stroke-opacity="1" stroke-miterlimit="10" d="M 5.441879 -0.00118554 L 1.286256 1.571847 L 2.663638 -0.00118554 L 1.286256 -1.570305 Z M 5.441879 -0.00118554 " transform="matrix(0, 0.998271, 0.998271, 0, 86.591027, 95.53628)"/>
<path fill-rule="nonzero" fill="rgb(100%, 100%, 100%)" fill-opacity="1" d="M 80.421875 92.140625 L 92.757812 92.140625 L 92.757812 85.179688 L 80.421875 85.179688 Z M 80.421875 92.140625 "/>
<g fill="rgb(0%, 0%, 0%)" fill-opacity="1">
<use xlink:href="#glyph-2-3" x="81.915126" y="90.650093"/>
<use xlink:href="#glyph-2-4" x="86.667157" y="90.650093"/>
</g>
<path fill="none" stroke-width="0.79701" stroke-linecap="butt" stroke-linejoin="miter" stroke="rgb(29.998779%, 29.998779%, 29.998779%)" stroke-opacity="1" stroke-miterlimit="10" d="M 75.488709 -96.635076 L 126.651387 -96.635076 " transform="matrix(0.998271, 0, 0, -0.998271, 86.591027, 43.410909)"/>
<path fill-rule="nonzero" fill="rgb(29.998779%, 29.998779%, 29.998779%)" fill-opacity="1" stroke-width="0.79701" stroke-linecap="butt" stroke-linejoin="miter" stroke="rgb(29.998779%, 29.998779%, 29.998779%)" stroke-opacity="1" stroke-miterlimit="10" d="M 5.438629 0.00176376 L 1.286919 1.570883 L 2.664301 0.00176376 L 1.286919 -1.571268 Z M 5.438629 0.00176376 " transform="matrix(0.998271, 0, 0, -0.998271, 210.562962, 139.880667)"/>
<path fill-rule="nonzero" fill="rgb(100%, 100%, 100%)" fill-opacity="1" d="M 182.246094 144.230469 L 196.828125 144.230469 L 196.828125 135.53125 L 182.246094 135.53125 Z M 182.246094 144.230469 "/>
<g fill="rgb(0%, 0%, 0%)" fill-opacity="1">
<use xlink:href="#glyph-2-0" x="183.736774" y="140.99889"/>
</g>
<g fill="rgb(0%, 0%, 0%)" fill-opacity="1">
<use xlink:href="#glyph-2-1" x="187.718133" y="140.99889"/>
<use xlink:href="#glyph-2-2" x="191.806903" y="140.99889"/>
</g>
<path fill="none" stroke-width="0.79701" stroke-linecap="butt" stroke-linejoin="miter" stroke="rgb(29.998779%, 29.998779%, 29.998779%)" stroke-opacity="1" stroke-miterlimit="10" d="M -0.00118554 -134.481762 L -0.00118554 -157.298555 " transform="matrix(0.998271, 0, 0, -0.998271, 86.591027, 43.410909)"/>
<path fill-rule="nonzero" fill="rgb(29.998779%, 29.998779%, 29.998779%)" fill-opacity="1" stroke-width="0.79701" stroke-linecap="butt" stroke-linejoin="miter" stroke="rgb(29.998779%, 29.998779%, 29.998779%)" stroke-opacity="1" stroke-miterlimit="10" d="M 5.440447 -0.00118554 L 1.288738 1.571847 L 2.666119 -0.00118554 L 1.288738 -1.570305 Z M 5.440447 -0.00118554 " transform="matrix(0, 0.998271, 0.998271, 0, 86.591027, 197.975209)"/>
<path fill-rule="nonzero" fill="rgb(100%, 100%, 100%)" fill-opacity="1" d="M 80.421875 194.582031 L 92.757812 194.582031 L 92.757812 187.617188 L 80.421875 187.617188 Z M 80.421875 194.582031 "/>
<g fill="rgb(0%, 0%, 0%)" fill-opacity="1">
<use xlink:href="#glyph-2-3" x="81.915126" y="193.086676"/>
<use xlink:href="#glyph-2-4" x="86.667157" y="193.086676"/>
</g>
<path fill="none" stroke-width="0.79701" stroke-linecap="butt" stroke-linejoin="miter" stroke="rgb(29.998779%, 29.998779%, 29.998779%)" stroke-opacity="1" stroke-miterlimit="10" d="M 73.551767 -198.28348 L 124.714444 -198.28348 " transform="matrix(0.998271, 0, 0, -0.998271, 86.591027, 43.410909)"/>
<path fill-rule="nonzero" fill="rgb(29.998779%, 29.998779%, 29.998779%)" fill-opacity="1" stroke-width="0.79701" stroke-linecap="butt" stroke-linejoin="miter" stroke="rgb(29.998779%, 29.998779%, 29.998779%)" stroke-opacity="1" stroke-miterlimit="10" d="M 5.438886 -0.000719731 L 1.287177 1.572312 L 2.664558 -0.000719731 L 1.287177 -1.569839 Z M 5.438886 -0.000719731 " transform="matrix(0.998271, 0, 0, -0.998271, 208.629111, 241.350844)"/>
<path fill-rule="nonzero" fill="rgb(100%, 100%, 100%)" fill-opacity="1" d="M 180.3125 245.703125 L 194.898438 245.703125 L 194.898438 237 L 180.3125 237 Z M 180.3125 245.703125 "/>
<g fill="rgb(0%, 0%, 0%)" fill-opacity="1">
<use xlink:href="#glyph-2-0" x="181.804121" y="242.467151"/>
</g>
<g fill="rgb(0%, 0%, 0%)" fill-opacity="1">
<use xlink:href="#glyph-2-1" x="185.78548" y="242.467151"/>
<use xlink:href="#glyph-2-2" x="189.87425" y="242.467151"/>
</g>
<path fill="none" stroke-width="0.79701" stroke-linecap="butt" stroke-linejoin="miter" stroke="rgb(29.998779%, 29.998779%, 29.998779%)" stroke-opacity="1" stroke-miterlimit="10" d="M -0.00118554 -235.155825 L -0.00118554 -257.972618 " transform="matrix(0.998271, 0, 0, -0.998271, 86.591027, 43.410909)"/>
<path fill-rule="nonzero" fill="rgb(29.998779%, 29.998779%, 29.998779%)" fill-opacity="1" stroke-width="0.79701" stroke-linecap="butt" stroke-linejoin="miter" stroke="rgb(29.998779%, 29.998779%, 29.998779%)" stroke-opacity="1" stroke-miterlimit="10" d="M 5.441483 -0.00118554 L 1.28586 1.571847 L 2.663242 -0.00118554 L 1.28586 -1.570305 Z M 5.441483 -0.00118554 " transform="matrix(0, 0.998271, 0.998271, 0, 86.591027, 298.478082)"/>
<path fill-rule="nonzero" fill="rgb(100%, 100%, 100%)" fill-opacity="1" d="M 80.421875 295.082031 L 92.757812 295.082031 L 92.757812 288.121094 L 80.421875 288.121094 Z M 80.421875 295.082031 "/>
<g fill="rgb(0%, 0%, 0%)" fill-opacity="1">
<use xlink:href="#glyph-2-3" x="81.915126" y="293.58861"/>
<use xlink:href="#glyph-2-4" x="86.667157" y="293.58861"/>
</g>
<path fill="none" stroke-width="0.79701" stroke-linecap="butt" stroke-linejoin="miter" stroke="rgb(29.998779%, 29.998779%, 29.998779%)" stroke-opacity="1" stroke-miterlimit="10" d="M 73.551767 -298.961455 L 124.714444 -298.961455 " transform="matrix(0.998271, 0, 0, -0.998271, 86.591027, 43.410909)"/>
<path fill-rule="nonzero" fill="rgb(29.998779%, 29.998779%, 29.998779%)" fill-opacity="1" stroke-width="0.79701" stroke-linecap="butt" stroke-linejoin="miter" stroke="rgb(29.998779%, 29.998779%, 29.998779%)" stroke-opacity="1" stroke-miterlimit="10" d="M 5.438886 -0.00137538 L 1.287177 1.571657 L 2.664558 -0.00137538 L 1.287177 -1.570495 Z M 5.438886 -0.00137538 " transform="matrix(0.998271, 0, 0, -0.998271, 208.629111, 341.854096)"/>
<path fill-rule="nonzero" fill="rgb(100%, 100%, 100%)" fill-opacity="1" d="M 180.3125 346.207031 L 194.898438 346.207031 L 194.898438 337.503906 L 180.3125 337.503906 Z M 180.3125 346.207031 "/>
<g fill="rgb(0%, 0%, 0%)" fill-opacity="1">
<use xlink:href="#glyph-2-0" x="181.804121" y="342.969085"/>
</g>
<g fill="rgb(0%, 0%, 0%)" fill-opacity="1">
<use xlink:href="#glyph-2-1" x="185.78548" y="342.969085"/>
<use xlink:href="#glyph-2-2" x="189.87425" y="342.969085"/>
</g>
<path fill="none" stroke-width="0.79701" stroke-linecap="butt" stroke-linejoin="miter" stroke="rgb(29.998779%, 29.998779%, 29.998779%)" stroke-opacity="1" stroke-miterlimit="10" d="M -0.00118554 -335.8338 L -0.00118554 -358.650594 " transform="matrix(0.998271, 0, 0, -0.998271, 86.591027, 43.410909)"/>
<path fill-rule="nonzero" fill="rgb(29.998779%, 29.998779%, 29.998779%)" fill-opacity="1" stroke-width="0.79701" stroke-linecap="butt" stroke-linejoin="miter" stroke="rgb(29.998779%, 29.998779%, 29.998779%)" stroke-opacity="1" stroke-miterlimit="10" d="M 5.442139 -0.00118554 L 1.286516 1.571847 L 2.663898 -0.00118554 L 1.286516 -1.570305 Z M 5.442139 -0.00118554 " transform="matrix(0, 0.998271, 0.998271, 0, 86.591027, 398.981333)"/>
<path fill-rule="nonzero" fill="rgb(100%, 100%, 100%)" fill-opacity="1" d="M 80.421875 395.585938 L 92.757812 395.585938 L 92.757812 388.625 L 80.421875 388.625 Z M 80.421875 395.585938 "/>
<g fill="rgb(0%, 0%, 0%)" fill-opacity="1">
<use xlink:href="#glyph-2-3" x="81.915126" y="394.090544"/>
<use xlink:href="#glyph-2-4" x="86.667157" y="394.090544"/>
</g>
<path fill="none" stroke-width="0.79701" stroke-linecap="butt" stroke-linejoin="miter" stroke="rgb(29.998779%, 29.998779%, 29.998779%)" stroke-opacity="1" stroke-miterlimit="10" d="M 73.551767 -399.635518 L 124.714444 -399.635518 " transform="matrix(0.998271, 0, 0, -0.998271, 86.591027, 43.410909)"/>
<path fill-rule="nonzero" fill="rgb(29.998779%, 29.998779%, 29.998779%)" fill-opacity="1" stroke-width="0.79701" stroke-linecap="butt" stroke-linejoin="miter" stroke="rgb(29.998779%, 29.998779%, 29.998779%)" stroke-opacity="1" stroke-miterlimit="10" d="M 5.438886 0.00188199 L 1.287177 1.571001 L 2.664558 0.00188199 L 1.287177 -1.57115 Z M 5.438886 0.00188199 " transform="matrix(0.998271, 0, 0, -0.998271, 208.629111, 442.357347)"/>
<path fill-rule="nonzero" fill="rgb(100%, 100%, 100%)" fill-opacity="1" d="M 180.3125 446.707031 L 194.898438 446.707031 L 194.898438 438.007812 L 180.3125 438.007812 Z M 180.3125 446.707031 "/>
<g fill="rgb(0%, 0%, 0%)" fill-opacity="1">
<use xlink:href="#glyph-2-0" x="181.804121" y="443.471019"/>
</g>
<g fill="rgb(0%, 0%, 0%)" fill-opacity="1">
<use xlink:href="#glyph-2-1" x="185.78548" y="443.471019"/>
<use xlink:href="#glyph-2-2" x="189.87425" y="443.471019"/>
</g>
</svg>
