<?xml version="1.0" encoding="UTF-8"?>
<svg role="img" xmlns="http://www.w3.org/2000/svg" xmlns:xlink="http://www.w3.org/1999/xlink" width="334.618pt" height="460.898pt" viewBox="0 0 334.618 460.898"><style data-diagram-theme>:root{--diagram-ink:#1A1A19;--diagram-paper:#FDFCF9;--diagram-grid:#B5B3AA}@media (prefers-color-scheme:dark){:root{--diagram-ink:#E8E5DD;--diagram-paper:#1A1816;--diagram-grid:#3A3632}}</style><style data-diagram-map>[fill="rgb(95.999146%, 95.999146%, 95.999146%)"]{fill:var(--diagram-paper, rgb(95.999146%, 95.999146%, 95.999146%))}[stroke="rgb(95.999146%, 95.999146%, 95.999146%)"]{stroke:var(--diagram-paper, rgb(95.999146%, 95.999146%, 95.999146%))}[fill="rgb(29.998779%, 29.998779%, 29.998779%)"]{fill:var(--diagram-ink, rgb(29.998779%, 29.998779%, 29.998779%))}[stroke="rgb(29.998779%, 29.998779%, 29.998779%)"]{stroke:var(--diagram-ink, rgb(29.998779%, 29.998779%, 29.998779%))}[fill="rgb(0%, 0%, 0%)"]{fill:var(--diagram-ink, rgb(0%, 0%, 0%))}[stroke="rgb(0%, 0%, 0%)"]{stroke:var(--diagram-ink, rgb(0%, 0%, 0%))}[fill="rgb(90.008545%, 92.658997%, 95.15686%)"]{fill:var(--diagram-paper, rgb(90.008545%, 92.658997%, 95.15686%))}[stroke="rgb(90.008545%, 92.658997%, 95.15686%)"]{stroke:var(--diagram-paper, rgb(90.008545%, 92.658997%, 95.15686%))}[fill="rgb(89.350891%, 92.411804%, 88.703918%)"]{fill:var(--diagram-paper, rgb(89.350891%, 92.411804%, 88.703918%))}[stroke="rgb(89.350891%, 92.411804%, 88.703918%)"]{stroke:var(--diagram-paper, rgb(89.350891%, 92.411804%, 88.703918%))}[fill="rgb(96.044922%, 93.537903%, 88.015747%)"]{fill:var(--diagram-paper, rgb(96.044922%, 93.537903%, 88.015747%))}[stroke="rgb(96.044922%, 93.537903%, 88.015747%)"]{stroke:var(--diagram-paper, rgb(96.044922%, 93.537903%, 88.015747%))}[fill="rgb(93.11676%, 89.588928%, 92.64679%)"]{fill:var(--diagram-paper, rgb(93.11676%, 89.588928%, 92.64679%))}[stroke="rgb(93.11676%, 89.588928%, 92.64679%)"]{stroke:var(--diagram-paper, rgb(93.11676%, 89.588928%, 92.64679%))}[fill="rgb(94.999695%, 94.999695%, 94.999695%)"]{fill:var(--diagram-paper, rgb(94.999695%, 94.999695%, 94.999695%))}[stroke="rgb(94.999695%, 94.999695%, 94.999695%)"]{stroke:var(--diagram-paper, rgb(94.999695%, 94.999695%, 94.999695%))}[fill="rgb(100%, 100%, 100%)"]{fill:var(--diagram-paper, rgb(100%, 100%, 100%))}[stroke="rgb(100%, 100%, 100%)"]{stroke:var(--diagram-paper, rgb(100%, 100%, 100%))}</style>
<defs>
<g>
<g id="glyph-0-0">
<path d="M 6.765625 -3.4375 C 6.765625 -5.53125 5.3125 -7.125 3.65625 -7.125 C 1.96875 -7.125 0.5625 -5.5 0.5625 -3.4375 C 0.5625 -1.328125 2.03125 0.21875 3.65625 0.21875 C 5.3125 0.21875 6.765625 -1.34375 6.765625 -3.4375 Z M 3.65625 -0.421875 C 2.484375 -0.421875 1.4375 -1.671875 1.4375 -3.578125 C 1.4375 -5.40625 2.53125 -6.484375 3.65625 -6.484375 C 4.8125 -6.484375 5.875 -5.359375 5.875 -3.578125 C 5.875 -1.640625 4.796875 -0.421875 3.65625 -0.421875 Z M 3.65625 -0.421875 "/>
</g>
<g id="glyph-0-1">
<path d="M 1.75 -3.84375 L 2.921875 -3.84375 L 2.921875 -4.421875 L 1.71875 -4.421875 L 1.71875 -5.609375 C 1.71875 -6.3125 2.234375 -6.40625 2.484375 -6.40625 C 2.640625 -6.40625 2.890625 -6.390625 3.171875 -6.234375 L 3.171875 -6.90625 C 2.96875 -6.984375 2.71875 -7.015625 2.484375 -7.015625 C 1.65625 -7.015625 1 -6.3125 1 -5.3125 L 1 -4.421875 L 0.265625 -4.421875 L 0.265625 -3.84375 L 1 -3.84375 L 1 0 L 1.75 0 Z M 7.28125 -6.90625 L 6.53125 -6.90625 L 6.53125 0 L 7.28125 0 Z M 4.515625 -3.84375 L 5.6875 -3.84375 L 5.6875 -4.421875 L 4.484375 -4.421875 L 4.484375 -5.625 C 4.484375 -6.265625 4.84375 -6.40625 5.09375 -6.40625 C 5.296875 -6.40625 5.515625 -6.34375 5.6875 -6.234375 L 5.6875 -6.90625 C 5.640625 -6.921875 5.390625 -7.015625 5.09375 -7.015625 C 4.359375 -7.015625 3.765625 -6.3125 3.765625 -5.328125 L 3.765625 0 L 4.515625 0 Z M 4.515625 -3.84375 "/>
</g>
<g id="glyph-0-2">
<path d="M 4.671875 -2.1875 C 4.671875 -3.515625 3.671875 -4.59375 2.484375 -4.59375 C 1.265625 -4.59375 0.296875 -3.5 0.296875 -2.1875 C 0.296875 -0.875 1.3125 0.109375 2.484375 0.109375 C 3.671875 0.109375 4.671875 -0.890625 4.671875 -2.1875 Z M 2.484375 -0.53125 C 1.796875 -0.53125 1.078125 -1.078125 1.078125 -2.296875 C 1.078125 -3.5 1.828125 -3.984375 2.484375 -3.984375 C 3.171875 -3.984375 3.890625 -3.46875 3.890625 -2.296875 C 3.890625 -1.109375 3.21875 -0.53125 2.484375 -0.53125 Z M 2.484375 -0.53125 "/>
</g>
<g id="glyph-0-3">
<path d="M 3.96875 -2.875 C 3.96875 -3.890625 3.25 -4.59375 2.328125 -4.59375 C 1.6875 -4.59375 1.234375 -4.421875 0.765625 -4.15625 L 0.828125 -3.5 C 1.34375 -3.875 1.84375 -4 2.328125 -4 C 2.796875 -4 3.1875 -3.609375 3.1875 -2.859375 L 3.1875 -2.4375 C 1.703125 -2.421875 0.4375 -2 0.4375 -1.125 C 0.4375 -0.703125 0.703125 0.109375 1.578125 0.109375 C 1.71875 0.109375 2.640625 0.09375 3.21875 -0.359375 L 3.21875 0 L 3.96875 0 Z M 3.1875 -1.3125 C 3.1875 -1.125 3.1875 -0.875 2.859375 -0.6875 C 2.5625 -0.5 2.1875 -0.5 2.078125 -0.5 C 1.609375 -0.5 1.15625 -0.734375 1.15625 -1.140625 C 1.15625 -1.84375 2.765625 -1.90625 3.1875 -1.9375 Z M 3.1875 -1.3125 "/>
</g>
<g id="glyph-0-4">
<path d="M 4.3125 -6.90625 L 3.578125 -6.90625 L 3.578125 -3.984375 C 3.046875 -4.421875 2.484375 -4.53125 2.125 -4.53125 C 1.140625 -4.53125 0.359375 -3.5 0.359375 -2.203125 C 0.359375 -0.90625 1.125 0.109375 2.0625 0.109375 C 2.40625 0.109375 2.984375 0.015625 3.546875 -0.515625 L 3.546875 0 L 4.3125 0 Z M 3.546875 -1.390625 C 3.546875 -1.25 3.53125 -1.0625 3.21875 -0.78125 C 2.984375 -0.578125 2.734375 -0.5 2.484375 -0.5 C 1.859375 -0.5 1.140625 -0.96875 1.140625 -2.203125 C 1.140625 -3.515625 1.984375 -3.921875 2.578125 -3.921875 C 3.03125 -3.921875 3.328125 -3.6875 3.546875 -3.375 Z M 3.546875 -1.390625 "/>
</g>
<g id="glyph-0-5">
<path d="M 3.40625 -4.265625 C 2.890625 -4.515625 2.484375 -4.59375 1.984375 -4.59375 C 1.734375 -4.59375 0.328125 -4.59375 0.328125 -3.28125 C 0.328125 -2.796875 0.609375 -2.484375 0.859375 -2.296875 C 1.171875 -2.0625 1.390625 -2.03125 1.9375 -1.921875 C 2.296875 -1.84375 2.875 -1.734375 2.875 -1.203125 C 2.875 -0.515625 2.09375 -0.515625 1.9375 -0.515625 C 1.140625 -0.515625 0.578125 -0.890625 0.390625 -1 L 0.28125 -0.328125 C 0.59375 -0.171875 1.140625 0.109375 1.953125 0.109375 C 2.125 0.109375 2.671875 0.109375 3.109375 -0.203125 C 3.40625 -0.453125 3.578125 -0.84375 3.578125 -1.28125 C 3.578125 -1.828125 3.21875 -2.15625 3.1875 -2.1875 C 2.8125 -2.53125 2.53125 -2.59375 2.046875 -2.6875 C 1.5 -2.796875 1.03125 -2.890625 1.03125 -3.390625 C 1.03125 -4 1.75 -4 1.875 -4 C 2.203125 -4 2.734375 -3.96875 3.296875 -3.625 Z M 3.40625 -4.265625 "/>
</g>
<g id="glyph-0-6">
<path d="M 1.625 -6.765625 L 0.734375 -6.765625 L 0.734375 -5.875 L 1.625 -5.875 Z M 1.546875 -4.421875 L 0.8125 -4.421875 L 0.8125 0 L 1.546875 0 Z M 1.546875 -4.421875 "/>
</g>
<g id="glyph-0-7">
<path d="M 4.125 -2.1875 C 4.125 -2.515625 4.109375 -3.265625 3.71875 -3.859375 C 3.3125 -4.484375 2.703125 -4.59375 2.34375 -4.59375 C 1.25 -4.59375 0.34375 -3.53125 0.34375 -2.25 C 0.34375 -0.9375 1.296875 0.109375 2.5 0.109375 C 3.125 0.109375 3.6875 -0.125 4.078125 -0.40625 L 4.015625 -1.0625 C 3.390625 -0.53125 2.734375 -0.5 2.515625 -0.5 C 1.71875 -0.5 1.078125 -1.203125 1.046875 -2.1875 Z M 1.09375 -2.734375 C 1.25 -3.484375 1.78125 -3.984375 2.34375 -3.984375 C 2.859375 -3.984375 3.421875 -3.640625 3.546875 -2.734375 Z M 1.09375 -2.734375 "/>
</g>
<g id="glyph-0-8">
<path d="M 1.734375 -3.84375 L 3.140625 -3.84375 L 3.140625 -4.421875 L 1.734375 -4.421875 L 1.734375 -5.6875 L 1.0625 -5.6875 L 1.0625 -4.421875 L 0.1875 -4.421875 L 0.1875 -3.84375 L 1.03125 -3.84375 L 1.03125 -1.1875 C 1.03125 -0.59375 1.171875 0.109375 1.84375 0.109375 C 2.546875 0.109375 3.0625 -0.140625 3.296875 -0.265625 L 3.140625 -0.859375 C 2.890625 -0.640625 2.5625 -0.53125 2.25 -0.53125 C 1.875 -0.53125 1.734375 -0.828125 1.734375 -1.359375 Z M 1.734375 -3.84375 "/>
</g>
<g id="glyph-0-9">
<path d="M 2.796875 -2.703125 L 4.46875 -4.421875 L 3.578125 -4.421875 L 1.546875 -2.34375 L 1.546875 -6.90625 L 0.84375 -6.90625 L 0.84375 0 L 1.515625 0 L 1.515625 -1.40625 L 2.3125 -2.234375 L 3.875 0 L 4.6875 0 Z M 2.796875 -2.703125 "/>
</g>
<g id="glyph-0-10">
<path d="M 2.53125 -2.28125 C 2.53125 -2.96875 2.875 -3.703125 3.5625 -4.28125 C 3.75 -4.4375 4.125 -4.75 4.125 -5.46875 C 4.125 -6.15625 3.734375 -7.015625 2.234375 -7.015625 C 1.625 -7.015625 1.078125 -6.84375 0.5625 -6.484375 L 0.78125 -5.859375 C 1.03125 -6.078125 1.515625 -6.40625 2.234375 -6.40625 C 2.703125 -6.40625 3.359375 -6.328125 3.359375 -5.484375 C 3.359375 -5.03125 3.140625 -4.84375 3 -4.734375 C 1.875 -3.765625 1.875 -2.484375 1.875 -2.0625 L 1.875 -1.734375 L 2.53125 -1.734375 Z M 1.796875 0 L 2.625 0 L 2.625 -0.828125 L 1.796875 -0.828125 Z M 1.796875 0 "/>
</g>
<g id="glyph-0-11">
<path d="M 6.09375 -6.90625 L 5.21875 -6.90625 L 5.21875 -3.890625 L 1.828125 -3.890625 L 1.828125 -6.90625 L 0.9375 -6.90625 L 0.9375 0 L 1.828125 0 L 1.828125 -3.28125 L 5.21875 -3.28125 L 5.21875 0 L 6.09375 0 Z M 6.09375 -6.90625 "/>
</g>
<g id="glyph-0-12">
<path d="M 4.328125 -2.96875 C 4.328125 -3.625 4.1875 -4.53125 2.96875 -4.53125 C 2.0625 -4.53125 1.578125 -3.859375 1.515625 -3.765625 L 1.515625 -4.484375 L 0.8125 -4.484375 L 0.8125 0 L 1.578125 0 L 1.578125 -2.4375 C 1.578125 -3.09375 1.828125 -3.921875 2.59375 -3.921875 C 3.546875 -3.921875 3.546875 -3.21875 3.546875 -2.890625 L 3.546875 0 L 4.328125 0 Z M 4.328125 -2.96875 "/>
</g>
<g id="glyph-0-13">
<path d="M 1.75 -3.84375 L 2.84375 -3.84375 L 2.84375 -4.421875 L 1.71875 -4.421875 L 1.71875 -5.609375 C 1.71875 -6.34375 2.390625 -6.40625 2.640625 -6.40625 C 2.84375 -6.40625 3.109375 -6.390625 3.453125 -6.234375 L 3.453125 -6.90625 C 3.328125 -6.9375 3.03125 -7.015625 2.65625 -7.015625 C 1.71875 -7.015625 1 -6.3125 1 -5.3125 L 1 -4.421875 L 0.265625 -4.421875 L 0.265625 -3.84375 L 1 -3.84375 L 1 0 L 1.75 0 Z M 4.515625 -3.84375 L 5.609375 -3.84375 L 5.609375 -4.421875 L 4.484375 -4.421875 L 4.484375 -5.609375 C 4.484375 -6.34375 5.140625 -6.40625 5.40625 -6.40625 C 5.609375 -6.40625 5.875 -6.390625 6.203125 -6.234375 L 6.203125 -6.90625 C 6.09375 -6.9375 5.78125 -7.015625 5.421875 -7.015625 C 4.484375 -7.015625 3.765625 -6.3125 3.765625 -5.3125 L 3.765625 0 L 4.515625 0 Z M 4.515625 -3.84375 "/>
</g>
<g id="glyph-0-14">
<path d="M 1.796875 -0.015625 L 1.796875 -0.828125 L 0.96875 -0.828125 L 0.96875 0 L 1.21875 0 L 0.96875 1.25 L 1.375 1.25 Z M 1.796875 -0.015625 "/>
</g>
<g id="glyph-0-15">
<path d="M 4.078125 -4.15625 C 3.5 -4.5 3.15625 -4.59375 2.546875 -4.59375 C 1.171875 -4.59375 0.359375 -3.390625 0.359375 -2.203125 C 0.359375 -0.96875 1.265625 0.109375 2.515625 0.109375 C 3.046875 0.109375 3.59375 -0.03125 4.125 -0.390625 L 4.078125 -1.0625 C 3.5625 -0.671875 3.03125 -0.53125 2.515625 -0.53125 C 1.6875 -0.53125 1.140625 -1.25 1.140625 -2.21875 C 1.140625 -3 1.5 -3.953125 2.5625 -3.953125 C 3.078125 -3.953125 3.40625 -3.875 3.96875 -3.515625 Z M 4.078125 -4.15625 "/>
</g>
<g id="glyph-0-16">
<path d="M 4.328125 -2.96875 C 4.328125 -3.625 4.1875 -4.53125 2.96875 -4.53125 C 2.34375 -4.53125 1.875 -4.21875 1.546875 -3.8125 L 1.546875 -6.90625 L 0.8125 -6.90625 L 0.8125 0 L 1.578125 0 L 1.578125 -2.4375 C 1.578125 -3.09375 1.828125 -3.921875 2.59375 -3.921875 C 3.546875 -3.921875 3.546875 -3.21875 3.546875 -2.890625 L 3.546875 0 L 4.328125 0 Z M 4.328125 -2.96875 "/>
</g>
<g id="glyph-0-17">
<path d="M 1.546875 -6.90625 L 0.8125 -6.90625 L 0.8125 0 L 1.546875 0 Z M 1.546875 -6.90625 "/>
</g>
<g id="glyph-0-18">
<path d="M 1.5625 -2.125 C 1.5625 -3.125 2.28125 -3.84375 3.25 -3.859375 L 3.25 -4.53125 C 2.375 -4.515625 1.828125 -4.03125 1.515625 -3.578125 L 1.515625 -4.484375 L 0.8125 -4.484375 L 0.8125 0 L 1.5625 0 Z M 1.5625 -2.125 "/>
</g>
<g id="glyph-0-19">
<path d="M 5.796875 -1.140625 C 5.203125 -0.75 4.859375 -0.53125 3.875 -0.53125 C 2.453125 -0.53125 1.546875 -2.03125 1.546875 -3.46875 C 1.546875 -4.8125 2.375 -6.375 3.90625 -6.375 C 4.609375 -6.375 5.0625 -6.203125 5.609375 -5.859375 L 5.75 -6.671875 C 5.3125 -6.890625 4.546875 -7.015625 3.90625 -7.015625 C 2.0625 -7.015625 0.65625 -5.46875 0.65625 -3.375 C 0.65625 -1.796875 1.84375 0.109375 3.90625 0.109375 C 4.828125 0.109375 5.203125 -0.046875 5.859375 -0.453125 Z M 5.796875 -1.140625 "/>
</g>
<g id="glyph-0-20">
<path d="M 3.5 -3.890625 C 3.71875 -3.890625 4 -3.9375 4.234375 -3.9375 C 4.421875 -3.9375 4.8125 -3.90625 4.828125 -3.90625 L 4.71875 -4.53125 C 4.015625 -4.53125 3.4375 -4.34375 3.140625 -4.203125 C 2.9375 -4.375 2.59375 -4.53125 2.203125 -4.53125 C 1.34375 -4.53125 0.609375 -3.8125 0.609375 -2.90625 C 0.609375 -2.53125 0.75 -2.1875 0.953125 -1.921875 C 0.65625 -1.515625 0.65625 -1.125 0.65625 -1.078125 C 0.65625 -0.8125 0.75 -0.53125 0.921875 -0.3125 C 0.390625 -0.015625 0.28125 0.453125 0.28125 0.703125 C 0.28125 1.453125 1.265625 2.046875 2.484375 2.046875 C 3.703125 2.046875 4.6875 1.46875 4.6875 0.703125 C 4.6875 -0.6875 3.03125 -0.6875 2.640625 -0.6875 L 1.765625 -0.6875 C 1.625 -0.6875 1.1875 -0.6875 1.1875 -1.21875 C 1.1875 -1.328125 1.21875 -1.484375 1.296875 -1.578125 C 1.5 -1.421875 1.828125 -1.28125 2.203125 -1.28125 C 3.09375 -1.28125 3.796875 -2.015625 3.796875 -2.90625 C 3.796875 -3.390625 3.578125 -3.75 3.46875 -3.90625 Z M 2.203125 -1.84375 C 1.828125 -1.84375 1.3125 -2.078125 1.3125 -2.90625 C 1.3125 -3.734375 1.828125 -3.96875 2.203125 -3.96875 C 2.625 -3.96875 3.09375 -3.6875 3.09375 -2.90625 C 3.09375 -2.125 2.625 -1.84375 2.203125 -1.84375 Z M 2.640625 0.03125 C 2.859375 0.03125 3.984375 0.03125 3.984375 0.71875 C 3.984375 1.15625 3.296875 1.484375 2.484375 1.484375 C 1.6875 1.484375 0.96875 1.171875 0.96875 0.703125 C 0.96875 0.671875 0.96875 0.03125 1.75 0.03125 Z M 2.640625 0.03125 "/>
</g>
<g id="glyph-0-21">
<path d="M 4.328125 -4.421875 L 3.546875 -4.421875 L 3.546875 -1.53125 C 3.546875 -0.78125 3 -0.4375 2.359375 -0.4375 C 1.65625 -0.4375 1.578125 -0.703125 1.578125 -1.125 L 1.578125 -4.421875 L 0.8125 -4.421875 L 0.8125 -1.078125 C 0.8125 -0.375 1.03125 0.109375 1.859375 0.109375 C 2.390625 0.109375 3.09375 -0.046875 3.578125 -0.484375 L 3.578125 0 L 4.328125 0 Z M 4.328125 -4.421875 "/>
</g>
<g id="glyph-0-22">
<path d="M 1.59375 -0.453125 C 1.90625 -0.171875 2.34375 0.109375 2.9375 0.109375 C 3.90625 0.109375 4.78125 -0.859375 4.78125 -2.21875 C 4.78125 -3.40625 4.15625 -4.53125 3.1875 -4.53125 C 2.59375 -4.53125 2.015625 -4.3125 1.5625 -3.9375 L 1.5625 -4.421875 L 0.8125 -4.421875 L 0.8125 1.9375 L 1.59375 1.9375 Z M 1.59375 -3.3125 C 1.828125 -3.65625 2.21875 -3.890625 2.640625 -3.890625 C 3.40625 -3.890625 4 -3.140625 4 -2.21875 C 4 -1.1875 3.296875 -0.5 2.546875 -0.5 C 2.15625 -0.5 1.890625 -0.703125 1.6875 -0.96875 C 1.59375 -1.109375 1.59375 -1.140625 1.59375 -1.3125 Z M 1.59375 -3.3125 "/>
</g>
<g id="glyph-0-23">
<path d="M 1.75 -3.84375 L 2.84375 -3.84375 L 2.84375 -4.421875 L 1.71875 -4.421875 L 1.71875 -5.609375 C 1.71875 -6.34375 2.390625 -6.40625 2.640625 -6.40625 C 2.84375 -6.40625 3.109375 -6.390625 3.453125 -6.234375 L 3.453125 -6.90625 C 3.328125 -6.9375 3.03125 -7.015625 2.65625 -7.015625 C 1.71875 -7.015625 1 -6.3125 1 -5.3125 L 1 -4.421875 L 0.265625 -4.421875 L 0.265625 -3.84375 L 1 -3.84375 L 1 0 L 1.75 0 Z M 1.75 -3.84375 "/>
</g>
<g id="glyph-0-24">
<path d="M 4.4375 -4.421875 L 3.6875 -4.421875 C 2.40625 -1.25 2.375 -0.796875 2.375 -0.5625 L 2.359375 -0.5625 C 2.296875 -1.234375 1.5 -3.078125 1.46875 -3.171875 L 0.921875 -4.421875 L 0.140625 -4.421875 L 2.0625 0 C 1.953125 0.3125 1.75 0.8125 1.71875 0.890625 C 1.453125 1.46875 1.28125 1.46875 1.140625 1.46875 C 0.984375 1.46875 0.671875 1.4375 0.375 1.3125 L 0.421875 1.953125 C 0.640625 2.015625 0.921875 2.046875 1.140625 2.046875 C 1.5 2.046875 1.859375 1.921875 2.265625 0.90625 Z M 4.4375 -4.421875 "/>
</g>
<g id="glyph-1-0">
<path d="M 2.6875 -4.390625 C 2.46875 -4.4375 1.84375 -4.671875 1.84375 -5.234375 C 1.84375 -6.078125 2.703125 -6.09375 3.03125 -6.09375 C 3.59375 -6.09375 4.09375 -5.96875 4.578125 -5.5 C 4.734375 -5.34375 4.75 -5.328125 4.78125 -5.328125 C 4.84375 -5.328125 4.890625 -5.359375 4.921875 -5.515625 L 5.078125 -6.375 C 5.09375 -6.453125 5.09375 -6.484375 5.09375 -6.515625 C 5.09375 -6.59375 5.09375 -6.59375 4.84375 -6.734375 C 4.125 -7.078125 3.546875 -7.125 3.03125 -7.125 C 2.15625 -7.125 0.609375 -6.921875 0.609375 -5.0625 C 0.609375 -4.34375 0.96875 -3.890625 1.171875 -3.6875 C 1.671875 -3.171875 2.140625 -3.078125 2.921875 -2.890625 C 3.46875 -2.765625 3.6875 -2.71875 3.90625 -2.515625 C 4.015625 -2.421875 4.21875 -2.203125 4.21875 -1.828125 C 4.21875 -0.890625 3.359375 -0.859375 3.03125 -0.859375 C 2.203125 -0.859375 1.46875 -1.203125 0.96875 -1.65625 C 0.859375 -1.765625 0.84375 -1.765625 0.796875 -1.765625 C 0.734375 -1.765625 0.6875 -1.734375 0.65625 -1.59375 L 0.5 -0.734375 C 0.484375 -0.640625 0.484375 -0.625 0.484375 -0.59375 C 0.484375 -0.390625 1.515625 -0.03125 1.578125 -0.015625 C 2.234375 0.203125 2.78125 0.21875 3.03125 0.21875 C 4.53125 0.21875 5.46875 -0.453125 5.46875 -1.984375 C 5.46875 -3.109375 4.640625 -3.9375 3.640625 -4.171875 Z M 2.6875 -4.390625 "/>
</g>
<g id="glyph-1-1">
<path d="M 4.96875 -4.078125 C 4.96875 -4.40625 4.90625 -4.5625 4.5 -4.5625 L 4.09375 -4.5625 C 3.71875 -4.5625 3.625 -4.421875 3.625 -4.078125 L 3.625 -1.71875 C 3.625 -1.0625 3.28125 -0.5 2.5625 -0.5 C 2.015625 -0.5 1.953125 -0.640625 1.953125 -1.171875 L 1.953125 -4.078125 C 1.953125 -4.40625 1.875 -4.5625 1.46875 -4.5625 L 1.078125 -4.5625 C 0.71875 -4.5625 0.59375 -4.453125 0.59375 -4.078125 L 0.59375 -1.25 C 0.59375 -0.1875 1.171875 0.109375 2.203125 0.109375 C 2.484375 0.109375 3.1875 0.109375 3.65625 -0.734375 L 3.65625 -0.484375 C 3.65625 -0.15625 3.71875 0 4.125 0 L 4.5 0 C 4.875 0 4.96875 -0.125 4.96875 -0.484375 Z M 4.96875 -4.078125 "/>
</g>
<g id="glyph-1-2">
<path d="M 1.9375 -6.421875 C 1.9375 -6.75 1.859375 -6.90625 1.453125 -6.90625 L 1.078125 -6.90625 C 0.734375 -6.90625 0.609375 -6.796875 0.609375 -6.421875 L 0.609375 -0.484375 C 0.609375 -0.125 0.71875 0 1.078125 0 L 1.484375 0 C 1.65625 0 1.953125 0 1.953125 -0.390625 C 2.421875 0.109375 2.921875 0.109375 3.078125 0.109375 C 5.203125 0.109375 5.203125 -1.796875 5.203125 -2.296875 C 5.203125 -2.78125 5.203125 -4.671875 3.328125 -4.671875 C 2.515625 -4.671875 2.015625 -4.203125 1.9375 -4.109375 Z M 1.953125 -3.609375 C 2.09375 -3.71875 2.390625 -3.953125 2.84375 -3.953125 C 3.859375 -3.953125 3.859375 -3.03125 3.859375 -2.296875 C 3.859375 -1.546875 3.859375 -0.609375 2.734375 -0.609375 C 2.3125 -0.609375 2.0625 -0.859375 1.953125 -1 Z M 1.953125 -3.609375 "/>
</g>
<g id="glyph-1-3">
<path d="M 4.625 -3.140625 C 4.625 -4.71875 3.109375 -4.734375 2.609375 -4.734375 C 2.140625 -4.734375 1.640625 -4.6875 0.96875 -4.40625 C 0.765625 -4.3125 0.71875 -4.296875 0.71875 -4.1875 C 0.71875 -4.109375 0.78125 -3.53125 0.78125 -3.453125 C 0.796875 -3.390625 0.84375 -3.34375 0.921875 -3.34375 C 0.96875 -3.34375 1 -3.375 1.03125 -3.40625 C 1.453125 -3.859375 1.953125 -4.078125 2.5625 -4.078125 C 3.109375 -4.078125 3.265625 -3.75 3.265625 -3.15625 L 3.265625 -2.8125 C 2.921875 -2.8125 0.3125 -2.78125 0.3125 -1.328125 C 0.3125 -0.625 0.859375 0.109375 1.734375 0.109375 C 2.078125 0.109375 2.828125 0.015625 3.296875 -0.671875 L 3.296875 -0.484375 C 3.296875 -0.15625 3.359375 0 3.765625 0 L 4.140625 0 C 4.515625 0 4.625 -0.125 4.625 -0.484375 Z M 3.265625 -1.53125 C 3.265625 -0.609375 2.3125 -0.609375 2.296875 -0.609375 C 1.875 -0.609375 1.609375 -0.96875 1.609375 -1.34375 C 1.609375 -2.3125 2.984375 -2.390625 3.265625 -2.40625 Z M 3.265625 -1.53125 "/>
</g>
<g id="glyph-1-4">
<path d="M 1.984375 -0.921875 C 1.625 -0.921875 1.5 -0.921875 1.359375 -1.03125 C 1.3125 -1.078125 1.140625 -1.21875 1.140625 -1.484375 C 1.140625 -1.546875 1.15625 -1.578125 1.171875 -1.625 C 1.625 -1.375 2.21875 -1.375 2.421875 -1.375 C 2.84375 -1.375 4.421875 -1.375 4.421875 -3.015625 C 4.421875 -3.59375 4.203125 -3.9375 4.125 -4.046875 C 4.296875 -4.046875 4.640625 -4.046875 5.046875 -3.9375 C 5.09375 -3.921875 5.15625 -3.90625 5.1875 -3.90625 C 5.265625 -3.90625 5.3125 -3.96875 5.3125 -4.03125 C 5.3125 -4.078125 5.265625 -4.3125 5.25 -4.40625 C 5.203125 -4.640625 5.203125 -4.671875 5.03125 -4.671875 C 4.71875 -4.671875 4.21875 -4.546875 3.84375 -4.3125 C 3.375 -4.625 2.859375 -4.671875 2.421875 -4.671875 C 2.015625 -4.671875 0.421875 -4.671875 0.421875 -3.03125 C 0.421875 -2.625 0.53125 -2.125 0.921875 -1.796875 C 0.640625 -1.4375 0.640625 -1.046875 0.640625 -1 C 0.640625 -0.8125 0.703125 -0.484375 0.921875 -0.203125 C 0.765625 -0.15625 0.25 0.03125 0.25 0.671875 C 0.25 0.96875 0.390625 1.5 1.03125 1.78125 C 1.59375 2.046875 2.265625 2.046875 2.734375 2.046875 C 3.3125 2.046875 5.21875 2.046875 5.21875 0.640625 C 5.21875 -0.921875 3.8125 -0.921875 2.46875 -0.921875 Z M 2.421875 -2.09375 C 1.734375 -2.09375 1.703125 -2.46875 1.703125 -3.015625 C 1.703125 -3.5625 1.734375 -3.953125 2.421875 -3.953125 C 3.125 -3.953125 3.15625 -3.578125 3.15625 -3.03125 C 3.15625 -2.484375 3.125 -2.09375 2.421875 -2.09375 Z M 2.96875 0.171875 C 3.765625 0.171875 4.1875 0.3125 4.1875 0.671875 C 4.1875 1.328125 3.0625 1.328125 2.734375 1.328125 C 2.34375 1.328125 1.28125 1.328125 1.28125 0.640625 C 1.28125 0.171875 1.578125 0.171875 1.8125 0.171875 Z M 2.96875 0.171875 "/>
</g>
<g id="glyph-1-5">
<path d="M 4.296875 -2.125 C 4.515625 -2.125 4.765625 -2.140625 4.765625 -2.59375 C 4.765625 -3.875 4.171875 -4.734375 2.6875 -4.734375 C 1.09375 -4.734375 0.3125 -3.828125 0.3125 -2.3125 C 0.3125 -0.6875 1.25 0.109375 2.8125 0.109375 C 3.1875 0.109375 3.765625 0.0625 4.421875 -0.265625 C 4.640625 -0.375 4.703125 -0.40625 4.703125 -0.53125 C 4.703125 -0.59375 4.671875 -0.890625 4.671875 -0.96875 C 4.625 -1.28125 4.625 -1.28125 4.53125 -1.28125 C 4.484375 -1.28125 4.46875 -1.28125 4.359375 -1.1875 C 3.765625 -0.671875 3.171875 -0.609375 2.859375 -0.609375 C 1.734375 -0.609375 1.609375 -1.5 1.578125 -2.125 Z M 1.59375 -2.65625 C 1.625 -3.265625 1.828125 -4.015625 2.6875 -4.015625 C 3.484375 -4.015625 3.640625 -3.4375 3.65625 -2.65625 Z M 1.59375 -2.65625 "/>
</g>
<g id="glyph-1-6">
<path d="M 4.96875 -3.234375 C 4.96875 -4.265625 4.53125 -4.671875 3.515625 -4.671875 C 2.484375 -4.671875 2.03125 -3.90625 1.90625 -3.640625 L 1.890625 -3.640625 L 1.890625 -4.140625 C 1.890625 -4.453125 1.828125 -4.625 1.40625 -4.625 L 1.078125 -4.625 C 0.71875 -4.625 0.59375 -4.515625 0.59375 -4.140625 L 0.59375 -0.484375 C 0.59375 -0.125 0.703125 0 1.078125 0 L 1.46875 0 C 1.84375 0 1.953125 -0.125 1.953125 -0.484375 L 1.953125 -2.671875 C 1.953125 -3.546875 2.53125 -3.953125 3.046875 -3.953125 C 3.515625 -3.953125 3.625 -3.71875 3.625 -3.21875 L 3.625 -0.484375 C 3.625 -0.15625 3.6875 0 4.09375 0 L 4.5 0 C 4.875 0 4.96875 -0.125 4.96875 -0.484375 Z M 4.96875 -3.234375 "/>
</g>
<g id="glyph-1-7">
<path d="M 2.171875 -3.84375 L 3.0625 -3.84375 C 3.171875 -3.84375 3.53125 -3.84375 3.53125 -4.203125 C 3.53125 -4.5625 3.171875 -4.5625 3.0625 -4.5625 L 2.171875 -4.5625 L 2.171875 -5.390625 C 2.171875 -5.703125 2.09375 -5.859375 1.6875 -5.859375 L 1.390625 -5.859375 C 1.03125 -5.859375 0.90625 -5.75 0.90625 -5.390625 L 0.90625 -4.5625 L 0.671875 -4.5625 C 0.5625 -4.5625 0.203125 -4.5625 0.203125 -4.203125 C 0.203125 -3.84375 0.5625 -3.84375 0.671875 -3.84375 L 0.875 -3.84375 L 0.875 -1.328125 C 0.875 -0.3125 1.234375 0.109375 1.921875 0.109375 C 2.015625 0.109375 2.453125 0.109375 2.96875 -0.046875 C 3.140625 -0.09375 3.71875 -0.28125 3.71875 -0.46875 C 3.71875 -0.5 3.6875 -0.5625 3.640625 -0.78125 C 3.578125 -0.96875 3.5625 -1.03125 3.46875 -1.03125 C 3.421875 -1.03125 3.40625 -1.03125 3.359375 -0.96875 C 3.25 -0.890625 2.96875 -0.671875 2.5625 -0.671875 C 2.3125 -0.671875 2.171875 -0.84375 2.171875 -1.5 Z M 2.171875 -3.84375 "/>
</g>
<g id="glyph-1-8">
<path d="M 3.9375 -1.40625 C 3.9375 -1.953125 3.640625 -2.3125 3.46875 -2.46875 C 3.0625 -2.828125 2.71875 -2.890625 2.296875 -2.96875 C 1.75 -3.0625 1.359375 -3.140625 1.359375 -3.53125 C 1.359375 -3.9375 1.6875 -4.015625 2.0625 -4.015625 C 2.734375 -4.015625 3.09375 -3.765625 3.359375 -3.546875 C 3.453125 -3.453125 3.46875 -3.453125 3.515625 -3.453125 C 3.609375 -3.453125 3.640625 -3.546875 3.640625 -3.578125 C 3.65625 -3.65625 3.765625 -4.21875 3.765625 -4.265625 C 3.765625 -4.421875 3.234375 -4.5625 3.125 -4.609375 C 2.734375 -4.71875 2.40625 -4.734375 2.15625 -4.734375 C 1.703125 -4.734375 0.375 -4.734375 0.375 -3.296875 C 0.375 -2.8125 0.59375 -2.515625 0.859375 -2.28125 C 1.203125 -1.953125 1.59375 -1.890625 2.15625 -1.78125 C 2.453125 -1.734375 2.953125 -1.640625 2.953125 -1.203125 C 2.953125 -0.734375 2.5625 -0.671875 2.1875 -0.671875 C 1.734375 -0.671875 1.1875 -0.796875 0.71875 -1.359375 C 0.671875 -1.40625 0.640625 -1.4375 0.578125 -1.4375 C 0.484375 -1.4375 0.453125 -1.34375 0.453125 -1.28125 C 0.421875 -1.140625 0.3125 -0.578125 0.3125 -0.484375 C 0.3125 -0.296875 1.046875 -0.0625 1.0625 -0.0625 C 1.609375 0.109375 2.015625 0.109375 2.1875 0.109375 C 2.6875 0.109375 3.9375 0.0625 3.9375 -1.40625 Z M 3.9375 -1.40625 "/>
</g>
<g id="glyph-1-9">
<path d="M 4.71875 -6.484375 C 4.5625 -6.90625 4.28125 -6.90625 4.078125 -6.90625 L 3.203125 -6.90625 C 3 -6.90625 2.71875 -6.90625 2.5625 -6.484375 L 0.46875 -0.46875 C 0.421875 -0.34375 0.421875 -0.3125 0.421875 -0.265625 C 0.421875 0 0.671875 0 0.8125 0 L 1.171875 0 C 1.34375 0 1.65625 0 1.796875 -0.390625 L 2.1875 -1.5 L 4.9375 -1.5 L 5.28125 -0.546875 C 5.390625 -0.203125 5.46875 0 5.9375 0 L 6.484375 0 C 6.625 0 6.875 0 6.875 -0.265625 C 6.875 -0.3125 6.875 -0.34375 6.8125 -0.46875 Z M 3.1875 -4.46875 C 3.34375 -4.90625 3.46875 -5.28125 3.546875 -5.640625 L 3.5625 -5.640625 C 3.609375 -5.40625 3.609375 -5.390625 3.6875 -5.15625 L 4.640625 -2.359375 L 2.484375 -2.359375 Z M 3.1875 -4.46875 "/>
</g>
<g id="glyph-1-10">
<path d="M 4.65625 -4.09375 C 4.703125 -4.234375 4.703125 -4.25 4.703125 -4.28125 C 4.703125 -4.5625 4.453125 -4.5625 4.3125 -4.5625 L 4.09375 -4.5625 C 3.6875 -4.5625 3.578125 -4.40625 3.484375 -4.125 L 2.5 -1.125 L 1.515625 -4.125 C 1.4375 -4.34375 1.375 -4.5625 0.890625 -4.5625 L 0.65625 -4.5625 C 0.5 -4.5625 0.265625 -4.5625 0.265625 -4.28125 C 0.265625 -4.25 0.265625 -4.234375 0.3125 -4.09375 L 1.5 -0.421875 C 1.625 0 1.9375 0 2.125 0 L 2.84375 0 C 3.03125 0 3.328125 0 3.46875 -0.421875 Z M 4.65625 -4.09375 "/>
</g>
<g id="glyph-1-11">
<path d="M 1.015625 -6.921875 C 0.703125 -6.921875 0.53125 -6.859375 0.53125 -6.453125 L 0.53125 -6 C 0.53125 -5.6875 0.640625 -5.546875 1 -5.546875 L 1.515625 -5.546875 C 2 -5.546875 2 -5.765625 2 -6.234375 C 2 -6.703125 2 -6.921875 1.515625 -6.921875 Z M 1.9375 -4.078125 C 1.9375 -4.40625 1.859375 -4.5625 1.453125 -4.5625 L 1.078125 -4.5625 C 0.734375 -4.5625 0.609375 -4.453125 0.609375 -4.078125 L 0.609375 -0.484375 C 0.609375 -0.125 0.71875 0 1.078125 0 L 1.453125 0 C 1.828125 0 1.9375 -0.125 1.9375 -0.484375 Z M 1.9375 -4.078125 "/>
</g>
<g id="glyph-1-12">
<path d="M 7.15625 -4.28125 C 7.125 -4.5625 6.953125 -4.5625 6.640625 -4.5625 C 6.171875 -4.5625 6.046875 -4.53125 5.90625 -4.015625 C 5.6875 -3.25 5.25 -1.6875 5.109375 -1.125 L 4.265625 -4.109375 C 4.203125 -4.328125 4.125 -4.5625 3.671875 -4.5625 C 3.515625 -4.5625 3.296875 -4.5625 3.15625 -4.328125 C 3.0625 -4.1875 2.625 -2.453125 2.28125 -1.296875 L 1.484375 -4.109375 C 1.390625 -4.453125 1.28125 -4.5625 0.859375 -4.5625 L 0.671875 -4.5625 C 0.484375 -4.5625 0.265625 -4.5625 0.234375 -4.28125 L 1.296875 -0.453125 C 1.421875 0 1.6875 0 1.9375 0 L 2.203125 0 C 2.671875 0 2.75 -0.15625 2.859375 -0.546875 C 3.09375 -1.375 3.453125 -2.625 3.5 -3.140625 L 3.5 -3.15625 C 3.5625 -2.59375 4 -1.015625 4.125 -0.546875 C 4.234375 -0.1875 4.296875 0 4.78125 0 L 5.46875 0 C 5.890625 0 5.984375 -0.125 6.09375 -0.453125 Z M 7.15625 -4.28125 "/>
</g>
<g id="glyph-1-13">
<path d="M 8.015625 -3.234375 C 8.015625 -4.265625 7.578125 -4.671875 6.5625 -4.671875 C 5.859375 -4.671875 5.3125 -4.34375 4.953125 -3.6875 C 4.796875 -4.640625 3.953125 -4.671875 3.53125 -4.671875 C 3.34375 -4.671875 2.921875 -4.671875 2.484375 -4.34375 C 2.171875 -4.109375 1.96875 -3.796875 1.90625 -3.640625 L 1.890625 -3.640625 L 1.890625 -4.140625 C 1.890625 -4.453125 1.828125 -4.625 1.40625 -4.625 L 1.078125 -4.625 C 0.71875 -4.625 0.59375 -4.515625 0.59375 -4.140625 L 0.59375 -0.484375 C 0.59375 -0.125 0.703125 0 1.078125 0 L 1.46875 0 C 1.84375 0 1.953125 -0.125 1.953125 -0.484375 L 1.953125 -2.671875 C 1.953125 -3.578125 2.5625 -3.953125 3.046875 -3.953125 C 3.515625 -3.953125 3.640625 -3.75 3.640625 -3.21875 L 3.640625 -0.484375 C 3.640625 -0.125 3.75 0 4.109375 0 L 4.515625 0 C 4.890625 0 4.984375 -0.125 4.984375 -0.484375 L 4.984375 -2.671875 C 4.984375 -3.578125 5.59375 -3.953125 6.078125 -3.953125 C 6.5625 -3.953125 6.671875 -3.75 6.671875 -3.21875 L 6.671875 -0.484375 C 6.671875 -0.125 6.78125 0 7.140625 0 L 7.546875 0 C 7.921875 0 8.015625 -0.125 8.015625 -0.484375 Z M 8.015625 -3.234375 "/>
</g>
<g id="glyph-1-14">
<path d="M 1.390625 -6.90625 C 1.03125 -6.90625 0.90625 -6.796875 0.90625 -6.421875 L 0.90625 -0.484375 C 0.90625 -0.125 1.015625 0 1.390625 0 L 4.015625 0 C 6.4375 0 7.28125 -1.453125 7.28125 -3.40625 C 7.28125 -4.1875 7.15625 -5.15625 6.59375 -5.859375 C 5.859375 -6.78125 4.65625 -6.90625 4.015625 -6.90625 Z M 2.34375 -0.859375 L 2.34375 -6.046875 L 3.609375 -6.046875 C 5.765625 -6.046875 5.859375 -4.515625 5.859375 -3.40625 C 5.859375 -2.28125 5.75 -0.859375 3.625 -0.859375 Z M 2.34375 -0.859375 "/>
</g>
<g id="glyph-1-15">
<path d="M 4.65625 -4.09375 C 4.703125 -4.21875 4.703125 -4.234375 4.703125 -4.296875 C 4.703125 -4.5625 4.4375 -4.5625 4.3125 -4.5625 L 4.09375 -4.5625 C 3.9375 -4.5625 3.71875 -4.5625 3.5625 -4.328125 C 3.53125 -4.28125 2.734375 -2.078125 2.671875 -1.40625 C 2.625 -1.90625 2.203125 -2.828125 1.78125 -3.78125 C 1.5 -4.40625 1.4375 -4.5625 0.9375 -4.5625 L 0.671875 -4.5625 C 0.53125 -4.5625 0.28125 -4.5625 0.28125 -4.296875 C 0.28125 -4.265625 0.3125 -4.1875 0.34375 -4.140625 L 2.21875 0 C 2.140625 0.203125 2.109375 0.3125 2.078125 0.421875 C 1.953125 0.75 1.796875 1.1875 1.25 1.1875 C 0.921875 1.1875 0.703125 1.0625 0.59375 0.984375 C 0.53125 0.953125 0.515625 0.953125 0.484375 0.953125 C 0.4375 0.953125 0.359375 0.96875 0.359375 1.09375 C 0.359375 1.171875 0.421875 1.859375 0.453125 1.90625 C 0.53125 2.015625 1.078125 2.046875 1.234375 2.046875 C 2.46875 2.046875 2.953125 0.859375 3.03125 0.625 Z M 4.65625 -4.09375 "/>
</g>
<g id="glyph-1-16">
<path d="M 4.546875 -0.5 C 4.546875 -0.609375 4.515625 -1.0625 4.484375 -1.1875 C 4.484375 -1.21875 4.46875 -1.328125 4.375 -1.328125 C 4.328125 -1.328125 4.3125 -1.328125 4.203125 -1.21875 C 4.046875 -1.078125 3.578125 -0.671875 2.75 -0.671875 C 1.71875 -0.671875 1.71875 -1.671875 1.71875 -2.3125 C 1.71875 -3.109375 1.765625 -3.953125 2.78125 -3.953125 C 3.4375 -3.953125 3.703125 -3.796875 4.0625 -3.5 C 4.1875 -3.390625 4.203125 -3.390625 4.234375 -3.390625 C 4.34375 -3.390625 4.359375 -3.46875 4.375 -3.515625 C 4.390625 -3.59375 4.484375 -4.15625 4.484375 -4.203125 C 4.484375 -4.296875 4.421875 -4.328125 4.25 -4.40625 C 3.765625 -4.625 3.46875 -4.734375 2.78125 -4.734375 C 1.296875 -4.734375 0.375 -4.03125 0.375 -2.296875 C 0.375 -0.640625 1.21875 0.109375 2.734375 0.109375 C 3 0.109375 3.59375 0.09375 4.265625 -0.234375 C 4.53125 -0.390625 4.546875 -0.390625 4.546875 -0.5 Z M 4.546875 -0.5 "/>
</g>
<g id="glyph-1-17">
<path d="M 5.15625 -2.234375 C 5.15625 -3.875 4.359375 -4.734375 2.734375 -4.734375 C 1.078125 -4.734375 0.3125 -3.84375 0.3125 -2.234375 C 0.3125 -0.609375 1.171875 0.109375 2.734375 0.109375 C 4.296875 0.109375 5.15625 -0.609375 5.15625 -2.234375 Z M 2.734375 -0.671875 C 1.65625 -0.671875 1.65625 -1.5625 1.65625 -2.359375 C 1.65625 -3.125 1.65625 -4.015625 2.734375 -4.015625 C 3.796875 -4.015625 3.796875 -3.140625 3.796875 -2.359375 C 3.796875 -1.578125 3.796875 -0.671875 2.734375 -0.671875 Z M 2.734375 -0.671875 "/>
</g>
<g id="glyph-1-18">
<path d="M 1.9375 -2.296875 C 1.9375 -3.234375 2.71875 -3.625 3.34375 -3.65625 C 3.515625 -3.671875 3.546875 -3.671875 3.546875 -3.9375 L 3.546875 -4.40625 C 3.546875 -4.59375 3.546875 -4.671875 3.359375 -4.671875 C 3.078125 -4.671875 2.359375 -4.5625 1.890625 -3.5 L 1.875 -3.5 L 1.875 -4.140625 C 1.875 -4.453125 1.8125 -4.625 1.40625 -4.625 L 1.078125 -4.625 C 0.734375 -4.625 0.609375 -4.515625 0.609375 -4.140625 L 0.609375 -0.484375 C 0.609375 -0.125 0.71875 0 1.078125 0 L 1.453125 0 C 1.828125 0 1.9375 -0.125 1.9375 -0.484375 Z M 1.9375 -2.296875 "/>
</g>
<g id="glyph-1-19">
<path d="M 3.109375 -2.703125 L 4.640625 -4.125 C 4.765625 -4.234375 4.796875 -4.265625 4.796875 -4.34375 C 4.796875 -4.5625 4.59375 -4.5625 4.453125 -4.5625 L 3.875 -4.5625 C 3.703125 -4.5625 3.515625 -4.5625 3.28125 -4.34375 L 1.84375 -3.015625 L 1.84375 -6.421875 C 1.84375 -6.75 1.78125 -6.90625 1.375 -6.90625 L 1.171875 -6.90625 C 0.8125 -6.90625 0.6875 -6.796875 0.6875 -6.421875 L 0.6875 -0.484375 C 0.6875 -0.125 0.796875 0 1.171875 0 L 1.34375 0 C 1.71875 0 1.828125 -0.125 1.828125 -0.484375 L 1.828125 -1.515625 L 2.296875 -1.9375 L 3.578125 -0.25 C 3.75 -0.03125 3.828125 0 4.109375 0 L 4.59375 0 C 4.734375 0 4.953125 0 4.953125 -0.21875 C 4.953125 -0.234375 4.953125 -0.3125 4.84375 -0.4375 Z M 3.109375 -2.703125 "/>
</g>
<g id="glyph-1-20">
<path d="M 2.1875 -3.84375 L 2.75 -3.84375 C 2.859375 -3.84375 3.21875 -3.84375 3.21875 -4.203125 C 3.21875 -4.5625 2.859375 -4.5625 2.75 -4.5625 L 2.15625 -4.5625 L 2.15625 -5.6875 C 2.15625 -5.96875 2.171875 -6.296875 2.484375 -6.296875 C 2.796875 -6.296875 2.921875 -6.09375 2.96875 -6.03125 C 3 -5.96875 3.03125 -5.921875 3.09375 -5.921875 C 3.21875 -5.921875 3.21875 -6.015625 3.21875 -6.1875 L 3.21875 -6.640625 C 3.21875 -6.875 3.21875 -6.890625 2.96875 -6.953125 C 2.734375 -7.015625 2.609375 -7.015625 2.453125 -7.015625 C 1.421875 -7.015625 0.859375 -6.46875 0.859375 -5.375 L 0.859375 -4.5625 C 0.640625 -4.5625 0.296875 -4.5625 0.296875 -4.203125 C 0.296875 -3.84375 0.640625 -3.84375 0.859375 -3.84375 L 0.859375 -0.484375 C 0.859375 -0.125 0.96875 0 1.328125 0 L 1.703125 0 C 2.078125 0 2.1875 -0.125 2.1875 -0.484375 Z M 5.21875 -6.421875 C 5.21875 -6.75 5.140625 -6.90625 4.734375 -6.90625 L 4.375 -6.90625 C 3.984375 -6.90625 3.890625 -6.78125 3.890625 -6.421875 L 3.890625 -0.484375 C 3.890625 -0.15625 3.96875 0 4.375 0 L 4.734375 0 C 5.109375 0 5.21875 -0.125 5.21875 -0.484375 Z M 5.21875 -6.421875 "/>
</g>
<g id="glyph-2-0">
<path d="M 4.109375 -3.96875 L 3.40625 -3.96875 C 2.71875 -2.34375 2.234375 -1.15625 2.1875 -0.53125 C 2.15625 -0.9375 1.78125 -1.859375 1.671875 -2.125 C 1.3125 -3.03125 1.15625 -3.34375 0.875 -3.96875 L 0.125 -3.96875 L 1.921875 0 L 1.578125 0.796875 C 1.359375 1.296875 1.1875 1.296875 1.0625 1.296875 C 0.90625 1.296875 0.59375 1.265625 0.328125 1.140625 L 0.390625 1.765625 C 0.40625 1.765625 0.75 1.828125 1.046875 1.828125 C 1.296875 1.828125 1.671875 1.828125 2.125 0.765625 Z M 4.109375 -3.96875 "/>
</g>
<g id="glyph-2-1">
<path d="M 3.828125 -1.953125 C 3.828125 -2.234375 3.8125 -2.921875 3.46875 -3.453125 C 3.09375 -4.015625 2.515625 -4.125 2.171875 -4.125 C 1.140625 -4.125 0.3125 -3.171875 0.3125 -2.015625 C 0.3125 -0.84375 1.1875 0.09375 2.3125 0.09375 C 2.734375 0.09375 3.265625 -0.015625 3.78125 -0.34375 L 3.71875 -0.953125 C 3.15625 -0.5625 2.625 -0.484375 2.3125 -0.484375 C 1.578125 -0.484375 1 -1.140625 0.96875 -1.953125 Z M 1.03125 -2.484375 C 1.171875 -3.0625 1.609375 -3.546875 2.171875 -3.546875 C 2.5 -3.546875 3.109375 -3.390625 3.28125 -2.484375 Z M 1.03125 -2.484375 "/>
</g>
<g id="glyph-2-2">
<path d="M 3.15625 -3.84375 C 2.609375 -4.09375 2.1875 -4.125 1.828125 -4.125 C 1.625 -4.125 0.296875 -4.125 0.296875 -2.953125 C 0.296875 -2.515625 0.5625 -2.25 0.65625 -2.15625 C 1 -1.859375 1.234375 -1.8125 1.84375 -1.6875 C 2.125 -1.640625 2.640625 -1.546875 2.640625 -1.078125 C 2.640625 -0.5 1.921875 -0.5 1.796875 -0.5 C 1.265625 -0.5 0.765625 -0.6875 0.375 -0.953125 L 0.265625 -0.296875 C 0.796875 -0.015625 1.34375 0.09375 1.796875 0.09375 C 2.375 0.09375 3.3125 -0.09375 3.3125 -1.15625 C 3.3125 -1.46875 3.1875 -1.78125 2.875 -2.046875 C 2.5625 -2.3125 2.296875 -2.359375 1.75 -2.46875 C 1.421875 -2.53125 0.96875 -2.609375 0.96875 -3.03125 C 0.96875 -3.5625 1.609375 -3.5625 1.75 -3.5625 C 2.40625 -3.5625 2.78125 -3.359375 3.046875 -3.21875 Z M 3.15625 -3.84375 "/>
</g>
<g id="glyph-2-3">
<path d="M 4.015625 -2.65625 C 4.015625 -3.328125 3.84375 -4.078125 2.75 -4.078125 C 2.046875 -4.078125 1.625 -3.65625 1.421875 -3.390625 L 1.421875 -4.03125 L 0.71875 -4.03125 L 0.71875 0 L 1.46875 0 L 1.46875 -2.1875 C 1.46875 -2.78125 1.703125 -3.484375 2.375 -3.484375 C 3.28125 -3.484375 3.28125 -2.859375 3.28125 -2.59375 L 3.28125 0 L 4.015625 0 Z M 4.015625 -2.65625 "/>
</g>
<g id="glyph-2-4">
<path d="M 4.328125 -1.96875 C 4.328125 -3.140625 3.421875 -4.125 2.296875 -4.125 C 1.1875 -4.125 0.265625 -3.15625 0.265625 -1.96875 C 0.265625 -0.78125 1.203125 0.09375 2.296875 0.09375 C 3.40625 0.09375 4.328125 -0.8125 4.328125 -1.96875 Z M 2.296875 -0.515625 C 1.609375 -0.515625 1.015625 -1.046875 1.015625 -2.0625 C 1.015625 -3.109375 1.6875 -3.546875 2.296875 -3.546875 C 2.9375 -3.546875 3.578125 -3.09375 3.578125 -2.0625 C 3.578125 -1.015625 2.953125 -0.515625 2.296875 -0.515625 Z M 2.296875 -0.515625 "/>
</g>
</g>
<clipPath id="clip-0">
<path clip-rule="nonzero" d="M 205 222 L 334.238281 222 L 334.238281 278 L 205 278 Z M 205 222 "/>
</clipPath>
<clipPath id="clip-1">
<path clip-rule="nonzero" d="M 205 325 L 334.238281 325 L 334.238281 381 L 205 381 Z M 205 325 "/>
</clipPath>
<clipPath id="clip-2">
<path clip-rule="nonzero" d="M 21 405 L 152 405 L 152 460.585938 L 21 460.585938 Z M 21 405 "/>
</clipPath>
</defs>
<path fill-rule="nonzero" fill="rgb(95.999146%, 95.999146%, 95.999146%)" fill-opacity="1" stroke-width="0.3985" stroke-linecap="butt" stroke-linejoin="miter" stroke="rgb(29.998779%, 29.998779%, 29.998779%)" stroke-opacity="1" stroke-miterlimit="10" d="M 73.265674 0.000802044 L -0.00146604 36.59331 L -73.268606 0.000802044 L -0.00146604 -36.591706 Z M 73.265674 0.000802044 " transform="matrix(0.99886, 0, 0, -0.99886, 86.642089, 48.285957)"/>
<g fill="rgb(0%, 0%, 0%)" fill-opacity="1">
<use xlink:href="#glyph-0-0" x="67.431021" y="45.770829"/>
<use xlink:href="#glyph-0-1" x="74.756128" y="45.770829"/>
<use xlink:href="#glyph-0-2" x="82.855442" y="45.770829"/>
<use xlink:href="#glyph-0-3" x="87.831062" y="45.770829"/>
<use xlink:href="#glyph-0-4" x="92.613628" y="45.770829"/>
</g>
<g fill="rgb(0%, 0%, 0%)" fill-opacity="1">
<use xlink:href="#glyph-0-3" x="101.069196" y="45.770829"/>
</g>
<g fill="rgb(0%, 0%, 0%)" fill-opacity="1">
<use xlink:href="#glyph-0-5" x="66.228394" y="57.712196"/>
<use xlink:href="#glyph-0-6" x="70.042704" y="57.712196"/>
<use xlink:href="#glyph-0-4" x="72.420055" y="57.712196"/>
<use xlink:href="#glyph-0-7" x="77.56186" y="57.712196"/>
</g>
<g fill="rgb(0%, 0%, 0%)" fill-opacity="1">
<use xlink:href="#glyph-0-8" x="85.297954" y="57.712196"/>
<use xlink:href="#glyph-0-3" x="88.891347" y="57.712196"/>
<use xlink:href="#glyph-0-5" x="93.673913" y="57.712196"/>
<use xlink:href="#glyph-0-9" x="97.488223" y="57.712196"/>
<use xlink:href="#glyph-0-10" x="102.353384" y="57.712196"/>
</g>
<path fill-rule="nonzero" fill="rgb(90.008545%, 92.658997%, 95.15686%)" fill-opacity="1" stroke-width="0.89664" stroke-linecap="butt" stroke-linejoin="miter" stroke="rgb(23.136902%, 43.528748%, 62.745667%)" stroke-opacity="1" stroke-miterlimit="10" d="M 230.171156 14.881051 L 133.259867 14.881051 C 131.058137 14.881051 129.274854 13.097768 129.274854 10.896038 L 129.274854 -10.898345 C 129.274854 -13.096164 131.058137 -14.883358 133.259867 -14.883358 L 230.171156 -14.883358 C 232.372885 -14.883358 234.156169 -13.096164 234.156169 -10.898345 L 234.156169 10.896038 C 234.156169 13.097768 232.372885 14.881051 230.171156 14.881051 Z M 230.171156 14.881051 " transform="matrix(0.99886, 0, 0, -0.99886, 86.642089, 48.285957)"/>
<g fill="rgb(0%, 0%, 0%)" fill-opacity="1">
<use xlink:href="#glyph-1-0" x="244.729617" y="50.774117"/>
<use xlink:href="#glyph-1-1" x="250.810819" y="50.774117"/>
<use xlink:href="#glyph-1-2" x="256.39446" y="50.774117"/>
<use xlink:href="#glyph-1-3" x="261.9781" y="50.774117"/>
<use xlink:href="#glyph-1-4" x="267.202501" y="50.774117"/>
<use xlink:href="#glyph-1-5" x="272.675683" y="50.774117"/>
<use xlink:href="#glyph-1-6" x="277.761762" y="50.774117"/>
<use xlink:href="#glyph-1-7" x="283.345402" y="50.774117"/>
<use xlink:href="#glyph-1-8" x="287.367693" y="50.774117"/>
</g>
<path fill-rule="nonzero" fill="rgb(95.999146%, 95.999146%, 95.999146%)" fill-opacity="1" stroke-width="0.3985" stroke-linecap="butt" stroke-linejoin="miter" stroke="rgb(29.998779%, 29.998779%, 29.998779%)" stroke-opacity="1" stroke-miterlimit="10" d="M 73.265674 -100.6765 L -0.00146604 -64.083993 L -73.268606 -100.6765 L -0.00146604 -137.269008 Z M 73.265674 -100.6765 " transform="matrix(0.99886, 0, 0, -0.99886, 86.642089, 48.285957)"/>
<g fill="rgb(0%, 0%, 0%)" fill-opacity="1">
<use xlink:href="#glyph-0-11" x="67.154337" y="146.332028"/>
<use xlink:href="#glyph-0-3" x="74.2028" y="146.332028"/>
<use xlink:href="#glyph-0-12" x="78.985365" y="146.332028"/>
<use xlink:href="#glyph-0-4" x="84.127171" y="146.332028"/>
</g>
<g fill="rgb(0%, 0%, 0%)" fill-opacity="1">
<use xlink:href="#glyph-0-2" x="92.582739" y="146.332028"/>
<use xlink:href="#glyph-0-13" x="97.558359" y="146.332028"/>
<use xlink:href="#glyph-0-14" x="103.362917" y="146.332028"/>
</g>
<g fill="rgb(0%, 0%, 0%)" fill-opacity="1">
<use xlink:href="#glyph-0-15" x="61.708553" y="158.273396"/>
<use xlink:href="#glyph-0-16" x="66.130884" y="158.273396"/>
<use xlink:href="#glyph-0-7" x="71.27269" y="158.273396"/>
<use xlink:href="#glyph-0-15" x="75.695021" y="158.273396"/>
<use xlink:href="#glyph-0-9" x="80.117352" y="158.273396"/>
</g>
<g fill="rgb(0%, 0%, 0%)" fill-opacity="1">
<use xlink:href="#glyph-0-17" x="88.296276" y="158.273396"/>
<use xlink:href="#glyph-0-3" x="90.673627" y="158.273396"/>
<use xlink:href="#glyph-0-8" x="95.456193" y="158.273396"/>
<use xlink:href="#glyph-0-7" x="99.049585" y="158.273396"/>
<use xlink:href="#glyph-0-18" x="103.471916" y="158.273396"/>
<use xlink:href="#glyph-0-10" x="106.872255" y="158.273396"/>
</g>
<path fill-rule="nonzero" fill="rgb(89.350891%, 92.411804%, 88.703918%)" fill-opacity="1" stroke-width="0.89664" stroke-linecap="butt" stroke-linejoin="miter" stroke="rgb(29.019165%, 49.412537%, 24.705505%)" stroke-opacity="1" stroke-miterlimit="10" d="M 230.171156 -85.796251 L 133.259867 -85.796251 C 131.058137 -85.796251 129.274854 -87.579534 129.274854 -89.781264 L 129.274854 -111.575647 C 129.274854 -113.773466 131.058137 -115.56066 133.259867 -115.56066 L 230.171156 -115.56066 C 232.372885 -115.56066 234.156169 -113.773466 234.156169 -111.575647 L 234.156169 -89.781264 C 234.156169 -87.579534 232.372885 -85.796251 230.171156 -85.796251 Z M 230.171156 -85.796251 " transform="matrix(0.99886, 0, 0, -0.99886, 86.642089, 48.285957)"/>
<g fill="rgb(0%, 0%, 0%)" fill-opacity="1">
<use xlink:href="#glyph-1-9" x="242.585065" y="151.335316"/>
<use xlink:href="#glyph-1-4" x="249.882309" y="151.335316"/>
<use xlink:href="#glyph-1-5" x="255.355491" y="151.335316"/>
<use xlink:href="#glyph-1-6" x="260.441569" y="151.335316"/>
<use xlink:href="#glyph-1-7" x="266.02521" y="151.335316"/>
</g>
<g fill="rgb(0%, 0%, 0%)" fill-opacity="1">
<use xlink:href="#glyph-1-10" x="273.699606" y="151.335316"/>
<use xlink:href="#glyph-1-11" x="278.675226" y="151.335316"/>
<use xlink:href="#glyph-1-5" x="281.218763" y="151.335316"/>
<use xlink:href="#glyph-1-12" x="286.304841" y="151.335316"/>
</g>
<path fill-rule="nonzero" fill="rgb(95.999146%, 95.999146%, 95.999146%)" fill-opacity="1" stroke-width="0.3985" stroke-linecap="butt" stroke-linejoin="miter" stroke="rgb(29.998779%, 29.998779%, 29.998779%)" stroke-opacity="1" stroke-miterlimit="10" d="M 75.205386 -202.323658 L -0.00146604 -164.761295 L -75.204407 -202.323658 L -0.00146604 -239.882111 Z M 75.205386 -202.323658 " transform="matrix(0.99886, 0, 0, -0.99886, 86.642089, 48.285957)"/>
<g fill="rgb(0%, 0%, 0%)" fill-opacity="1">
<use xlink:href="#glyph-0-19" x="64.057872" y="246.893227"/>
<use xlink:href="#glyph-0-2" x="70.415719" y="246.893227"/>
</g>
<g fill="rgb(0%, 0%, 0%)" fill-opacity="1">
<use xlink:href="#glyph-0-2" x="75.669973" y="246.893227"/>
</g>
<g fill="rgb(0%, 0%, 0%)" fill-opacity="1">
<use xlink:href="#glyph-0-18" x="80.366958" y="246.893227"/>
<use xlink:href="#glyph-0-4" x="83.767297" y="246.893227"/>
<use xlink:href="#glyph-0-6" x="88.909102" y="246.893227"/>
<use xlink:href="#glyph-0-12" x="91.286453" y="246.893227"/>
<use xlink:href="#glyph-0-3" x="96.428259" y="246.893227"/>
<use xlink:href="#glyph-0-8" x="101.210825" y="246.893227"/>
<use xlink:href="#glyph-0-7" x="104.804217" y="246.893227"/>
</g>
<g fill="rgb(0%, 0%, 0%)" fill-opacity="1">
<use xlink:href="#glyph-0-3" x="68.425885" y="258.834595"/>
</g>
<g fill="rgb(0%, 0%, 0%)" fill-opacity="1">
<use xlink:href="#glyph-0-20" x="76.522214" y="258.834595"/>
<use xlink:href="#glyph-0-18" x="81.497833" y="258.834595"/>
<use xlink:href="#glyph-0-2" x="84.898172" y="258.834595"/>
<use xlink:href="#glyph-0-21" x="89.873792" y="258.834595"/>
<use xlink:href="#glyph-0-22" x="95.015597" y="258.834595"/>
<use xlink:href="#glyph-0-10" x="100.157403" y="258.834595"/>
</g>
<path fill-rule="nonzero" fill="rgb(96.044922%, 93.537903%, 88.015747%)" fill-opacity="1" d="M 318.484375 235.511719 L 221.683594 235.511719 C 219.484375 235.511719 217.703125 237.296875 217.703125 239.492188 L 217.703125 261.261719 C 217.703125 263.460938 219.484375 265.242188 221.683594 265.242188 L 318.484375 265.242188 C 320.683594 265.242188 322.464844 263.460938 322.464844 261.261719 L 322.464844 239.492188 C 322.464844 237.296875 320.683594 235.511719 318.484375 235.511719 Z M 318.484375 235.511719 "/>
<g clip-path="url(#clip-0)">
<path fill="none" stroke-width="0.89664" stroke-linecap="butt" stroke-linejoin="miter" stroke="rgb(75.292969%, 59.606934%, 25.097656%)" stroke-opacity="1" stroke-miterlimit="10" d="M 232.106957 -187.439498 L 135.195668 -187.439498 C 132.993938 -187.439498 131.210655 -189.226693 131.210655 -191.424511 L 131.210655 -213.218895 C 131.210655 -215.420624 132.993938 -217.203907 135.195668 -217.203907 L 232.106957 -217.203907 C 234.308686 -217.203907 236.09197 -215.420624 236.09197 -213.218895 L 236.09197 -191.424511 C 236.09197 -189.226693 234.308686 -187.439498 232.106957 -187.439498 Z M 232.106957 -187.439498 " transform="matrix(0.99886, 0, 0, -0.99886, 86.642089, 48.285957)"/>
</g>
<g fill="rgb(0%, 0%, 0%)" fill-opacity="1">
<use xlink:href="#glyph-1-9" x="240.949931" y="252.863412"/>
<use xlink:href="#glyph-1-4" x="248.247176" y="252.863412"/>
<use xlink:href="#glyph-1-5" x="253.720357" y="252.863412"/>
<use xlink:href="#glyph-1-6" x="258.806436" y="252.863412"/>
<use xlink:href="#glyph-1-7" x="264.390077" y="252.863412"/>
</g>
<g fill="rgb(0%, 0%, 0%)" fill-opacity="1">
<use xlink:href="#glyph-1-7" x="272.064473" y="252.863412"/>
<use xlink:href="#glyph-1-5" x="276.086764" y="252.863412"/>
<use xlink:href="#glyph-1-3" x="281.172842" y="252.863412"/>
<use xlink:href="#glyph-1-13" x="286.397243" y="252.863412"/>
<use xlink:href="#glyph-1-8" x="295.021982" y="252.863412"/>
</g>
<path fill-rule="nonzero" fill="rgb(95.999146%, 95.999146%, 95.999146%)" fill-opacity="1" stroke-width="0.3985" stroke-linecap="butt" stroke-linejoin="miter" stroke="rgb(29.998779%, 29.998779%, 29.998779%)" stroke-opacity="1" stroke-miterlimit="10" d="M 75.205386 -304.936762 L -0.00146604 -267.378309 L -75.204407 -304.936762 L -0.00146604 -342.499125 Z M 75.205386 -304.936762 " transform="matrix(0.99886, 0, 0, -0.99886, 86.642089, 48.285957)"/>
<g fill="rgb(0%, 0%, 0%)" fill-opacity="1">
<use xlink:href="#glyph-0-19" x="65.025767" y="349.389218"/>
<use xlink:href="#glyph-0-2" x="71.383614" y="349.389218"/>
</g>
<g fill="rgb(0%, 0%, 0%)" fill-opacity="1">
<use xlink:href="#glyph-0-4" x="76.637868" y="349.389218"/>
<use xlink:href="#glyph-0-6" x="81.779674" y="349.389218"/>
<use xlink:href="#glyph-0-23" x="84.157025" y="349.389218"/>
<use xlink:href="#glyph-0-24" x="87.198124" y="349.389218"/>
</g>
<g fill="rgb(0%, 0%, 0%)" fill-opacity="1">
<use xlink:href="#glyph-0-8" x="95.100403" y="349.389218"/>
<use xlink:href="#glyph-0-16" x="98.693796" y="349.389218"/>
<use xlink:href="#glyph-0-7" x="103.835601" y="349.389218"/>
</g>
<g fill="rgb(0%, 0%, 0%)" fill-opacity="1">
<use xlink:href="#glyph-0-22" x="75.571727" y="361.330586"/>
<use xlink:href="#glyph-0-17" x="80.713533" y="361.330586"/>
<use xlink:href="#glyph-0-3" x="83.090884" y="361.330586"/>
<use xlink:href="#glyph-0-12" x="87.87345" y="361.330586"/>
<use xlink:href="#glyph-0-10" x="93.015255" y="361.330586"/>
</g>
<path fill-rule="nonzero" fill="rgb(93.11676%, 89.588928%, 92.64679%)" fill-opacity="1" d="M 318.484375 338.011719 L 221.683594 338.011719 C 219.484375 338.011719 217.703125 339.792969 217.703125 341.992188 L 217.703125 363.761719 C 217.703125 365.960938 219.484375 367.742188 221.683594 367.742188 L 318.484375 367.742188 C 320.683594 367.742188 322.464844 365.960938 322.464844 363.761719 L 322.464844 341.992188 C 322.464844 339.792969 320.683594 338.011719 318.484375 338.011719 Z M 318.484375 338.011719 "/>
<g clip-path="url(#clip-1)">
<path fill="none" stroke-width="0.89664" stroke-linecap="butt" stroke-linejoin="miter" stroke="rgb(54.116821%, 30.587769%, 50.979614%)" stroke-opacity="1" stroke-miterlimit="10" d="M 232.106957 -290.056512 L 135.195668 -290.056512 C 132.993938 -290.056512 131.210655 -291.839796 131.210655 -294.041525 L 131.210655 -315.835909 C 131.210655 -318.037638 132.993938 -319.820921 135.195668 -319.820921 L 232.106957 -319.820921 C 234.308686 -319.820921 236.09197 -318.037638 236.09197 -315.835909 L 236.09197 -294.041525 C 236.09197 -291.839796 234.308686 -290.056512 232.106957 -290.056512 Z M 232.106957 -290.056512 " transform="matrix(0.99886, 0, 0, -0.99886, 86.642089, 48.285957)"/>
</g>
<g fill="rgb(0%, 0%, 0%)" fill-opacity="1">
<use xlink:href="#glyph-1-14" x="226.465467" y="355.360401"/>
<use xlink:href="#glyph-1-15" x="234.371727" y="355.360401"/>
<use xlink:href="#glyph-1-6" x="239.347347" y="355.360401"/>
<use xlink:href="#glyph-1-3" x="244.930987" y="355.360401"/>
<use xlink:href="#glyph-1-13" x="250.155388" y="355.360401"/>
<use xlink:href="#glyph-1-11" x="258.780128" y="355.360401"/>
<use xlink:href="#glyph-1-16" x="261.323664" y="355.360401"/>
</g>
<g fill="rgb(0%, 0%, 0%)" fill-opacity="1">
<use xlink:href="#glyph-1-12" x="269.84093" y="355.360401"/>
</g>
<g fill="rgb(0%, 0%, 0%)" fill-opacity="1">
<use xlink:href="#glyph-1-17" x="276.940145" y="355.360401"/>
</g>
<g fill="rgb(0%, 0%, 0%)" fill-opacity="1">
<use xlink:href="#glyph-1-18" x="282.104838" y="355.360401"/>
<use xlink:href="#glyph-1-19" x="285.80869" y="355.360401"/>
<use xlink:href="#glyph-1-20" x="291.088817" y="355.360401"/>
<use xlink:href="#glyph-1-17" x="296.921239" y="355.360401"/>
</g>
<g fill="rgb(0%, 0%, 0%)" fill-opacity="1">
<use xlink:href="#glyph-1-12" x="302.095884" y="355.360401"/>
<use xlink:href="#glyph-1-8" x="309.503586" y="355.360401"/>
</g>
<path fill-rule="nonzero" fill="rgb(94.999695%, 94.999695%, 94.999695%)" fill-opacity="1" d="M 135.042969 418.023438 L 38.242188 418.023438 C 36.042969 418.023438 34.261719 419.804688 34.261719 422.003906 L 34.261719 444.835938 C 34.261719 447.035156 36.042969 448.816406 38.242188 448.816406 L 135.042969 448.816406 C 137.242188 448.816406 139.023438 447.035156 139.023438 444.835938 L 139.023438 422.003906 C 139.023438 419.804688 137.242188 418.023438 135.042969 418.023438 Z M 135.042969 418.023438 "/>
<g clip-path="url(#clip-2)">
<path fill="none" stroke-width="0.89664" stroke-linecap="butt" stroke-linejoin="miter" stroke="rgb(29.998779%, 29.998779%, 29.998779%)" stroke-opacity="1" stroke-miterlimit="10" d="M 48.456134 -370.159573 L -48.455155 -370.159573 C -50.656885 -370.159573 -52.440168 -371.942856 -52.440168 -374.144585 L -52.440168 -397.002682 C -52.440168 -399.204411 -50.656885 -400.987695 -48.455155 -400.987695 L 48.456134 -400.987695 C 50.657863 -400.987695 52.441147 -399.204411 52.441147 -397.002682 L 52.441147 -374.144585 C 52.441147 -371.942856 50.657863 -370.159573 48.456134 -370.159573 Z M 48.456134 -370.159573 " transform="matrix(0.99886, 0, 0, -0.99886, 86.642089, 48.285957)"/>
</g>
<g fill="rgb(0%, 0%, 0%)" fill-opacity="1">
<use xlink:href="#glyph-1-0" x="60.858524" y="430.898167"/>
<use xlink:href="#glyph-1-7" x="66.939726" y="430.898167"/>
<use xlink:href="#glyph-1-3" x="70.962018" y="430.898167"/>
</g>
<g fill="rgb(0%, 0%, 0%)" fill-opacity="1">
<use xlink:href="#glyph-1-15" x="75.87793" y="430.898167"/>
</g>
<g fill="rgb(0%, 0%, 0%)" fill-opacity="1">
<use xlink:href="#glyph-1-11" x="84.505655" y="430.898167"/>
<use xlink:href="#glyph-1-6" x="87.049192" y="430.898167"/>
</g>
<g fill="rgb(0%, 0%, 0%)" fill-opacity="1">
<use xlink:href="#glyph-1-17" x="96.284937" y="430.898167"/>
<use xlink:href="#glyph-1-6" x="101.758119" y="430.898167"/>
<use xlink:href="#glyph-1-5" x="107.341759" y="430.898167"/>
</g>
<g fill="rgb(0%, 0%, 0%)" fill-opacity="1">
<use xlink:href="#glyph-1-16" x="58.276472" y="442.840534"/>
<use xlink:href="#glyph-1-17" x="63.141633" y="442.840534"/>
<use xlink:href="#glyph-1-6" x="68.614814" y="442.840534"/>
<use xlink:href="#glyph-1-10" x="74.198455" y="442.840534"/>
<use xlink:href="#glyph-1-5" x="79.174075" y="442.840534"/>
<use xlink:href="#glyph-1-18" x="84.260153" y="442.840534"/>
<use xlink:href="#glyph-1-8" x="87.964005" y="442.840534"/>
<use xlink:href="#glyph-1-3" x="92.160443" y="442.840534"/>
<use xlink:href="#glyph-1-7" x="97.384843" y="442.840534"/>
<use xlink:href="#glyph-1-11" x="101.407135" y="442.840534"/>
<use xlink:href="#glyph-1-17" x="103.950671" y="442.840534"/>
<use xlink:href="#glyph-1-6" x="109.423853" y="442.840534"/>
</g>
<path fill="none" stroke-width="0.79701" stroke-linecap="butt" stroke-linejoin="miter" stroke="rgb(29.998779%, 29.998779%, 29.998779%)" stroke-opacity="1" stroke-miterlimit="10" d="M 73.555067 0.000802044 L 124.714967 0.000802044 " transform="matrix(0.99886, 0, 0, -0.99886, 86.642089, 48.285957)"/>
<path fill-rule="nonzero" fill="rgb(29.998779%, 29.998779%, 29.998779%)" fill-opacity="1" stroke-width="0.79701" stroke-linecap="butt" stroke-linejoin="miter" stroke="rgb(29.998779%, 29.998779%, 29.998779%)" stroke-opacity="1" stroke-miterlimit="10" d="M 5.441567 0.000802044 L 1.288393 1.568997 L 2.664963 0.000802044 L 1.288393 -1.571303 Z M 5.441567 0.000802044 " transform="matrix(0.99886, 0, 0, -0.99886, 208.752139, 48.285957)"/>
<path fill-rule="nonzero" fill="rgb(100%, 100%, 100%)" fill-opacity="1" d="M 180.417969 52.640625 L 195.011719 52.640625 L 195.011719 43.933594 L 180.417969 43.933594 Z M 180.417969 52.640625 "/>
<g fill="rgb(0%, 0%, 0%)" fill-opacity="1">
<use xlink:href="#glyph-2-0" x="181.91133" y="49.405679"/>
</g>
<g fill="rgb(0%, 0%, 0%)" fill-opacity="1">
<use xlink:href="#glyph-2-1" x="185.895037" y="49.405679"/>
<use xlink:href="#glyph-2-2" x="189.986218" y="49.405679"/>
</g>
<path fill="none" stroke-width="0.79701" stroke-linecap="butt" stroke-linejoin="miter" stroke="rgb(29.998779%, 29.998779%, 29.998779%)" stroke-opacity="1" stroke-miterlimit="10" d="M -0.00146604 -36.873277 L -0.00146604 -59.692266 " transform="matrix(0.99886, 0, 0, -0.99886, 86.642089, 48.285957)"/>
<path fill-rule="nonzero" fill="rgb(29.998779%, 29.998779%, 29.998779%)" fill-opacity="1" stroke-width="0.79701" stroke-linecap="butt" stroke-linejoin="miter" stroke="rgb(29.998779%, 29.998779%, 29.998779%)" stroke-opacity="1" stroke-miterlimit="10" d="M 5.442136 -0.00146604 L 1.285052 1.570639 L 2.665532 -0.00146604 L 1.285052 -1.56966 Z M 5.442136 -0.00146604 " transform="matrix(0, 0.99886, 0.99886, 0, 86.642089, 105.446882)"/>
<path fill-rule="nonzero" fill="rgb(100%, 100%, 100%)" fill-opacity="1" d="M 80.472656 102.050781 L 92.8125 102.050781 L 92.8125 95.082031 L 80.472656 95.082031 Z M 80.472656 102.050781 "/>
<g fill="rgb(0%, 0%, 0%)" fill-opacity="1">
<use xlink:href="#glyph-2-3" x="81.963431" y="100.556286"/>
<use xlink:href="#glyph-2-4" x="86.718264" y="100.556286"/>
</g>
<path fill="none" stroke-width="0.79701" stroke-linecap="butt" stroke-linejoin="miter" stroke="rgb(29.998779%, 29.998779%, 29.998779%)" stroke-opacity="1" stroke-miterlimit="10" d="M 73.555067 -100.6765 L 124.714967 -100.6765 " transform="matrix(0.99886, 0, 0, -0.99886, 86.642089, 48.285957)"/>
<path fill-rule="nonzero" fill="rgb(29.998779%, 29.998779%, 29.998779%)" fill-opacity="1" stroke-width="0.79701" stroke-linecap="butt" stroke-linejoin="miter" stroke="rgb(29.998779%, 29.998779%, 29.998779%)" stroke-opacity="1" stroke-miterlimit="10" d="M 5.441567 0.000799866 L 1.288393 1.568994 L 2.664963 0.000799866 L 1.288393 -1.571305 Z M 5.441567 0.000799866 " transform="matrix(0.99886, 0, 0, -0.99886, 208.752139, 148.848455)"/>
<path fill-rule="nonzero" fill="rgb(100%, 100%, 100%)" fill-opacity="1" d="M 180.417969 153.203125 L 195.011719 153.203125 L 195.011719 144.496094 L 180.417969 144.496094 Z M 180.417969 153.203125 "/>
<g fill="rgb(0%, 0%, 0%)" fill-opacity="1">
<use xlink:href="#glyph-2-0" x="181.91133" y="149.966878"/>
</g>
<g fill="rgb(0%, 0%, 0%)" fill-opacity="1">
<use xlink:href="#glyph-2-1" x="185.895037" y="149.966878"/>
<use xlink:href="#glyph-2-2" x="189.986218" y="149.966878"/>
</g>
<path fill="none" stroke-width="0.79701" stroke-linecap="butt" stroke-linejoin="miter" stroke="rgb(29.998779%, 29.998779%, 29.998779%)" stroke-opacity="1" stroke-miterlimit="10" d="M -0.00146604 -137.550579 L -0.00146604 -160.369568 " transform="matrix(0.99886, 0, 0, -0.99886, 86.642089, 48.285957)"/>
<path fill-rule="nonzero" fill="rgb(29.998779%, 29.998779%, 29.998779%)" fill-opacity="1" stroke-width="0.79701" stroke-linecap="butt" stroke-linejoin="miter" stroke="rgb(29.998779%, 29.998779%, 29.998779%)" stroke-opacity="1" stroke-miterlimit="10" d="M 5.441248 -0.00146604 L 1.288075 1.570639 L 2.664644 -0.00146604 L 1.288075 -1.56966 Z M 5.441248 -0.00146604 " transform="matrix(0, 0.99886, 0.99886, 0, 86.642089, 206.010269)"/>
<path fill-rule="nonzero" fill="rgb(100%, 100%, 100%)" fill-opacity="1" d="M 80.472656 202.613281 L 92.8125 202.613281 L 92.8125 195.648438 L 80.472656 195.648438 Z M 80.472656 202.613281 "/>
<g fill="rgb(0%, 0%, 0%)" fill-opacity="1">
<use xlink:href="#glyph-2-3" x="81.963431" y="201.118484"/>
<use xlink:href="#glyph-2-4" x="86.718264" y="201.118484"/>
</g>
<path fill="none" stroke-width="0.79701" stroke-linecap="butt" stroke-linejoin="miter" stroke="rgb(29.998779%, 29.998779%, 29.998779%)" stroke-opacity="1" stroke-miterlimit="10" d="M 75.486957 -202.323658 L 126.650768 -202.323658 " transform="matrix(0.99886, 0, 0, -0.99886, 86.642089, 48.285957)"/>
<path fill-rule="nonzero" fill="rgb(29.998779%, 29.998779%, 29.998779%)" fill-opacity="1" stroke-width="0.79701" stroke-linecap="butt" stroke-linejoin="miter" stroke="rgb(29.998779%, 29.998779%, 29.998779%)" stroke-opacity="1" stroke-miterlimit="10" d="M 5.440168 -0.000428236 L 1.286994 1.571677 L 2.663564 -0.000428236 L 1.286994 -1.572533 Z M 5.440168 -0.000428236 " transform="matrix(0.99886, 0, 0, -0.99886, 210.68713, 250.378479)"/>
<path fill-rule="nonzero" fill="rgb(100%, 100%, 100%)" fill-opacity="1" d="M 182.351562 254.730469 L 196.945312 254.730469 L 196.945312 246.023438 L 182.351562 246.023438 Z M 182.351562 254.730469 "/>
<g fill="rgb(0%, 0%, 0%)" fill-opacity="1">
<use xlink:href="#glyph-2-0" x="183.845122" y="251.494974"/>
</g>
<g fill="rgb(0%, 0%, 0%)" fill-opacity="1">
<use xlink:href="#glyph-2-1" x="187.828829" y="251.494974"/>
<use xlink:href="#glyph-2-2" x="191.92001" y="251.494974"/>
</g>
<path fill="none" stroke-width="0.79701" stroke-linecap="butt" stroke-linejoin="miter" stroke="rgb(29.998779%, 29.998779%, 29.998779%)" stroke-opacity="1" stroke-miterlimit="10" d="M -0.00146604 -240.167593 L -0.00146604 -262.982671 " transform="matrix(0.99886, 0, 0, -0.99886, 86.642089, 48.285957)"/>
<path fill-rule="nonzero" fill="rgb(29.998779%, 29.998779%, 29.998779%)" fill-opacity="1" stroke-width="0.79701" stroke-linecap="butt" stroke-linejoin="miter" stroke="rgb(29.998779%, 29.998779%, 29.998779%)" stroke-opacity="1" stroke-miterlimit="10" d="M 5.439461 -0.00146604 L 1.286288 1.570639 L 2.662858 -0.00146604 L 1.286288 -1.56966 Z M 5.439461 -0.00146604 " transform="matrix(0, 0.99886, 0.99886, 0, 86.642089, 308.508148)"/>
<path fill-rule="nonzero" fill="rgb(100%, 100%, 100%)" fill-opacity="1" d="M 80.472656 305.109375 L 92.8125 305.109375 L 92.8125 298.144531 L 80.472656 298.144531 Z M 80.472656 305.109375 "/>
<g fill="rgb(0%, 0%, 0%)" fill-opacity="1">
<use xlink:href="#glyph-2-3" x="81.963431" y="303.615473"/>
<use xlink:href="#glyph-2-4" x="86.718264" y="303.615473"/>
</g>
<path fill="none" stroke-width="0.79701" stroke-linecap="butt" stroke-linejoin="miter" stroke="rgb(29.998779%, 29.998779%, 29.998779%)" stroke-opacity="1" stroke-miterlimit="10" d="M 75.486957 -304.936762 L 126.650768 -304.936762 " transform="matrix(0.99886, 0, 0, -0.99886, 86.642089, 48.285957)"/>
<path fill-rule="nonzero" fill="rgb(29.998779%, 29.998779%, 29.998779%)" fill-opacity="1" stroke-width="0.79701" stroke-linecap="butt" stroke-linejoin="miter" stroke="rgb(29.998779%, 29.998779%, 29.998779%)" stroke-opacity="1" stroke-miterlimit="10" d="M 5.440168 0.000978445 L 1.286994 1.569173 L 2.663564 0.000978445 L 1.286994 -1.571127 Z M 5.440168 0.000978445 " transform="matrix(0.99886, 0, 0, -0.99886, 210.68713, 352.875977)"/>
<path fill-rule="nonzero" fill="rgb(100%, 100%, 100%)" fill-opacity="1" d="M 182.351562 357.230469 L 196.945312 357.230469 L 196.945312 348.523438 L 182.351562 348.523438 Z M 182.351562 357.230469 "/>
<g fill="rgb(0%, 0%, 0%)" fill-opacity="1">
<use xlink:href="#glyph-2-0" x="183.845122" y="353.991963"/>
</g>
<g fill="rgb(0%, 0%, 0%)" fill-opacity="1">
<use xlink:href="#glyph-2-1" x="187.828829" y="353.991963"/>
<use xlink:href="#glyph-2-2" x="191.92001" y="353.991963"/>
</g>
<path fill="none" stroke-width="0.79701" stroke-linecap="butt" stroke-linejoin="miter" stroke="rgb(29.998779%, 29.998779%, 29.998779%)" stroke-opacity="1" stroke-miterlimit="10" d="M -0.00146604 -342.784607 L -0.00146604 -365.599685 " transform="matrix(0.99886, 0, 0, -0.99886, 86.642089, 48.285957)"/>
<path fill-rule="nonzero" fill="rgb(29.998779%, 29.998779%, 29.998779%)" fill-opacity="1" stroke-width="0.79701" stroke-linecap="butt" stroke-linejoin="miter" stroke="rgb(29.998779%, 29.998779%, 29.998779%)" stroke-opacity="1" stroke-miterlimit="10" d="M 5.441475 -0.00146604 L 1.288302 1.570639 L 2.664872 -0.00146604 L 1.288302 -1.56966 Z M 5.441475 -0.00146604 " transform="matrix(0, 0.99886, 0.99886, 0, 86.642089, 411.006136)"/>
<path fill-rule="nonzero" fill="rgb(100%, 100%, 100%)" fill-opacity="1" d="M 80.472656 407.609375 L 92.8125 407.609375 L 92.8125 400.644531 L 80.472656 400.644531 Z M 80.472656 407.609375 "/>
<g fill="rgb(0%, 0%, 0%)" fill-opacity="1">
<use xlink:href="#glyph-2-3" x="81.963431" y="406.111464"/>
<use xlink:href="#glyph-2-4" x="86.718264" y="406.111464"/>
</g>
</svg>
