<?xml version="1.0" encoding="UTF-8"?>
<svg role="img" xmlns="http://www.w3.org/2000/svg" xmlns:xlink="http://www.w3.org/1999/xlink" width="378.004pt" height="136.78pt" viewBox="0 0 378.004 136.78"><style data-diagram-theme>:root{--diagram-ink:#1A1A19;--diagram-paper:#FDFCF9;--diagram-grid:#B5B3AA}@media (prefers-color-scheme:dark){:root{--diagram-ink:#E8E5DD;--diagram-paper:#1A1816;--diagram-grid:#3A3632}}</style><style data-diagram-map>[fill="rgb(94.999695%, 94.999695%, 94.999695%)"]{fill:var(--diagram-paper, rgb(94.999695%, 94.999695%, 94.999695%))}[stroke="rgb(94.999695%, 94.999695%, 94.999695%)"]{stroke:var(--diagram-paper, rgb(94.999695%, 94.999695%, 94.999695%))}[fill="rgb(27.49939%, 27.49939%, 27.49939%)"]{fill:var(--diagram-ink, rgb(27.49939%, 27.49939%, 27.49939%))}[stroke="rgb(27.49939%, 27.49939%, 27.49939%)"]{stroke:var(--diagram-ink, rgb(27.49939%, 27.49939%, 27.49939%))}[fill="rgb(0%, 0%, 0%)"]{fill:var(--diagram-ink, rgb(0%, 0%, 0%))}[stroke="rgb(0%, 0%, 0%)"]{stroke:var(--diagram-ink, rgb(0%, 0%, 0%))}[fill="rgb(29.998779%, 29.998779%, 29.998779%)"]{fill:var(--diagram-ink, rgb(29.998779%, 29.998779%, 29.998779%))}[stroke="rgb(29.998779%, 29.998779%, 29.998779%)"]{stroke:var(--diagram-ink, rgb(29.998779%, 29.998779%, 29.998779%))}[fill="rgb(93.11676%, 89.588928%, 92.64679%)"]{fill:var(--diagram-paper, rgb(93.11676%, 89.588928%, 92.64679%))}[stroke="rgb(93.11676%, 89.588928%, 92.64679%)"]{stroke:var(--diagram-paper, rgb(93.11676%, 89.588928%, 92.64679%))}[fill="rgb(90.008545%, 92.658997%, 95.15686%)"]{fill:var(--diagram-paper, rgb(90.008545%, 92.658997%, 95.15686%))}[stroke="rgb(90.008545%, 92.658997%, 95.15686%)"]{stroke:var(--diagram-paper, rgb(90.008545%, 92.658997%, 95.15686%))}[fill="rgb(89.350891%, 92.411804%, 88.703918%)"]{fill:var(--diagram-paper, rgb(89.350891%, 92.411804%, 88.703918%))}[stroke="rgb(89.350891%, 92.411804%, 88.703918%)"]{stroke:var(--diagram-paper, rgb(89.350891%, 92.411804%, 88.703918%))}</style>
<defs>
<g>
<g id="glyph-0-0">
<path d="M 1.171875 -1.484375 C 1.171875 -2.234375 1.796875 -2.640625 2.40625 -2.640625 L 2.40625 -3.15625 C 1.828125 -3.15625 1.40625 -2.859375 1.125 -2.5 L 1.125 -3.140625 L 0.59375 -3.140625 L 0.59375 0 L 1.171875 0 Z M 1.171875 -1.484375 "/>
</g>
<g id="glyph-0-1">
<path d="M 2.984375 -0.765625 C 2.59375 -0.484375 2.15625 -0.390625 1.859375 -0.390625 C 1.265625 -0.390625 0.796875 -0.890625 0.78125 -1.515625 L 3.0625 -1.515625 C 3.0625 -1.84375 3.03125 -2.3125 2.75 -2.703125 C 2.5 -3.0625 2.09375 -3.1875 1.75 -3.1875 C 0.890625 -3.1875 0.25 -2.453125 0.25 -1.5625 C 0.25 -0.671875 0.9375 0.0625 1.859375 0.0625 C 2.265625 0.0625 2.671875 -0.046875 3.03125 -0.265625 Z M 0.828125 -1.9375 C 0.984375 -2.5 1.390625 -2.734375 1.75 -2.734375 C 2.046875 -2.734375 2.5 -2.59375 2.640625 -1.9375 Z M 0.828125 -1.9375 "/>
</g>
<g id="glyph-0-2">
<path d="M 2.96875 -2 C 2.96875 -2.71875 2.421875 -3.1875 1.734375 -3.1875 C 1.296875 -3.1875 0.953125 -3.09375 0.5625 -2.890625 L 0.609375 -2.390625 C 0.84375 -2.53125 1.1875 -2.75 1.734375 -2.75 C 2.03125 -2.75 2.359375 -2.515625 2.359375 -2 L 2.359375 -1.71875 C 1.328125 -1.6875 0.3125 -1.46875 0.3125 -0.828125 C 0.3125 -0.46875 0.546875 0.0625 1.15625 0.0625 C 1.453125 0.0625 2.015625 0 2.375 -0.265625 L 2.375 0 L 2.96875 0 Z M 2.359375 -0.984375 C 2.359375 -0.84375 2.359375 -0.671875 2.109375 -0.515625 C 1.890625 -0.390625 1.625 -0.390625 1.546875 -0.390625 C 1.15625 -0.390625 0.875 -0.5625 0.875 -0.828125 C 0.875 -1.265625 2.046875 -1.3125 2.359375 -1.328125 Z M 2.359375 -0.984375 "/>
</g>
<g id="glyph-0-3">
<path d="M 3.21875 -4.828125 L 2.640625 -4.828125 L 2.640625 -2.78125 C 2.1875 -3.109375 1.734375 -3.15625 1.53125 -3.15625 C 0.8125 -3.15625 0.25 -2.421875 0.25 -1.546875 C 0.25 -0.65625 0.796875 0.0625 1.515625 0.0625 C 1.953125 0.0625 2.34375 -0.125 2.609375 -0.359375 L 2.609375 0 L 3.21875 0 Z M 2.609375 -0.859375 C 2.4375 -0.578125 2.171875 -0.390625 1.84375 -0.390625 C 1.359375 -0.390625 0.859375 -0.734375 0.859375 -1.53125 C 0.859375 -2.40625 1.453125 -2.703125 1.921875 -2.703125 C 2.203125 -2.703125 2.4375 -2.578125 2.609375 -2.34375 Z M 2.609375 -0.859375 "/>
</g>
<g id="glyph-0-4">
<path d="M 3.03125 -1.578125 L 5.078125 -1.578125 C 5.171875 -1.578125 5.328125 -1.578125 5.328125 -1.734375 C 5.328125 -1.890625 5.171875 -1.890625 5.078125 -1.890625 L 3.03125 -1.890625 L 3.03125 -3.953125 C 3.03125 -4.046875 3.03125 -4.203125 2.875 -4.203125 C 2.71875 -4.203125 2.71875 -4.046875 2.71875 -3.953125 L 2.71875 -1.890625 L 0.65625 -1.890625 C 0.5625 -1.890625 0.40625 -1.890625 0.40625 -1.734375 C 0.40625 -1.578125 0.5625 -1.578125 0.65625 -1.578125 L 2.71875 -1.578125 L 2.71875 0.46875 C 2.71875 0.5625 2.71875 0.71875 2.875 0.71875 C 3.03125 0.71875 3.03125 0.5625 3.03125 0.46875 Z M 3.03125 -1.578125 "/>
</g>
<g id="glyph-0-5">
<path d="M 1.21875 -4.765625 L 0.515625 -4.765625 L 0.515625 -4.0625 L 1.21875 -4.0625 Z M 1.171875 -3.09375 L 0.578125 -3.09375 L 0.578125 0 L 1.171875 0 Z M 1.171875 -3.09375 "/>
</g>
<g id="glyph-0-6">
<path d="M 1.3125 -2.65625 L 2.34375 -2.65625 L 2.34375 -3.09375 L 1.3125 -3.09375 L 1.3125 -3.96875 L 0.765625 -3.96875 L 0.765625 -3.09375 L 0.140625 -3.09375 L 0.140625 -2.65625 L 0.75 -2.65625 L 0.75 -0.890625 C 0.75 -0.421875 0.875 0.0625 1.375 0.0625 C 1.875 0.0625 2.25 -0.09375 2.46875 -0.1875 L 2.34375 -0.625 C 2.109375 -0.46875 1.875 -0.40625 1.671875 -0.40625 C 1.390625 -0.40625 1.3125 -0.703125 1.3125 -1.015625 Z M 1.3125 -2.65625 "/>
</g>
<g id="glyph-0-7">
<path d="M 3.375 -4.828125 L 2.75 -4.828125 L 2.75 -4.203125 L 3.375 -4.203125 Z M 3.359375 -3.09375 L 2.78125 -3.09375 L 2.78125 0 L 3.359375 0 Z M 1.328125 -2.65625 L 2.171875 -2.65625 L 2.171875 -3.09375 L 1.296875 -3.09375 L 1.296875 -3.90625 C 1.296875 -4.34375 1.5625 -4.4375 1.734375 -4.4375 C 1.84375 -4.4375 2.015625 -4.40625 2.171875 -4.296875 L 2.171875 -4.828125 C 2.15625 -4.828125 1.953125 -4.890625 1.734375 -4.890625 C 1.203125 -4.890625 0.734375 -4.421875 0.734375 -3.703125 L 0.734375 -3.09375 L 0.203125 -3.09375 L 0.203125 -2.65625 L 0.734375 -2.65625 L 0.734375 0 L 1.328125 0 Z M 1.328125 -2.65625 "/>
</g>
<g id="glyph-0-8">
<path d="M 1.171875 -4.828125 L 0.578125 -4.828125 L 0.578125 0 L 1.171875 0 Z M 1.171875 -4.828125 "/>
</g>
<g id="glyph-0-9">
<path d="M 2.234375 -4.703125 L 2.078125 -4.703125 C 1.625 -4.296875 1.0625 -4.265625 0.640625 -4.25 L 0.640625 -3.8125 C 0.90625 -3.8125 1.265625 -3.828125 1.609375 -3.96875 L 1.609375 -0.4375 L 0.6875 -0.4375 L 0.6875 0 L 3.15625 0 L 3.15625 -0.4375 L 2.234375 -0.4375 Z M 2.234375 -4.703125 "/>
</g>
<g id="glyph-0-10">
<path d="M 1.96875 -0.53125 C 1.890625 -0.53125 1.796875 -0.53125 1.71875 -0.53125 L 0.921875 -0.53125 L 2 -1.484375 C 2.125 -1.59375 2.46875 -1.84375 2.59375 -1.953125 C 2.90625 -2.234375 3.3125 -2.59375 3.3125 -3.203125 C 3.3125 -3.984375 2.734375 -4.703125 1.734375 -4.703125 C 1 -4.703125 0.546875 -4.3125 0.3125 -3.609375 L 0.625 -3.1875 C 0.796875 -3.78125 1.03125 -4.234375 1.640625 -4.234375 C 2.21875 -4.234375 2.671875 -3.8125 2.671875 -3.1875 C 2.671875 -2.609375 2.328125 -2.28125 1.90625 -1.890625 C 1.765625 -1.75 1.390625 -1.4375 1.25 -1.296875 C 1.046875 -1.125 0.5625 -0.65625 0.375 -0.484375 L 0.375 0 L 3.3125 0 L 3.3125 -0.53125 Z M 1.96875 -0.53125 "/>
</g>
<g id="glyph-0-11">
<path d="M 0.703125 -3.5625 C 0.984375 -4.125 1.484375 -4.28125 1.8125 -4.28125 C 2.21875 -4.28125 2.53125 -4.046875 2.53125 -3.640625 C 2.53125 -3.28125 2.28125 -2.828125 1.75 -2.734375 C 1.71875 -2.71875 1.6875 -2.71875 1.234375 -2.6875 L 1.234375 -2.234375 L 1.765625 -2.234375 C 2.4375 -2.234375 2.671875 -1.703125 2.671875 -1.265625 C 2.671875 -0.734375 2.34375 -0.3125 1.796875 -0.3125 C 1.3125 -0.3125 0.75 -0.546875 0.390625 -1 L 0.3125 -0.546875 C 0.703125 -0.09375 1.265625 0.140625 1.8125 0.140625 C 2.71875 0.140625 3.375 -0.53125 3.375 -1.265625 C 3.375 -1.828125 2.921875 -2.296875 2.375 -2.453125 C 2.90625 -2.71875 3.171875 -3.1875 3.171875 -3.640625 C 3.171875 -4.234375 2.5625 -4.703125 1.828125 -4.703125 C 1.203125 -4.703125 0.703125 -4.390625 0.40625 -3.96875 Z M 0.703125 -3.5625 "/>
</g>
<g id="glyph-0-12">
<path d="M 1.328125 -0.625 L 0.703125 -0.625 L 0.703125 0 L 1.328125 0 Z M 1.328125 -0.625 "/>
</g>
<g id="glyph-0-13">
<path d="M 3.03125 -0.765625 C 2.671875 -0.53125 2.296875 -0.40625 1.875 -0.40625 C 1.234375 -0.40625 0.859375 -0.921875 0.859375 -1.546875 C 0.859375 -2.09375 1.140625 -2.71875 1.890625 -2.71875 C 2.359375 -2.71875 2.59375 -2.609375 2.9375 -2.390625 L 3.03125 -2.890625 C 2.609375 -3.09375 2.4375 -3.1875 1.890625 -3.1875 C 0.84375 -3.1875 0.25 -2.34375 0.25 -1.546875 C 0.25 -0.703125 0.921875 0.0625 1.859375 0.0625 C 2.34375 0.0625 2.765625 -0.078125 3.0625 -0.25 Z M 3.03125 -0.765625 "/>
</g>
<g id="glyph-0-14">
<path d="M 3.484375 -1.515625 C 3.484375 -2.4375 2.75 -3.1875 1.84375 -3.1875 C 0.9375 -3.1875 0.203125 -2.4375 0.203125 -1.515625 C 0.203125 -0.640625 0.953125 0.0625 1.84375 0.0625 C 2.75 0.0625 3.484375 -0.640625 3.484375 -1.515625 Z M 1.84375 -0.40625 C 1.296875 -0.40625 0.8125 -0.8125 0.8125 -1.59375 C 0.8125 -2.390625 1.328125 -2.734375 1.84375 -2.734375 C 2.359375 -2.734375 2.875 -2.375 2.875 -1.59375 C 2.875 -0.8125 2.375 -0.40625 1.84375 -0.40625 Z M 1.84375 -0.40625 "/>
</g>
<g id="glyph-0-15">
<path d="M 3.234375 -2.0625 C 3.234375 -2.59375 3.078125 -3.15625 2.21875 -3.15625 C 1.828125 -3.15625 1.4375 -3 1.140625 -2.625 L 1.140625 -3.140625 L 0.578125 -3.140625 L 0.578125 0 L 1.1875 0 L 1.1875 -1.6875 C 1.1875 -2.15625 1.375 -2.703125 1.90625 -2.703125 C 2.625 -2.703125 2.625 -2.21875 2.625 -2.015625 L 2.625 0 L 3.234375 0 Z M 3.234375 -2.0625 "/>
</g>
<g id="glyph-0-16">
<path d="M 1.921875 -1.59375 L 3.28125 -3.09375 L 2.65625 -3.09375 L 1.671875 -1.953125 L 0.671875 -3.09375 L 0.046875 -3.09375 L 1.4375 -1.59375 L 0 0 L 0.625 0 L 1.671875 -1.3125 L 2.78125 0 L 3.40625 0 Z M 1.921875 -1.59375 "/>
</g>
<g id="glyph-0-17">
<path d="M 1.328125 -2.65625 L 2.171875 -2.65625 L 2.171875 -3.09375 L 1.296875 -3.09375 L 1.296875 -3.90625 C 1.296875 -4.3125 1.53125 -4.4375 1.734375 -4.4375 C 1.953125 -4.4375 2.125 -4.34375 2.171875 -4.3125 L 2.171875 -4.828125 C 2.15625 -4.828125 1.953125 -4.890625 1.734375 -4.890625 C 1.203125 -4.890625 0.734375 -4.421875 0.734375 -3.703125 L 0.734375 -3.09375 L 0.203125 -3.09375 L 0.203125 -2.65625 L 0.734375 -2.65625 L 0.734375 0 L 1.328125 0 Z M 3.359375 -4.828125 L 2.78125 -4.828125 L 2.78125 0 L 3.359375 0 Z M 3.359375 -4.828125 "/>
</g>
<g id="glyph-0-18">
<path d="M 2.53125 -2.96875 C 2.0625 -3.171875 1.71875 -3.1875 1.46875 -3.1875 C 1.296875 -3.1875 0.25 -3.1875 0.25 -2.265625 C 0.25 -1.9375 0.421875 -1.765625 0.515625 -1.671875 C 0.765625 -1.4375 1.046875 -1.375 1.421875 -1.3125 C 1.75 -1.25 2.125 -1.171875 2.125 -0.84375 C 2.125 -0.40625 1.546875 -0.40625 1.453125 -0.40625 C 1 -0.40625 0.578125 -0.5625 0.3125 -0.765625 L 0.203125 -0.234375 C 0.4375 -0.125 0.875 0.0625 1.453125 0.0625 C 1.765625 0.0625 2.0625 0.015625 2.328125 -0.171875 C 2.578125 -0.359375 2.65625 -0.671875 2.65625 -0.90625 C 2.65625 -1.03125 2.65625 -1.296875 2.359375 -1.5625 C 2.09375 -1.796875 1.84375 -1.84375 1.515625 -1.90625 C 1.109375 -1.984375 0.78125 -2.046875 0.78125 -2.34375 C 0.78125 -2.75 1.296875 -2.75 1.390625 -2.75 C 1.796875 -2.75 2.09375 -2.65625 2.453125 -2.484375 Z M 2.53125 -2.96875 "/>
</g>
<g id="glyph-0-19">
<path d="M 3.296875 -3.09375 L 2.734375 -3.09375 C 2.171875 -1.765625 1.78125 -0.859375 1.75 -0.4375 C 1.734375 -0.625 1.609375 -0.984375 1.484375 -1.3125 C 1.375 -1.578125 1.265625 -1.859375 1.140625 -2.140625 L 0.703125 -3.09375 L 0.109375 -3.09375 L 1.546875 0 C 1.453125 0.203125 1.328125 0.515625 1.28125 0.609375 C 1.140625 0.90625 1.03125 1 0.84375 1 C 0.828125 1 0.5625 1 0.265625 0.875 L 0.3125 1.359375 C 0.375 1.375 0.625 1.421875 0.84375 1.421875 C 1.125 1.421875 1.375 1.3125 1.65625 0.640625 Z M 3.296875 -3.09375 "/>
</g>
<g id="glyph-0-20">
<path d="M 3.234375 -2.0625 C 3.234375 -2.59375 3.078125 -3.15625 2.21875 -3.15625 C 1.625 -3.15625 1.296875 -2.8125 1.15625 -2.65625 L 1.15625 -4.828125 L 0.578125 -4.828125 L 0.578125 0 L 1.1875 0 L 1.1875 -1.6875 C 1.1875 -2.15625 1.375 -2.703125 1.90625 -2.703125 C 2.625 -2.703125 2.625 -2.21875 2.625 -2.015625 L 2.625 0 L 3.234375 0 Z M 3.234375 -2.0625 "/>
</g>
<g id="glyph-0-21">
<path d="M 1.203125 -0.328125 C 1.5625 0 1.953125 0.0625 2.203125 0.0625 C 2.9375 0.0625 3.5625 -0.625 3.5625 -1.546875 C 3.5625 -2.390625 3.09375 -3.15625 2.40625 -3.15625 C 2.09375 -3.15625 1.578125 -3.0625 1.171875 -2.75 L 1.171875 -3.09375 L 0.59375 -3.09375 L 0.59375 1.34375 L 1.203125 1.34375 Z M 1.203125 -2.3125 C 1.359375 -2.5 1.625 -2.671875 1.953125 -2.671875 C 2.515625 -2.671875 2.953125 -2.15625 2.953125 -1.546875 C 2.953125 -0.859375 2.4375 -0.390625 1.890625 -0.390625 C 1.78125 -0.390625 1.609375 -0.40625 1.4375 -0.546875 C 1.21875 -0.703125 1.203125 -0.8125 1.203125 -0.953125 Z M 1.203125 -2.3125 "/>
</g>
<g id="glyph-0-22">
<path d="M 3.234375 -3.09375 L 2.625 -3.09375 L 2.625 -1.078125 C 2.625 -0.515625 2.15625 -0.34375 1.75 -0.34375 C 1.234375 -0.34375 1.1875 -0.484375 1.1875 -0.796875 L 1.1875 -3.09375 L 0.578125 -3.09375 L 0.578125 -0.765625 C 0.578125 -0.140625 0.84375 0.0625 1.328125 0.0625 C 1.625 0.0625 2.234375 0.015625 2.65625 -0.3125 L 2.65625 0 L 3.234375 0 Z M 3.234375 -3.09375 "/>
</g>
<g id="glyph-1-0">
<path d="M 6.546875 -3.0625 C 6.546875 -4.859375 5.890625 -6.40625 3.546875 -6.40625 C 1.078125 -6.40625 0.546875 -4.6875 0.546875 -3.0625 C 0.546875 -1.390625 1.125 0.203125 3.546875 0.203125 C 5.84375 0.203125 6.546875 -1.21875 6.546875 -3.0625 Z M 3.546875 -0.515625 C 1.859375 -0.515625 1.859375 -2.390625 1.859375 -3.203125 C 1.859375 -3.984375 1.859375 -5.703125 3.546875 -5.703125 C 5.234375 -5.703125 5.234375 -4 5.234375 -3.203125 C 5.234375 -2.40625 5.234375 -0.515625 3.546875 -0.515625 Z M 3.546875 -0.515625 "/>
</g>
<g id="glyph-1-1">
<path d="M 4.46875 -2.90625 C 4.46875 -3.828125 4.078125 -4.1875 3.15625 -4.1875 C 2.21875 -4.1875 1.828125 -3.515625 1.703125 -3.265625 L 1.703125 -3.71875 C 1.703125 -4 1.640625 -4.140625 1.265625 -4.140625 L 0.96875 -4.140625 C 0.640625 -4.140625 0.53125 -4.046875 0.53125 -3.71875 L 0.53125 -0.421875 C 0.53125 -0.109375 0.640625 0 0.96875 0 L 1.328125 0 C 1.65625 0 1.75 -0.109375 1.75 -0.421875 L 1.75 -2.40625 C 1.75 -3.1875 2.265625 -3.546875 2.734375 -3.546875 C 3.15625 -3.546875 3.25 -3.34375 3.25 -2.890625 L 3.25 -0.421875 C 3.25 -0.140625 3.3125 0 3.6875 0 L 4.046875 0 C 4.375 0 4.46875 -0.109375 4.46875 -0.421875 Z M 4.46875 -2.90625 "/>
</g>
<g id="glyph-1-2">
<path d="M 3.859375 -1.90625 C 4.0625 -1.90625 4.28125 -1.921875 4.28125 -2.328125 C 4.28125 -3.484375 3.75 -4.25 2.40625 -4.25 C 0.984375 -4.25 0.28125 -3.4375 0.28125 -2.078125 C 0.28125 -0.609375 1.125 0.09375 2.53125 0.09375 C 2.875 0.09375 3.375 0.046875 3.96875 -0.234375 C 4.171875 -0.34375 4.234375 -0.359375 4.234375 -0.46875 C 4.234375 -0.53125 4.203125 -0.796875 4.1875 -0.859375 C 4.15625 -1.140625 4.140625 -1.15625 4.0625 -1.15625 C 4.03125 -1.15625 4.015625 -1.15625 3.921875 -1.0625 C 3.390625 -0.609375 2.84375 -0.546875 2.5625 -0.546875 C 1.5625 -0.546875 1.453125 -1.34375 1.421875 -1.90625 Z M 1.4375 -2.390625 C 1.453125 -2.9375 1.640625 -3.609375 2.40625 -3.609375 C 3.125 -3.609375 3.265625 -3.078125 3.28125 -2.390625 Z M 1.4375 -2.390625 "/>
</g>
<g id="glyph-1-3">
<path d="M 4.078125 -0.453125 C 4.078125 -0.546875 4.046875 -0.953125 4.03125 -1.078125 C 4.03125 -1.09375 4.015625 -1.1875 3.921875 -1.1875 C 3.890625 -1.1875 3.875 -1.1875 3.78125 -1.09375 C 3.625 -0.96875 3.203125 -0.59375 2.46875 -0.59375 C 1.546875 -0.59375 1.546875 -1.5 1.546875 -2.078125 C 1.546875 -2.796875 1.59375 -3.546875 2.5 -3.546875 C 3.078125 -3.546875 3.328125 -3.40625 3.640625 -3.140625 C 3.75 -3.03125 3.765625 -3.03125 3.8125 -3.03125 C 3.890625 -3.03125 3.921875 -3.125 3.921875 -3.15625 C 3.9375 -3.21875 4.03125 -3.734375 4.03125 -3.765625 C 4.03125 -3.859375 3.96875 -3.890625 3.8125 -3.953125 C 3.390625 -4.15625 3.125 -4.25 2.5 -4.25 C 1.15625 -4.25 0.328125 -3.625 0.328125 -2.0625 C 0.328125 -0.578125 1.09375 0.09375 2.453125 0.09375 C 2.6875 0.09375 3.21875 0.09375 3.828125 -0.21875 C 4.078125 -0.34375 4.078125 -0.359375 4.078125 -0.453125 Z M 4.078125 -0.453125 "/>
</g>
<g id="glyph-1-4">
<path d="M 4.625 -2.015625 C 4.625 -3.484375 3.921875 -4.25 2.453125 -4.25 C 0.96875 -4.25 0.28125 -3.453125 0.28125 -2.015625 C 0.28125 -0.546875 1.046875 0.09375 2.453125 0.09375 C 3.859375 0.09375 4.625 -0.546875 4.625 -2.015625 Z M 2.453125 -0.59375 C 1.5 -0.59375 1.5 -1.40625 1.5 -2.125 C 1.5 -2.8125 1.5 -3.609375 2.453125 -3.609375 C 3.421875 -3.609375 3.421875 -2.8125 3.421875 -2.125 C 3.421875 -1.40625 3.421875 -0.59375 2.453125 -0.59375 Z M 2.453125 -0.59375 "/>
</g>
<g id="glyph-1-5">
<path d="M 4.1875 -3.671875 C 4.234375 -3.796875 4.234375 -3.8125 4.234375 -3.84375 C 4.234375 -4.09375 4 -4.09375 3.875 -4.09375 L 3.6875 -4.09375 C 3.3125 -4.09375 3.203125 -3.953125 3.125 -3.703125 L 2.25 -1.015625 L 1.359375 -3.703125 C 1.296875 -3.890625 1.234375 -4.09375 0.796875 -4.09375 L 0.59375 -4.09375 C 0.453125 -4.09375 0.234375 -4.09375 0.234375 -3.84375 C 0.234375 -3.8125 0.234375 -3.796875 0.28125 -3.671875 L 1.34375 -0.375 C 1.46875 0 1.75 0 1.90625 0 L 2.5625 0 C 2.71875 0 3 0 3.125 -0.375 Z M 4.1875 -3.671875 "/>
</g>
<g id="glyph-1-6">
<path d="M 1.734375 -2.0625 C 1.734375 -2.90625 2.4375 -3.25 3 -3.28125 C 3.15625 -3.296875 3.1875 -3.296875 3.1875 -3.53125 L 3.1875 -3.953125 C 3.1875 -4.125 3.1875 -4.1875 3.015625 -4.1875 C 2.765625 -4.1875 2.125 -4.109375 1.703125 -3.140625 L 1.6875 -3.140625 L 1.6875 -3.71875 C 1.6875 -4 1.625 -4.140625 1.265625 -4.140625 L 0.96875 -4.140625 C 0.65625 -4.140625 0.546875 -4.046875 0.546875 -3.71875 L 0.546875 -0.421875 C 0.546875 -0.109375 0.640625 0 0.96875 0 L 1.3125 0 C 1.640625 0 1.734375 -0.109375 1.734375 -0.421875 Z M 1.734375 -2.0625 "/>
</g>
<g id="glyph-1-7">
<path d="M 3.546875 -1.265625 C 3.546875 -1.765625 3.265625 -2.078125 3.109375 -2.21875 C 2.75 -2.53125 2.4375 -2.59375 2.0625 -2.65625 C 1.578125 -2.75 1.21875 -2.828125 1.21875 -3.171875 C 1.21875 -3.546875 1.515625 -3.609375 1.859375 -3.609375 C 2.453125 -3.609375 2.78125 -3.390625 3.015625 -3.1875 C 3.09375 -3.09375 3.125 -3.09375 3.15625 -3.09375 C 3.25 -3.09375 3.265625 -3.1875 3.265625 -3.21875 C 3.28125 -3.28125 3.375 -3.796875 3.375 -3.828125 C 3.375 -3.984375 2.90625 -4.109375 2.8125 -4.140625 C 2.453125 -4.234375 2.15625 -4.25 1.9375 -4.25 C 1.53125 -4.25 0.328125 -4.25 0.328125 -2.96875 C 0.328125 -2.53125 0.53125 -2.265625 0.765625 -2.046875 C 1.078125 -1.765625 1.4375 -1.703125 1.9375 -1.59375 C 2.203125 -1.5625 2.65625 -1.46875 2.65625 -1.078125 C 2.65625 -0.65625 2.3125 -0.59375 1.953125 -0.59375 C 1.5625 -0.59375 1.0625 -0.71875 0.640625 -1.21875 C 0.59375 -1.265625 0.578125 -1.28125 0.515625 -1.28125 C 0.421875 -1.28125 0.40625 -1.203125 0.40625 -1.15625 C 0.390625 -1.03125 0.28125 -0.515625 0.28125 -0.421875 C 0.28125 -0.265625 0.9375 -0.0625 0.953125 -0.046875 C 1.4375 0.09375 1.8125 0.09375 1.953125 0.09375 C 2.40625 0.09375 3.546875 0.0625 3.546875 -1.265625 Z M 3.546875 -1.265625 "/>
</g>
<g id="glyph-1-8">
<path d="M 4.140625 -2.828125 C 4.140625 -4.234375 2.78125 -4.25 2.34375 -4.25 C 1.921875 -4.25 1.46875 -4.203125 0.875 -3.953125 C 0.6875 -3.875 0.640625 -3.859375 0.640625 -3.75 C 0.640625 -3.6875 0.703125 -3.171875 0.703125 -3.09375 C 0.71875 -3.046875 0.765625 -3 0.828125 -3 C 0.859375 -3 0.890625 -3.03125 0.921875 -3.0625 C 1.3125 -3.453125 1.75 -3.65625 2.3125 -3.65625 C 2.78125 -3.65625 2.9375 -3.359375 2.9375 -2.828125 L 2.9375 -2.515625 C 2.625 -2.515625 0.28125 -2.5 0.28125 -1.1875 C 0.28125 -0.5625 0.78125 0.09375 1.5625 0.09375 C 1.875 0.09375 2.53125 0.015625 2.953125 -0.609375 L 2.953125 -0.421875 C 2.953125 -0.140625 3.015625 0 3.390625 0 L 3.71875 0 C 4.0625 0 4.140625 -0.109375 4.140625 -0.421875 Z M 2.9375 -1.375 C 2.9375 -0.546875 2.078125 -0.546875 2.0625 -0.546875 C 1.6875 -0.546875 1.4375 -0.859375 1.4375 -1.203125 C 1.4375 -2.078125 2.6875 -2.140625 2.9375 -2.15625 Z M 2.9375 -1.375 "/>
</g>
<g id="glyph-1-9">
<path d="M 1.953125 -3.453125 L 2.75 -3.453125 C 2.84375 -3.453125 3.171875 -3.453125 3.171875 -3.765625 C 3.171875 -4.09375 2.84375 -4.09375 2.75 -4.09375 L 1.953125 -4.09375 L 1.953125 -4.828125 C 1.953125 -5.125 1.890625 -5.265625 1.515625 -5.265625 L 1.25 -5.265625 C 0.921875 -5.265625 0.8125 -5.171875 0.8125 -4.828125 L 0.8125 -4.09375 L 0.609375 -4.09375 C 0.515625 -4.09375 0.171875 -4.09375 0.171875 -3.765625 C 0.171875 -3.453125 0.5 -3.453125 0.609375 -3.453125 L 0.78125 -3.453125 L 0.78125 -1.1875 C 0.78125 -0.28125 1.109375 0.09375 1.71875 0.09375 C 1.8125 0.09375 2.203125 0.09375 2.65625 -0.046875 C 2.8125 -0.09375 3.328125 -0.25 3.328125 -0.421875 C 3.328125 -0.453125 3.3125 -0.515625 3.265625 -0.703125 C 3.21875 -0.875 3.203125 -0.921875 3.125 -0.921875 C 3.078125 -0.921875 3.0625 -0.921875 3.015625 -0.859375 C 2.90625 -0.796875 2.671875 -0.59375 2.296875 -0.59375 C 2.078125 -0.59375 1.953125 -0.75 1.953125 -1.34375 Z M 1.953125 -3.453125 "/>
</g>
<g id="glyph-1-10">
<path d="M 0.90625 -6.21875 C 0.625 -6.21875 0.484375 -6.15625 0.484375 -5.796875 L 0.484375 -5.390625 C 0.484375 -5.109375 0.578125 -4.984375 0.90625 -4.984375 L 1.375 -4.984375 C 1.796875 -4.984375 1.796875 -5.171875 1.796875 -5.59375 C 1.796875 -6.03125 1.796875 -6.21875 1.375 -6.21875 Z M 1.734375 -3.671875 C 1.734375 -3.953125 1.671875 -4.09375 1.3125 -4.09375 L 0.96875 -4.09375 C 0.65625 -4.09375 0.546875 -4 0.546875 -3.671875 L 0.546875 -0.421875 C 0.546875 -0.109375 0.640625 0 0.96875 0 L 1.3125 0 C 1.640625 0 1.734375 -0.109375 1.734375 -0.421875 Z M 1.734375 -3.671875 "/>
</g>
<g id="glyph-1-11">
<path d="M 1.765625 -0.34375 C 2.15625 0.09375 2.65625 0.09375 2.78125 0.09375 C 4.671875 0.09375 4.671875 -1.625 4.671875 -2.0625 C 4.671875 -2.5 4.671875 -4.1875 3.0625 -4.1875 C 2.53125 -4.1875 2.0625 -3.984375 1.734375 -3.671875 C 1.734375 -4 1.609375 -4.09375 1.3125 -4.09375 L 0.96875 -4.09375 C 0.65625 -4.09375 0.546875 -4 0.546875 -3.671875 L 0.546875 1.3125 C 0.546875 1.625 0.640625 1.734375 0.96875 1.734375 L 1.328125 1.734375 C 1.671875 1.734375 1.765625 1.625 1.765625 1.3125 Z M 1.765625 -3.203125 C 1.859375 -3.28125 2.15625 -3.5 2.53125 -3.5 C 3.453125 -3.5 3.453125 -2.4375 3.453125 -2.046875 C 3.453125 -1.6875 3.453125 -0.546875 2.453125 -0.546875 C 2.25 -0.546875 2.078125 -0.609375 1.96875 -0.703125 C 1.765625 -0.84375 1.765625 -0.890625 1.765625 -1.046875 Z M 1.765625 -3.203125 "/>
</g>
<g id="glyph-1-12">
<path d="M 1.25 -6.203125 C 0.921875 -6.203125 0.8125 -6.109375 0.8125 -5.78125 L 0.8125 -0.421875 C 0.8125 -0.109375 0.90625 0 1.25 0 L 3.609375 0 C 5.78125 0 6.546875 -1.3125 6.546875 -3.0625 C 6.546875 -3.765625 6.421875 -4.625 5.921875 -5.265625 C 5.25 -6.09375 4.1875 -6.203125 3.609375 -6.203125 Z M 2.09375 -0.765625 L 2.09375 -5.4375 L 3.25 -5.4375 C 5.171875 -5.4375 5.25 -4.0625 5.25 -3.0625 C 5.25 -2.046875 5.15625 -0.765625 3.25 -0.765625 Z M 2.09375 -0.765625 "/>
</g>
<g id="glyph-1-13">
<path d="M 4.1875 -3.671875 C 4.234375 -3.796875 4.234375 -3.8125 4.234375 -3.859375 C 4.234375 -4.09375 3.984375 -4.09375 3.875 -4.09375 L 3.671875 -4.09375 C 3.53125 -4.09375 3.328125 -4.09375 3.203125 -3.890625 C 3.171875 -3.84375 2.453125 -1.875 2.40625 -1.265625 L 2.390625 -1.265625 C 2.34375 -1.703125 1.984375 -2.53125 1.59375 -3.390625 C 1.34375 -3.953125 1.28125 -4.09375 0.84375 -4.09375 L 0.609375 -4.09375 C 0.484375 -4.09375 0.265625 -4.09375 0.265625 -3.859375 C 0.265625 -3.828125 0.28125 -3.765625 0.296875 -3.71875 L 2 0 C 1.921875 0.1875 1.890625 0.28125 1.875 0.375 C 1.765625 0.671875 1.609375 1.078125 1.125 1.078125 C 0.828125 1.078125 0.625 0.953125 0.53125 0.890625 C 0.484375 0.859375 0.46875 0.84375 0.4375 0.84375 C 0.390625 0.84375 0.328125 0.875 0.328125 0.984375 C 0.328125 1.046875 0.375 1.671875 0.40625 1.703125 C 0.484375 1.8125 0.96875 1.828125 1.109375 1.828125 C 2.21875 1.828125 2.65625 0.78125 2.71875 0.5625 Z M 4.1875 -3.671875 "/>
</g>
<g id="glyph-1-14">
<path d="M 7.203125 -2.90625 C 7.203125 -3.828125 6.8125 -4.1875 5.90625 -4.1875 C 5.265625 -4.1875 4.765625 -3.890625 4.453125 -3.3125 C 4.3125 -4.171875 3.546875 -4.1875 3.171875 -4.1875 C 3 -4.1875 2.625 -4.1875 2.21875 -3.890625 C 1.953125 -3.6875 1.765625 -3.40625 1.703125 -3.265625 L 1.703125 -3.71875 C 1.703125 -4 1.640625 -4.140625 1.265625 -4.140625 L 0.96875 -4.140625 C 0.640625 -4.140625 0.53125 -4.046875 0.53125 -3.71875 L 0.53125 -0.421875 C 0.53125 -0.109375 0.640625 0 0.96875 0 L 1.328125 0 C 1.65625 0 1.75 -0.109375 1.75 -0.421875 L 1.75 -2.40625 C 1.75 -3.203125 2.296875 -3.546875 2.734375 -3.546875 C 3.15625 -3.546875 3.265625 -3.359375 3.265625 -2.890625 L 3.265625 -0.421875 C 3.265625 -0.109375 3.359375 0 3.6875 0 L 4.046875 0 C 4.390625 0 4.484375 -0.109375 4.484375 -0.421875 L 4.484375 -2.40625 C 4.484375 -3.203125 5.015625 -3.546875 5.453125 -3.546875 C 5.890625 -3.546875 5.984375 -3.359375 5.984375 -2.890625 L 5.984375 -0.421875 C 5.984375 -0.109375 6.09375 0 6.421875 0 L 6.78125 0 C 7.109375 0 7.203125 -0.109375 7.203125 -0.421875 Z M 7.203125 -2.90625 "/>
</g>
<g id="glyph-1-15">
<path d="M 6.421875 -3.84375 C 6.40625 -4.09375 6.234375 -4.09375 5.96875 -4.09375 C 5.546875 -4.09375 5.4375 -4.0625 5.3125 -3.609375 C 5.109375 -2.90625 4.71875 -1.515625 4.578125 -1.015625 L 3.828125 -3.6875 C 3.765625 -3.890625 3.703125 -4.09375 3.296875 -4.09375 C 3.15625 -4.09375 2.953125 -4.09375 2.828125 -3.890625 C 2.75 -3.75 2.359375 -2.203125 2.046875 -1.15625 L 1.328125 -3.6875 C 1.25 -4 1.140625 -4.09375 0.78125 -4.09375 L 0.59375 -4.09375 C 0.421875 -4.09375 0.234375 -4.09375 0.21875 -3.84375 L 1.15625 -0.40625 C 1.28125 0 1.515625 0 1.734375 0 L 1.984375 0 C 2.40625 0 2.46875 -0.140625 2.578125 -0.484375 C 2.78125 -1.234375 3.09375 -2.359375 3.140625 -2.828125 C 3.203125 -2.328125 3.59375 -0.90625 3.703125 -0.484375 C 3.8125 -0.171875 3.859375 0 4.296875 0 L 4.90625 0 C 5.296875 0 5.375 -0.109375 5.46875 -0.40625 Z M 6.421875 -3.84375 "/>
</g>
<g id="glyph-1-16">
<path d="M 2.796875 -2.4375 L 4.171875 -3.703125 C 4.28125 -3.8125 4.3125 -3.828125 4.3125 -3.90625 C 4.3125 -4.09375 4.125 -4.09375 4 -4.09375 L 3.484375 -4.09375 C 3.328125 -4.09375 3.15625 -4.09375 2.953125 -3.90625 L 1.65625 -2.703125 L 1.65625 -5.78125 C 1.65625 -6.0625 1.59375 -6.203125 1.234375 -6.203125 L 1.046875 -6.203125 C 0.71875 -6.203125 0.609375 -6.109375 0.609375 -5.78125 L 0.609375 -0.421875 C 0.609375 -0.109375 0.71875 0 1.046875 0 L 1.203125 0 C 1.546875 0 1.640625 -0.109375 1.640625 -0.421875 L 1.640625 -1.359375 L 2.0625 -1.75 L 3.21875 -0.21875 C 3.375 -0.03125 3.4375 0 3.6875 0 L 4.125 0 C 4.25 0 4.4375 0 4.4375 -0.203125 C 4.4375 -0.21875 4.4375 -0.28125 4.359375 -0.390625 Z M 2.796875 -2.4375 "/>
</g>
<g id="glyph-1-17">
<path d="M 1.953125 -3.453125 L 2.46875 -3.453125 C 2.578125 -3.453125 2.890625 -3.453125 2.890625 -3.765625 C 2.890625 -4.09375 2.578125 -4.09375 2.46875 -4.09375 L 1.9375 -4.09375 L 1.9375 -5.109375 C 1.9375 -5.359375 1.953125 -5.65625 2.21875 -5.65625 C 2.515625 -5.65625 2.625 -5.484375 2.65625 -5.421875 C 2.703125 -5.359375 2.71875 -5.3125 2.78125 -5.3125 C 2.890625 -5.3125 2.890625 -5.40625 2.890625 -5.546875 L 2.890625 -5.96875 C 2.890625 -6.171875 2.890625 -6.1875 2.671875 -6.234375 C 2.453125 -6.296875 2.34375 -6.296875 2.203125 -6.296875 C 1.28125 -6.296875 0.765625 -5.8125 0.765625 -4.828125 L 0.765625 -4.09375 C 0.578125 -4.09375 0.265625 -4.09375 0.265625 -3.765625 C 0.265625 -3.453125 0.578125 -3.453125 0.765625 -3.453125 L 0.765625 -0.421875 C 0.765625 -0.109375 0.859375 0 1.203125 0 L 1.53125 0 C 1.875 0 1.953125 -0.109375 1.953125 -0.421875 Z M 4.6875 -5.78125 C 4.6875 -6.0625 4.625 -6.203125 4.25 -6.203125 L 3.921875 -6.203125 C 3.578125 -6.203125 3.5 -6.09375 3.5 -5.78125 L 3.5 -0.421875 C 3.5 -0.140625 3.5625 0 3.921875 0 L 4.25 0 C 4.59375 0 4.6875 -0.109375 4.6875 -0.421875 Z M 4.6875 -5.78125 "/>
</g>
<g id="glyph-2-0">
<path d="M 4.09375 -5.65625 C 4.171875 -5.796875 4.171875 -5.796875 4.171875 -5.859375 C 4.171875 -6.0625 4 -6.203125 3.828125 -6.203125 C 3.625 -6.203125 3.546875 -6.03125 3.5 -5.9375 L 0.59375 0.1875 C 0.515625 0.328125 0.515625 0.34375 0.515625 0.40625 C 0.515625 0.609375 0.6875 0.734375 0.84375 0.734375 C 1.0625 0.734375 1.140625 0.578125 1.1875 0.484375 Z M 4.09375 -5.65625 "/>
</g>
<g id="glyph-2-1">
<path d="M 4.078125 -3.265625 C 4.328125 -3.265625 4.546875 -3.265625 4.546875 -3.5625 C 4.546875 -3.859375 4.296875 -3.859375 4.171875 -3.859375 L 3.078125 -3.859375 C 2.953125 -3.859375 2.703125 -3.859375 2.703125 -3.5625 C 2.703125 -3.265625 2.953125 -3.265625 3.078125 -3.265625 L 3.53125 -3.265625 L 3.125 -0.6875 L 3.109375 -0.6875 C 3.078125 -0.921875 2.9375 -1.4375 2.859375 -1.703125 C 2.71875 -2.171875 2.6875 -2.3125 2.359375 -2.3125 C 2.03125 -2.3125 2 -2.1875 1.859375 -1.65625 C 1.765625 -1.328125 1.640625 -0.90625 1.609375 -0.6875 L 1.59375 -0.6875 L 1.15625 -3.265625 L 1.59375 -3.265625 C 1.71875 -3.265625 1.984375 -3.265625 1.984375 -3.5625 C 1.984375 -3.859375 1.734375 -3.859375 1.59375 -3.859375 L 0.515625 -3.859375 C 0.390625 -3.859375 0.140625 -3.859375 0.140625 -3.5625 C 0.140625 -3.265625 0.359375 -3.265625 0.609375 -3.265625 L 1.125 -0.296875 C 1.1875 0.046875 1.390625 0.046875 1.5625 0.046875 C 1.953125 0.046875 1.96875 -0.046875 2.125 -0.578125 C 2.328125 -1.3125 2.34375 -1.484375 2.34375 -1.609375 L 2.359375 -1.609375 C 2.390625 -1.359375 2.53125 -0.796875 2.59375 -0.609375 C 2.75 -0.078125 2.765625 0.046875 3.140625 0.046875 C 3.296875 0.046875 3.5 0.046875 3.5625 -0.296875 Z M 4.078125 -3.265625 "/>
</g>
<g id="glyph-2-2">
<path d="M 4.1875 -1.9375 C 4.1875 -3.03125 3.359375 -3.921875 2.34375 -3.921875 C 1.328125 -3.921875 0.484375 -3.03125 0.484375 -1.9375 C 0.484375 -0.828125 1.34375 0.046875 2.34375 0.046875 C 3.34375 0.046875 4.1875 -0.828125 4.1875 -1.9375 Z M 2.34375 -0.53125 C 1.6875 -0.53125 1.15625 -1.1875 1.15625 -2 C 1.15625 -2.78125 1.71875 -3.34375 2.34375 -3.34375 C 2.96875 -3.34375 3.53125 -2.78125 3.53125 -2 C 3.53125 -1.1875 3 -0.53125 2.34375 -0.53125 Z M 2.34375 -0.53125 "/>
</g>
<g id="glyph-2-3">
<path d="M 2 -1.640625 C 2 -2.546875 2.59375 -3.3125 3.5625 -3.3125 C 3.59375 -2.984375 3.84375 -2.921875 3.953125 -2.921875 C 4.171875 -2.921875 4.359375 -3.078125 4.359375 -3.328125 C 4.359375 -3.5 4.25 -3.890625 3.5 -3.890625 C 3 -3.890625 2.4375 -3.6875 2 -3.203125 L 2 -3.484375 C 2 -3.765625 1.9375 -3.859375 1.625 -3.859375 L 0.625 -3.859375 C 0.484375 -3.859375 0.234375 -3.859375 0.234375 -3.5625 C 0.234375 -3.265625 0.484375 -3.265625 0.625 -3.265625 L 1.34375 -3.265625 L 1.34375 -0.578125 L 0.625 -0.578125 C 0.484375 -0.578125 0.234375 -0.578125 0.234375 -0.296875 C 0.234375 0 0.484375 0 0.625 0 L 3 0 C 3.125 0 3.375 0 3.375 -0.28125 C 3.375 -0.578125 3.125 -0.578125 3 -0.578125 L 2 -0.578125 Z M 2 -1.640625 "/>
</g>
<g id="glyph-2-4">
<path d="M 2.578125 -2.265625 L 3.640625 -3.265625 L 3.953125 -3.265625 C 4.09375 -3.265625 4.328125 -3.265625 4.328125 -3.5625 C 4.328125 -3.859375 4.109375 -3.859375 3.953125 -3.859375 L 2.5625 -3.859375 C 2.4375 -3.859375 2.1875 -3.859375 2.1875 -3.5625 C 2.1875 -3.265625 2.421875 -3.265625 2.5625 -3.265625 L 2.859375 -3.265625 L 1.5 -2 L 1.5 -5.078125 C 1.5 -5.375 1.4375 -5.453125 1.125 -5.453125 L 0.53125 -5.453125 C 0.40625 -5.453125 0.15625 -5.453125 0.15625 -5.171875 C 0.15625 -4.875 0.40625 -4.875 0.53125 -4.875 L 0.96875 -4.875 L 0.96875 -0.578125 L 0.53125 -0.578125 C 0.40625 -0.578125 0.15625 -0.578125 0.15625 -0.296875 C 0.15625 0 0.40625 0 0.53125 0 L 1.9375 0 C 2.0625 0 2.3125 0 2.3125 -0.28125 C 2.3125 -0.578125 2.0625 -0.578125 1.9375 -0.578125 L 1.5 -0.578125 L 1.5 -1.25 L 2.1875 -1.90625 L 3.203125 -0.578125 C 2.90625 -0.578125 2.703125 -0.578125 2.703125 -0.28125 C 2.703125 0 2.953125 0 3.078125 0 L 4.15625 0 C 4.296875 0 4.53125 0 4.53125 -0.28125 C 4.53125 -0.578125 4.296875 -0.578125 4.15625 -0.578125 L 3.875 -0.578125 Z M 2.578125 -2.265625 "/>
</g>
<g id="glyph-2-5">
<path d="M 2.28125 -3.265625 L 3.328125 -3.265625 C 3.453125 -3.265625 3.703125 -3.265625 3.703125 -3.5625 C 3.703125 -3.859375 3.46875 -3.859375 3.328125 -3.859375 L 2.28125 -3.859375 L 2.28125 -4.265625 C 2.28125 -4.921875 2.828125 -4.921875 3.09375 -4.921875 C 3.125 -4.6875 3.3125 -4.546875 3.5 -4.546875 C 3.671875 -4.546875 3.90625 -4.671875 3.90625 -4.953125 C 3.90625 -5.5 3.171875 -5.5 3.03125 -5.5 C 2.34375 -5.5 1.625 -5.125 1.625 -4.296875 L 1.625 -3.859375 L 0.765625 -3.859375 C 0.625 -3.859375 0.390625 -3.859375 0.390625 -3.5625 C 0.390625 -3.265625 0.625 -3.265625 0.765625 -3.265625 L 1.625 -3.265625 L 1.625 -0.578125 L 0.71875 -0.578125 C 0.59375 -0.578125 0.34375 -0.578125 0.34375 -0.296875 C 0.34375 0 0.59375 0 0.71875 0 L 3.1875 0 C 3.3125 0 3.578125 0 3.578125 -0.28125 C 3.578125 -0.578125 3.328125 -0.578125 3.1875 -0.578125 L 2.28125 -0.578125 Z M 2.28125 -3.265625 "/>
</g>
<g id="glyph-2-6">
<path d="M 2.671875 -5.078125 C 2.671875 -5.375 2.59375 -5.453125 2.296875 -5.453125 L 0.84375 -5.453125 C 0.71875 -5.453125 0.46875 -5.453125 0.46875 -5.171875 C 0.46875 -4.875 0.703125 -4.875 0.84375 -4.875 L 2.015625 -4.875 L 2.015625 -0.578125 L 0.84375 -0.578125 C 0.71875 -0.578125 0.46875 -0.578125 0.46875 -0.296875 C 0.46875 0 0.703125 0 0.84375 0 L 3.828125 0 C 3.96875 0 4.203125 0 4.203125 -0.28125 C 4.203125 -0.578125 3.984375 -0.578125 3.828125 -0.578125 L 2.671875 -0.578125 Z M 2.671875 -5.078125 "/>
</g>
<g id="glyph-2-7">
<path d="M 3.828125 -3.546875 C 3.828125 -3.6875 3.828125 -3.921875 3.546875 -3.921875 C 3.34375 -3.921875 3.296875 -3.8125 3.265625 -3.75 C 2.9375 -3.921875 2.5 -3.921875 2.34375 -3.921875 C 0.78125 -3.921875 0.640625 -3.109375 0.640625 -2.859375 C 0.640625 -2.390625 1 -2.171875 1.109375 -2.09375 C 1.40625 -1.90625 1.65625 -1.875 2.578125 -1.71875 C 2.8125 -1.6875 3.515625 -1.578125 3.515625 -1.125 C 3.515625 -0.84375 3.265625 -0.53125 2.40625 -0.53125 C 1.859375 -0.53125 1.5 -0.71875 1.328125 -1.25 C 1.265625 -1.4375 1.21875 -1.53125 0.96875 -1.53125 C 0.640625 -1.53125 0.640625 -1.328125 0.640625 -1.140625 L 0.640625 -0.328125 C 0.640625 -0.203125 0.640625 0.046875 0.921875 0.046875 C 1.0625 0.046875 1.1875 -0.015625 1.265625 -0.265625 C 1.703125 0.046875 2.21875 0.046875 2.40625 0.046875 C 3.890625 0.046875 4.109375 -0.78125 4.109375 -1.125 C 4.109375 -1.5625 3.828125 -1.84375 3.609375 -1.96875 C 3.25 -2.203125 3.03125 -2.25 2.1875 -2.375 C 1.8125 -2.4375 1.21875 -2.53125 1.21875 -2.859375 C 1.21875 -3.09375 1.515625 -3.34375 2.328125 -3.34375 C 3.140625 -3.34375 3.15625 -3.03125 3.171875 -2.84375 C 3.1875 -2.59375 3.4375 -2.59375 3.5 -2.59375 C 3.828125 -2.59375 3.828125 -2.796875 3.828125 -2.96875 Z M 3.828125 -3.546875 "/>
</g>
<g id="glyph-3-0">
<path d="M 5 -2.984375 C 4.984375 -3.1875 4.859375 -3.1875 4.640625 -3.1875 C 4.3125 -3.1875 4.234375 -3.15625 4.125 -2.796875 C 3.984375 -2.265625 3.671875 -1.1875 3.5625 -0.78125 L 2.96875 -2.875 C 2.9375 -3.03125 2.890625 -3.1875 2.5625 -3.1875 C 2.46875 -3.1875 2.296875 -3.1875 2.203125 -3.03125 C 2.140625 -2.921875 1.828125 -1.71875 1.59375 -0.90625 L 1.03125 -2.875 C 0.96875 -3.109375 0.890625 -3.1875 0.609375 -3.1875 L 0.46875 -3.1875 C 0.328125 -3.1875 0.1875 -3.1875 0.171875 -2.984375 L 0.90625 -0.3125 C 1 0 1.171875 0 1.34375 0 L 1.546875 0 C 1.875 0 1.921875 -0.109375 2 -0.375 C 2.15625 -0.953125 2.40625 -1.828125 2.4375 -2.203125 L 2.453125 -2.203125 C 2.484375 -1.8125 2.796875 -0.703125 2.890625 -0.375 C 2.96875 -0.125 3 0 3.34375 0 L 3.8125 0 C 4.109375 0 4.1875 -0.078125 4.25 -0.3125 Z M 5 -2.984375 "/>
</g>
<g id="glyph-3-1">
<path d="M 3.609375 -1.5625 C 3.609375 -2.703125 3.046875 -3.296875 1.90625 -3.296875 C 0.75 -3.296875 0.21875 -2.6875 0.21875 -1.5625 C 0.21875 -0.4375 0.8125 0.078125 1.90625 0.078125 C 3 0.078125 3.609375 -0.421875 3.609375 -1.5625 Z M 1.90625 -0.46875 C 1.15625 -0.46875 1.15625 -1.09375 1.15625 -1.640625 C 1.15625 -2.1875 1.15625 -2.796875 1.90625 -2.796875 C 2.65625 -2.796875 2.65625 -2.1875 2.65625 -1.640625 C 2.65625 -1.09375 2.65625 -0.46875 1.90625 -0.46875 Z M 1.90625 -0.46875 "/>
</g>
<g id="glyph-3-2">
<path d="M 1.34375 -1.59375 C 1.34375 -2.265625 1.890625 -2.53125 2.34375 -2.5625 C 2.46875 -2.5625 2.46875 -2.5625 2.46875 -2.75 L 2.46875 -3.078125 C 2.46875 -3.21875 2.46875 -3.265625 2.34375 -3.265625 C 2.15625 -3.265625 1.640625 -3.1875 1.328125 -2.4375 L 1.3125 -2.4375 L 1.3125 -2.890625 C 1.3125 -3.109375 1.265625 -3.21875 0.984375 -3.21875 L 0.765625 -3.21875 C 0.5 -3.21875 0.421875 -3.15625 0.421875 -2.890625 L 0.421875 -0.328125 C 0.421875 -0.078125 0.5 0 0.765625 0 L 1.015625 0 C 1.28125 0 1.34375 -0.09375 1.34375 -0.328125 Z M 1.34375 -1.59375 "/>
</g>
<g id="glyph-3-3">
<path d="M 2.171875 -1.890625 L 3.25 -2.890625 C 3.328125 -2.96875 3.34375 -2.984375 3.34375 -3.03125 C 3.34375 -3.1875 3.21875 -3.1875 3.109375 -3.1875 L 2.71875 -3.1875 C 2.59375 -3.1875 2.453125 -3.1875 2.296875 -3.03125 L 1.296875 -2.109375 L 1.296875 -4.484375 C 1.296875 -4.71875 1.25 -4.828125 0.953125 -4.828125 L 0.8125 -4.828125 C 0.5625 -4.828125 0.484375 -4.75 0.484375 -4.484375 L 0.484375 -0.328125 C 0.484375 -0.078125 0.5625 0 0.8125 0 L 0.9375 0 C 1.203125 0 1.265625 -0.09375 1.265625 -0.328125 L 1.265625 -1.0625 L 1.59375 -1.359375 L 2.5 -0.171875 C 2.625 -0.015625 2.671875 0 2.875 0 L 3.203125 0 C 3.296875 0 3.453125 0 3.453125 -0.15625 C 3.453125 -0.171875 3.453125 -0.21875 3.390625 -0.3125 Z M 2.171875 -1.890625 "/>
</g>
<g id="glyph-3-4">
<path d="M 3 -1.484375 C 3.15625 -1.484375 3.328125 -1.5 3.328125 -1.8125 C 3.328125 -2.703125 2.90625 -3.296875 1.875 -3.296875 C 0.765625 -3.296875 0.21875 -2.671875 0.21875 -1.625 C 0.21875 -0.484375 0.875 0.078125 1.96875 0.078125 C 2.234375 0.078125 2.625 0.046875 3.09375 -0.1875 C 3.234375 -0.265625 3.28125 -0.28125 3.28125 -0.375 C 3.28125 -0.421875 3.265625 -0.625 3.265625 -0.671875 C 3.234375 -0.890625 3.21875 -0.890625 3.15625 -0.890625 C 3.140625 -0.890625 3.125 -0.890625 3.046875 -0.828125 C 2.640625 -0.46875 2.21875 -0.421875 2 -0.421875 C 1.203125 -0.421875 1.125 -1.046875 1.109375 -1.484375 Z M 1.109375 -1.859375 C 1.140625 -2.28125 1.265625 -2.796875 1.875 -2.796875 C 2.4375 -2.796875 2.53125 -2.40625 2.5625 -1.859375 Z M 1.109375 -1.859375 "/>
</g>
</g>
<clipPath id="clip-0">
<path clip-rule="nonzero" d="M 0 14 L 152 14 L 152 136.492188 L 0 136.492188 Z M 0 14 "/>
</clipPath>
<clipPath id="clip-1">
<path clip-rule="nonzero" d="M 175 14 L 377.011719 14 L 377.011719 136.492188 L 175 136.492188 Z M 175 14 "/>
</clipPath>
</defs>
<path fill-rule="nonzero" fill="rgb(94.999695%, 94.999695%, 94.999695%)" fill-opacity="1" stroke-width="0.3985" stroke-linecap="butt" stroke-linejoin="miter" stroke="rgb(27.49939%, 27.49939%, 27.49939%)" stroke-opacity="1" stroke-miterlimit="10" d="M 30.605558 36.851967 L -30.606086 36.851967 C -31.706634 36.851967 -32.599606 35.958995 -32.599606 34.858447 L -32.599606 24.67152 C -32.599606 23.570971 -31.706634 22.678 -30.606086 22.678 L 30.605558 22.678 C 31.706106 22.678 32.599078 23.570971 32.599078 24.67152 L 32.599078 34.858447 C 32.599078 35.958995 31.706106 36.851967 30.605558 36.851967 Z M 30.605558 36.851967 " transform="matrix(0.997372, 0, 0, -0.997372, 54.213154, 76.622309)"/>
<g fill="rgb(0%, 0%, 0%)" fill-opacity="1">
<use xlink:href="#glyph-0-0" x="27.706995" y="48.990117"/>
<use xlink:href="#glyph-0-1" x="30.231136" y="48.990117"/>
<use xlink:href="#glyph-0-2" x="33.515511" y="48.990117"/>
<use xlink:href="#glyph-0-3" x="37.065584" y="48.990117"/>
</g>
<g fill="rgb(0%, 0%, 0%)" fill-opacity="1">
<use xlink:href="#glyph-0-4" x="43.343594" y="48.990117"/>
</g>
<g fill="rgb(0%, 0%, 0%)" fill-opacity="1">
<use xlink:href="#glyph-0-1" x="51.553834" y="48.990117"/>
<use xlink:href="#glyph-0-3" x="54.838209" y="48.990117"/>
<use xlink:href="#glyph-0-5" x="58.653981" y="48.990117"/>
<use xlink:href="#glyph-0-6" x="60.417194" y="48.990117"/>
</g>
<g fill="rgb(0%, 0%, 0%)" fill-opacity="1">
<use xlink:href="#glyph-0-7" x="65.555202" y="48.990117"/>
<use xlink:href="#glyph-0-8" x="69.516344" y="48.990117"/>
<use xlink:href="#glyph-0-1" x="71.279556" y="48.990117"/>
</g>
<g fill="rgb(0%, 0%, 0%)" fill-opacity="1">
<use xlink:href="#glyph-0-9" x="77.026168" y="48.990117"/>
</g>
<path fill-rule="nonzero" fill="rgb(94.999695%, 94.999695%, 94.999695%)" fill-opacity="1" stroke-width="0.3985" stroke-linecap="butt" stroke-linejoin="miter" stroke="rgb(27.49939%, 27.49939%, 27.49939%)" stroke-opacity="1" stroke-miterlimit="10" d="M 30.605558 18.424634 L -30.606086 18.424634 C -31.706634 18.424634 -32.599606 17.531663 -32.599606 16.431114 L -32.599606 6.244187 C -32.599606 5.143639 -31.706634 4.250667 -30.606086 4.250667 L 30.605558 4.250667 C 31.706106 4.250667 32.599078 5.143639 32.599078 6.244187 L 32.599078 16.431114 C 32.599078 17.531663 31.706106 18.424634 30.605558 18.424634 Z M 30.605558 18.424634 " transform="matrix(0.997372, 0, 0, -0.997372, 54.213154, 76.622309)"/>
<g fill="rgb(0%, 0%, 0%)" fill-opacity="1">
<use xlink:href="#glyph-0-0" x="27.706995" y="67.366696"/>
<use xlink:href="#glyph-0-1" x="30.231136" y="67.366696"/>
<use xlink:href="#glyph-0-2" x="33.515511" y="67.366696"/>
<use xlink:href="#glyph-0-3" x="37.065584" y="67.366696"/>
</g>
<g fill="rgb(0%, 0%, 0%)" fill-opacity="1">
<use xlink:href="#glyph-0-4" x="43.343594" y="67.366696"/>
</g>
<g fill="rgb(0%, 0%, 0%)" fill-opacity="1">
<use xlink:href="#glyph-0-1" x="51.553834" y="67.366696"/>
<use xlink:href="#glyph-0-3" x="54.838209" y="67.366696"/>
<use xlink:href="#glyph-0-5" x="58.653981" y="67.366696"/>
<use xlink:href="#glyph-0-6" x="60.417194" y="67.366696"/>
</g>
<g fill="rgb(0%, 0%, 0%)" fill-opacity="1">
<use xlink:href="#glyph-0-7" x="65.555202" y="67.366696"/>
<use xlink:href="#glyph-0-8" x="69.516344" y="67.366696"/>
<use xlink:href="#glyph-0-1" x="71.279556" y="67.366696"/>
</g>
<g fill="rgb(0%, 0%, 0%)" fill-opacity="1">
<use xlink:href="#glyph-0-10" x="77.026168" y="67.366696"/>
</g>
<path fill-rule="nonzero" fill="rgb(94.999695%, 94.999695%, 94.999695%)" fill-opacity="1" stroke-width="0.3985" stroke-linecap="butt" stroke-linejoin="miter" stroke="rgb(27.49939%, 27.49939%, 27.49939%)" stroke-opacity="1" stroke-miterlimit="10" d="M 34.079531 0.0012182 L -34.080059 0.0012182 C -35.180608 0.0012182 -36.073579 -0.891754 -36.073579 -1.992302 L -36.073579 -12.179229 C -36.073579 -13.279778 -35.180608 -14.172749 -34.080059 -14.172749 L 34.079531 -14.172749 C 35.180079 -14.172749 36.073051 -13.279778 36.073051 -12.179229 L 36.073051 -1.992302 C 36.073051 -0.891754 35.180079 0.0012182 34.079531 0.0012182 Z M 34.079531 0.0012182 " transform="matrix(0.997372, 0, 0, -0.997372, 54.213154, 76.622309)"/>
<g fill="rgb(0%, 0%, 0%)" fill-opacity="1">
<use xlink:href="#glyph-0-0" x="21.548223" y="85.743276"/>
<use xlink:href="#glyph-0-1" x="24.072364" y="85.743276"/>
<use xlink:href="#glyph-0-2" x="27.356738" y="85.743276"/>
<use xlink:href="#glyph-0-3" x="30.906812" y="85.743276"/>
</g>
<g fill="rgb(0%, 0%, 0%)" fill-opacity="1">
<use xlink:href="#glyph-0-4" x="37.184822" y="85.743276"/>
</g>
<g fill="rgb(0%, 0%, 0%)" fill-opacity="1">
<use xlink:href="#glyph-0-1" x="45.395062" y="85.743276"/>
<use xlink:href="#glyph-0-3" x="48.679437" y="85.743276"/>
<use xlink:href="#glyph-0-5" x="52.495209" y="85.743276"/>
<use xlink:href="#glyph-0-6" x="54.258422" y="85.743276"/>
</g>
<g fill="rgb(0%, 0%, 0%)" fill-opacity="1">
<use xlink:href="#glyph-0-7" x="59.396429" y="85.743276"/>
<use xlink:href="#glyph-0-8" x="63.357571" y="85.743276"/>
<use xlink:href="#glyph-0-1" x="65.120784" y="85.743276"/>
</g>
<g fill="rgb(0%, 0%, 0%)" fill-opacity="1">
<use xlink:href="#glyph-0-11" x="70.867396" y="85.743276"/>
</g>
<g fill="rgb(0%, 0%, 0%)" fill-opacity="1">
<use xlink:href="#glyph-0-12" x="77.025076" y="85.743276"/>
</g>
<g fill="rgb(0%, 0%, 0%)" fill-opacity="1">
<use xlink:href="#glyph-0-12" x="80.308755" y="85.743276"/>
</g>
<g fill="rgb(0%, 0%, 0%)" fill-opacity="1">
<use xlink:href="#glyph-0-12" x="83.592434" y="85.743276"/>
</g>
<path fill="none" stroke-width="0.59776" stroke-linecap="butt" stroke-linejoin="miter" stroke="rgb(29.998779%, 29.998779%, 29.998779%)" stroke-opacity="1" stroke-miterlimit="10" d="M 0.00169405 22.478256 L 0.00169405 22.211931 " transform="matrix(0.997372, 0, 0, -0.997372, 54.213154, 76.622309)"/>
<path fill-rule="nonzero" fill="rgb(29.998779%, 29.998779%, 29.998779%)" fill-opacity="1" stroke-width="0.59776" stroke-linecap="butt" stroke-linejoin="miter" stroke="rgb(29.998779%, 29.998779%, 29.998779%)" stroke-opacity="1" stroke-miterlimit="10" d="M 4.829012 0.00169405 L 0.963385 1.458648 L 2.240178 0.00169405 L 0.963385 -1.459176 Z M 4.829012 0.00169405 " transform="matrix(0, 0.997372, 0.997372, 0, 54.213154, 52.382897)"/>
<path fill="none" stroke-width="0.59776" stroke-linecap="butt" stroke-linejoin="miter" stroke="rgb(29.998779%, 29.998779%, 29.998779%)" stroke-opacity="1" stroke-miterlimit="10" d="M 0.00169405 4.050923 L 0.00169405 3.784598 " transform="matrix(0.997372, 0, 0, -0.997372, 54.213154, 76.622309)"/>
<path fill-rule="nonzero" fill="rgb(29.998779%, 29.998779%, 29.998779%)" fill-opacity="1" stroke-width="0.59776" stroke-linecap="butt" stroke-linejoin="miter" stroke="rgb(29.998779%, 29.998779%, 29.998779%)" stroke-opacity="1" stroke-miterlimit="10" d="M 4.827198 0.00169405 L 0.965487 1.458648 L 2.24228 0.00169405 L 0.965487 -1.459176 Z M 4.827198 0.00169405 " transform="matrix(0, 0.997372, 0.997372, 0, 54.213154, 70.759706)"/>
<path fill="none" stroke-width="0.79701" stroke-linecap="butt" stroke-linejoin="miter" stroke="rgb(75.292969%, 40.783691%, 34.510803%)" stroke-opacity="1" stroke-miterlimit="10" d="M 55.275859 -24.093352 L 55.275859 38.269755 L 66.61425 38.269755 L 66.61425 -24.093352 Z M 55.275859 -24.093352 " transform="matrix(0.997372, 0, 0, -0.997372, 54.213154, 76.622309)"/>
<path fill-rule="nonzero" fill="rgb(92.588806%, 82.235718%, 80.352783%)" fill-opacity="1" d="M 109.628906 100.371094 L 109.628906 46.9375 L 120.371094 46.9375 L 120.371094 100.371094 Z M 109.628906 100.371094 "/>
<g fill="rgb(75.292969%, 40.783691%, 34.510803%)" fill-opacity="1">
<use xlink:href="#glyph-0-13" x="103.586062" y="109.975427"/>
<use xlink:href="#glyph-0-14" x="106.870436" y="109.975427"/>
<use xlink:href="#glyph-0-15" x="110.565879" y="109.975427"/>
<use xlink:href="#glyph-0-6" x="114.381652" y="109.975427"/>
<use xlink:href="#glyph-0-1" x="117.050467" y="109.975427"/>
<use xlink:href="#glyph-0-16" x="120.334841" y="109.975427"/>
<use xlink:href="#glyph-0-6" x="123.740241" y="109.975427"/>
</g>
<g fill="rgb(75.292969%, 40.783691%, 34.510803%)" fill-opacity="1">
<use xlink:href="#glyph-0-17" x="105.792249" y="117.924482"/>
<use xlink:href="#glyph-0-14" x="109.753391" y="117.924482"/>
</g>
<g fill="rgb(75.292969%, 40.783691%, 34.510803%)" fill-opacity="1">
<use xlink:href="#glyph-0-14" x="113.650542" y="117.924482"/>
</g>
<g fill="rgb(75.292969%, 40.783691%, 34.510803%)" fill-opacity="1">
<use xlink:href="#glyph-0-3" x="117.554649" y="117.924482"/>
<use xlink:href="#glyph-0-18" x="121.370422" y="117.924482"/>
</g>
<g clip-path="url(#clip-0)">
<path fill="none" stroke-width="0.99628" stroke-linecap="butt" stroke-linejoin="miter" stroke="rgb(75.292969%, 40.783691%, 34.510803%)" stroke-opacity="1" stroke-miterlimit="10" d="M -42.520208 -42.211277 L -42.520208 42.213714 C -42.520208 45.511443 -39.84521 48.190358 -36.543564 48.190358 L 77.64715 48.190358 C 80.944879 48.190358 83.623794 45.511443 83.623794 42.213714 L 83.623794 -42.211277 C 83.623794 -45.512923 80.944879 -48.187921 77.64715 -48.187921 L -36.543564 -48.187921 C -39.84521 -48.187921 -42.520208 -45.512923 -42.520208 -42.211277 Z M -42.520208 -42.211277 " transform="matrix(0.997372, 0, 0, -0.997372, 54.213154, 76.622309)"/>
</g>
<g fill="rgb(75.292969%, 40.783691%, 34.510803%)" fill-opacity="1">
<use xlink:href="#glyph-1-0" x="38.526487" y="21.769839"/>
<use xlink:href="#glyph-1-1" x="45.630676" y="21.769839"/>
<use xlink:href="#glyph-1-2" x="50.648502" y="21.769839"/>
</g>
<g fill="rgb(75.292969%, 40.783691%, 34.510803%)" fill-opacity="1">
<use xlink:href="#glyph-1-3" x="58.501207" y="21.769839"/>
<use xlink:href="#glyph-1-4" x="62.873359" y="21.769839"/>
<use xlink:href="#glyph-1-1" x="67.79192" y="21.769839"/>
<use xlink:href="#glyph-1-5" x="72.809745" y="21.769839"/>
<use xlink:href="#glyph-1-2" x="77.281163" y="21.769839"/>
<use xlink:href="#glyph-1-6" x="81.851847" y="21.769839"/>
<use xlink:href="#glyph-1-7" x="85.180371" y="21.769839"/>
<use xlink:href="#glyph-1-8" x="88.951565" y="21.769839"/>
<use xlink:href="#glyph-1-9" x="93.646554" y="21.769839"/>
<use xlink:href="#glyph-1-10" x="97.261249" y="21.769839"/>
<use xlink:href="#glyph-1-4" x="99.547038" y="21.769839"/>
<use xlink:href="#glyph-1-1" x="104.465598" y="21.769839"/>
</g>
<path fill-rule="nonzero" fill="rgb(93.11676%, 89.588928%, 92.64679%)" fill-opacity="1" stroke-width="0.79701" stroke-linecap="butt" stroke-linejoin="miter" stroke="rgb(54.116821%, 30.587769%, 50.979614%)" stroke-opacity="1" stroke-miterlimit="10" d="M 240.833812 41.101416 L 167.359474 41.101416 C 165.710609 41.101416 164.371152 39.765875 164.371152 38.113094 L 164.371152 27.08411 C 164.371152 25.431329 165.710609 24.095788 167.359474 24.095788 L 240.833812 24.095788 C 242.482676 24.095788 243.822134 25.431329 243.822134 27.08411 L 243.822134 38.113094 C 243.822134 39.765875 242.482676 41.101416 240.833812 41.101416 Z M 240.833812 41.101416 " transform="matrix(0.997372, 0, 0, -0.997372, 54.213154, 76.622309)"/>
<g fill="rgb(0%, 0%, 0%)" fill-opacity="1">
<use xlink:href="#glyph-2-0" x="221.46247" y="46.346083"/>
<use xlink:href="#glyph-2-1" x="226.157459" y="46.346083"/>
<use xlink:href="#glyph-2-2" x="230.852449" y="46.346083"/>
<use xlink:href="#glyph-2-3" x="235.547438" y="46.346083"/>
<use xlink:href="#glyph-2-4" x="240.242427" y="46.346083"/>
<use xlink:href="#glyph-2-5" x="244.937416" y="46.346083"/>
<use xlink:href="#glyph-2-6" x="249.632405" y="46.346083"/>
<use xlink:href="#glyph-2-2" x="254.327395" y="46.346083"/>
<use xlink:href="#glyph-2-1" x="259.022384" y="46.346083"/>
<use xlink:href="#glyph-2-7" x="263.717373" y="46.346083"/>
</g>
<g fill="rgb(0%, 0%, 0%)" fill-opacity="1">
<use xlink:href="#glyph-1-7" x="271.694383" y="46.346083"/>
<use xlink:href="#glyph-1-3" x="275.465577" y="46.346083"/>
<use xlink:href="#glyph-1-6" x="279.83773" y="46.346083"/>
<use xlink:href="#glyph-1-10" x="283.166254" y="46.346083"/>
<use xlink:href="#glyph-1-11" x="285.452043" y="46.346083"/>
<use xlink:href="#glyph-1-9" x="290.469869" y="46.346083"/>
</g>
<path fill-rule="nonzero" fill="rgb(90.008545%, 92.658997%, 95.15686%)" fill-opacity="1" stroke-width="0.69739" stroke-linecap="butt" stroke-linejoin="miter" stroke="rgb(23.136902%, 43.528748%, 62.745667%)" stroke-opacity="1" stroke-miterlimit="10" d="M 178.43154 7.086244 L 144.721858 7.086244 C 143.072993 7.086244 141.733536 5.746786 141.733536 4.097922 L 141.733536 -4.099402 C 141.733536 -5.748266 143.072993 -7.087724 144.721858 -7.087724 L 178.43154 -7.087724 C 180.080404 -7.087724 181.419861 -5.748266 181.419861 -4.099402 L 181.419861 4.097922 C 181.419861 5.746786 180.080404 7.086244 178.43154 7.086244 Z M 178.43154 7.086244 " transform="matrix(0.997372, 0, 0, -0.997372, 54.213154, 76.622309)"/>
<g fill="rgb(0%, 0%, 0%)" fill-opacity="1">
<use xlink:href="#glyph-3-0" x="204.968929" y="79.037944"/>
</g>
<g fill="rgb(0%, 0%, 0%)" fill-opacity="1">
<use xlink:href="#glyph-3-1" x="209.930963" y="79.037944"/>
</g>
<g fill="rgb(0%, 0%, 0%)" fill-opacity="1">
<use xlink:href="#glyph-3-2" x="213.547809" y="79.037944"/>
<use xlink:href="#glyph-3-3" x="216.136636" y="79.037944"/>
</g>
<g fill="rgb(0%, 0%, 0%)" fill-opacity="1">
<use xlink:href="#glyph-3-4" x="219.611591" y="79.037944"/>
<use xlink:href="#glyph-3-2" x="223.166533" y="79.037944"/>
</g>
<path fill-rule="nonzero" fill="rgb(90.008545%, 92.658997%, 95.15686%)" fill-opacity="1" stroke-width="0.69739" stroke-linecap="butt" stroke-linejoin="miter" stroke="rgb(23.136902%, 43.528748%, 62.745667%)" stroke-opacity="1" stroke-miterlimit="10" d="M 220.949525 7.086244 L 187.24376 7.086244 C 185.590979 7.086244 184.255438 5.746786 184.255438 4.097922 L 184.255438 -4.099402 C 184.255438 -5.748266 185.590979 -7.087724 187.24376 -7.087724 L 220.949525 -7.087724 C 222.602306 -7.087724 223.937847 -5.748266 223.937847 -4.099402 L 223.937847 4.097922 C 223.937847 5.746786 222.602306 7.086244 220.949525 7.086244 Z M 220.949525 7.086244 " transform="matrix(0.997372, 0, 0, -0.997372, 54.213154, 76.622309)"/>
<g fill="rgb(0%, 0%, 0%)" fill-opacity="1">
<use xlink:href="#glyph-3-0" x="247.377188" y="79.037944"/>
</g>
<g fill="rgb(0%, 0%, 0%)" fill-opacity="1">
<use xlink:href="#glyph-3-1" x="252.339222" y="79.037944"/>
</g>
<g fill="rgb(0%, 0%, 0%)" fill-opacity="1">
<use xlink:href="#glyph-3-2" x="255.956068" y="79.037944"/>
<use xlink:href="#glyph-3-3" x="258.544895" y="79.037944"/>
</g>
<g fill="rgb(0%, 0%, 0%)" fill-opacity="1">
<use xlink:href="#glyph-3-4" x="262.01985" y="79.037944"/>
<use xlink:href="#glyph-3-2" x="265.574792" y="79.037944"/>
</g>
<path fill-rule="nonzero" fill="rgb(90.008545%, 92.658997%, 95.15686%)" fill-opacity="1" stroke-width="0.69739" stroke-linecap="butt" stroke-linejoin="miter" stroke="rgb(23.136902%, 43.528748%, 62.745667%)" stroke-opacity="1" stroke-miterlimit="10" d="M 263.471428 7.086244 L 229.761746 7.086244 C 228.112882 7.086244 226.773424 5.746786 226.773424 4.097922 L 226.773424 -4.099402 C 226.773424 -5.748266 228.112882 -7.087724 229.761746 -7.087724 L 263.471428 -7.087724 C 265.120292 -7.087724 266.45975 -5.748266 266.45975 -4.099402 L 266.45975 4.097922 C 266.45975 5.746786 265.120292 7.086244 263.471428 7.086244 Z M 263.471428 7.086244 " transform="matrix(0.997372, 0, 0, -0.997372, 54.213154, 76.622309)"/>
<g fill="rgb(0%, 0%, 0%)" fill-opacity="1">
<use xlink:href="#glyph-3-0" x="289.784449" y="79.037944"/>
</g>
<g fill="rgb(0%, 0%, 0%)" fill-opacity="1">
<use xlink:href="#glyph-3-1" x="294.746484" y="79.037944"/>
</g>
<g fill="rgb(0%, 0%, 0%)" fill-opacity="1">
<use xlink:href="#glyph-3-2" x="298.36333" y="79.037944"/>
<use xlink:href="#glyph-3-3" x="300.952157" y="79.037944"/>
</g>
<g fill="rgb(0%, 0%, 0%)" fill-opacity="1">
<use xlink:href="#glyph-3-4" x="304.427111" y="79.037944"/>
<use xlink:href="#glyph-3-2" x="307.982053" y="79.037944"/>
</g>
<path fill="none" stroke-width="0.59776" stroke-linecap="butt" stroke-linejoin="miter" stroke="rgb(29.998779%, 29.998779%, 29.998779%)" stroke-opacity="1" stroke-miterlimit="10" d="M 192.488011 23.696301 L 174.119426 9.61633 " transform="matrix(0.997372, 0, 0, -0.997372, 54.213154, 76.622309)"/>
<path fill-rule="nonzero" fill="rgb(29.998779%, 29.998779%, 29.998779%)" fill-opacity="1" stroke-width="0.59776" stroke-linecap="butt" stroke-linejoin="miter" stroke="rgb(29.998779%, 29.998779%, 29.998779%)" stroke-opacity="1" stroke-miterlimit="10" d="M 4.828717 0.000779606 L 0.965336 1.456657 L 2.24195 -0.000444826 L 0.965471 -1.459905 Z M 4.828717 0.000779606 " transform="matrix(-0.791574, 0.606681, 0.606681, 0.791574, 229.528846, 65.761296)"/>
<path fill="none" stroke-width="0.59776" stroke-linecap="butt" stroke-linejoin="miter" stroke="rgb(29.998779%, 29.998779%, 29.998779%)" stroke-opacity="1" stroke-miterlimit="10" d="M 204.096643 23.696301 L 204.096643 11.022369 " transform="matrix(0.997372, 0, 0, -0.997372, 54.213154, 76.622309)"/>
<path fill-rule="nonzero" fill="rgb(29.998779%, 29.998779%, 29.998779%)" fill-opacity="1" stroke-width="0.59776" stroke-linecap="butt" stroke-linejoin="miter" stroke="rgb(29.998779%, 29.998779%, 29.998779%)" stroke-opacity="1" stroke-miterlimit="10" d="M 4.829474 -0.000297138 L 0.963847 1.456657 L 2.24064 -0.000297138 L 0.963847 -1.457251 Z M 4.829474 -0.000297138 " transform="matrix(0, 0.997372, 0.997372, 0, 257.773734, 63.542592)"/>
<path fill="none" stroke-width="0.59776" stroke-linecap="butt" stroke-linejoin="miter" stroke="rgb(29.998779%, 29.998779%, 29.998779%)" stroke-opacity="1" stroke-miterlimit="10" d="M 215.709192 23.696301 L 234.077776 9.61633 " transform="matrix(0.997372, 0, 0, -0.997372, 54.213154, 76.622309)"/>
<path fill-rule="nonzero" fill="rgb(29.998779%, 29.998779%, 29.998779%)" fill-opacity="1" stroke-width="0.59776" stroke-linecap="butt" stroke-linejoin="miter" stroke="rgb(29.998779%, 29.998779%, 29.998779%)" stroke-opacity="1" stroke-miterlimit="10" d="M 4.828277 -0.00111679 L 0.965031 1.459568 L 2.24151 0.000107638 L 0.964896 -1.456994 Z M 4.828277 -0.00111679 " transform="matrix(0.791574, 0.606681, 0.606681, -0.791574, 286.018582, 65.761296)"/>
<path fill-rule="nonzero" fill="rgb(89.350891%, 92.411804%, 88.703918%)" fill-opacity="1" stroke-width="0.79701" stroke-linecap="butt" stroke-linejoin="miter" stroke="rgb(29.019165%, 49.412537%, 24.705505%)" stroke-opacity="1" stroke-miterlimit="10" d="M 228.038467 -24.802246 L 180.154818 -24.802246 C 178.505954 -24.802246 177.166496 -26.141703 177.166496 -27.790568 L 177.166496 -37.40568 C 177.166496 -39.054544 178.505954 -40.394002 180.154818 -40.394002 L 228.038467 -40.394002 C 229.687332 -40.394002 231.026789 -39.054544 231.026789 -37.40568 L 231.026789 -27.790568 C 231.026789 -26.141703 229.687332 -24.802246 228.038467 -24.802246 Z M 228.038467 -24.802246 " transform="matrix(0.997372, 0, 0, -0.997372, 54.213154, 76.622309)"/>
<g fill="rgb(0%, 0%, 0%)" fill-opacity="1">
<use xlink:href="#glyph-1-6" x="245.381446" y="110.900988"/>
<use xlink:href="#glyph-1-2" x="248.70997" y="110.900988"/>
<use xlink:href="#glyph-1-11" x="253.280654" y="110.900988"/>
</g>
<g fill="rgb(0%, 0%, 0%)" fill-opacity="1">
<use xlink:href="#glyph-1-4" x="258.575707" y="110.900988"/>
</g>
<g fill="rgb(0%, 0%, 0%)" fill-opacity="1">
<use xlink:href="#glyph-1-6" x="263.217039" y="110.900988"/>
<use xlink:href="#glyph-1-9" x="266.545563" y="110.900988"/>
</g>
<path fill="none" stroke-width="0.59776" stroke-linecap="butt" stroke-linejoin="miter" stroke="rgb(29.998779%, 29.998779%, 29.998779%)" stroke-opacity="1" stroke-miterlimit="10" d="M 171.276016 -7.436296 L 190.568905 -22.221244 " transform="matrix(0.997372, 0, 0, -0.997372, 54.213154, 76.622309)"/>
<path fill-rule="nonzero" fill="rgb(29.998779%, 29.998779%, 29.998779%)" fill-opacity="1" stroke-width="0.59776" stroke-linecap="butt" stroke-linejoin="miter" stroke="rgb(29.998779%, 29.998779%, 29.998779%)" stroke-opacity="1" stroke-miterlimit="10" d="M 4.827001 0.000983066 L 0.966084 1.458457 L 2.242608 -0.000973691 L 0.96603 -1.458117 Z M 4.827001 0.000983066 " transform="matrix(0.791554, 0.606701, 0.606701, -0.791554, 242.623882, 97.517542)"/>
<path fill="none" stroke-width="0.59776" stroke-linecap="butt" stroke-linejoin="miter" stroke="rgb(29.998779%, 29.998779%, 29.998779%)" stroke-opacity="1" stroke-miterlimit="10" d="M 204.096643 -7.436296 L 204.096643 -20.819122 " transform="matrix(0.997372, 0, 0, -0.997372, 54.213154, 76.622309)"/>
<path fill-rule="nonzero" fill="rgb(29.998779%, 29.998779%, 29.998779%)" fill-opacity="1" stroke-width="0.59776" stroke-linecap="butt" stroke-linejoin="miter" stroke="rgb(29.998779%, 29.998779%, 29.998779%)" stroke-opacity="1" stroke-miterlimit="10" d="M 4.826949 -0.000297138 L 0.965238 1.456657 L 2.242031 -0.000297138 L 0.965238 -1.457251 Z M 4.826949 -0.000297138 " transform="matrix(0, 0.997372, 0.997372, 0, 257.773734, 95.299018)"/>
<path fill="none" stroke-width="0.59776" stroke-linecap="butt" stroke-linejoin="miter" stroke="rgb(29.998779%, 29.998779%, 29.998779%)" stroke-opacity="1" stroke-miterlimit="10" d="M 236.917269 -7.436296 L 217.628297 -22.221244 " transform="matrix(0.997372, 0, 0, -0.997372, 54.213154, 76.622309)"/>
<path fill-rule="nonzero" fill="rgb(29.998779%, 29.998779%, 29.998779%)" fill-opacity="1" stroke-width="0.59776" stroke-linecap="butt" stroke-linejoin="miter" stroke="rgb(29.998779%, 29.998779%, 29.998779%)" stroke-opacity="1" stroke-miterlimit="10" d="M 4.827473 -0.0013446 L 0.966502 1.457755 L 2.24308 0.000612154 L 0.966555 -1.458818 Z M 4.827473 -0.0013446 " transform="matrix(-0.791554, 0.606701, 0.606701, 0.791554, 272.923586, 97.517542)"/>
<g fill="rgb(29.019165%, 49.412537%, 24.705505%)" fill-opacity="1">
<use xlink:href="#glyph-0-14" x="327.304588" y="71.088889"/>
<use xlink:href="#glyph-0-15" x="331.00003" y="71.088889"/>
<use xlink:href="#glyph-0-8" x="334.815803" y="71.088889"/>
<use xlink:href="#glyph-0-19" x="336.579015" y="71.088889"/>
</g>
<g fill="rgb(29.019165%, 49.412537%, 24.705505%)" fill-opacity="1">
<use xlink:href="#glyph-0-6" x="342.446652" y="71.088889"/>
<use xlink:href="#glyph-0-20" x="345.115467" y="71.088889"/>
<use xlink:href="#glyph-0-1" x="348.93124" y="71.088889"/>
</g>
<g fill="rgb(29.019165%, 49.412537%, 24.705505%)" fill-opacity="1">
<use xlink:href="#glyph-0-0" x="330.504157" y="79.037944"/>
<use xlink:href="#glyph-0-1" x="333.028298" y="79.037944"/>
<use xlink:href="#glyph-0-21" x="336.312673" y="79.037944"/>
</g>
<g fill="rgb(29.019165%, 49.412537%, 24.705505%)" fill-opacity="1">
<use xlink:href="#glyph-0-14" x="340.337109" y="79.037944"/>
</g>
<g fill="rgb(29.019165%, 49.412537%, 24.705505%)" fill-opacity="1">
<use xlink:href="#glyph-0-0" x="343.823888" y="79.037944"/>
<use xlink:href="#glyph-0-6" x="346.348029" y="79.037944"/>
</g>
<g fill="rgb(29.019165%, 49.412537%, 24.705505%)" fill-opacity="1">
<use xlink:href="#glyph-0-0" x="329.027049" y="86.986999"/>
<use xlink:href="#glyph-0-1" x="331.55119" y="86.986999"/>
<use xlink:href="#glyph-0-6" x="334.835565" y="86.986999"/>
<use xlink:href="#glyph-0-22" x="337.50438" y="86.986999"/>
<use xlink:href="#glyph-0-0" x="341.320152" y="86.986999"/>
<use xlink:href="#glyph-0-15" x="343.844293" y="86.986999"/>
<use xlink:href="#glyph-0-18" x="347.660066" y="86.986999"/>
</g>
<g clip-path="url(#clip-1)">
<path fill="none" stroke-width="0.99628" stroke-linecap="butt" stroke-linejoin="miter" stroke="rgb(29.019165%, 49.412537%, 24.705505%)" stroke-opacity="1" stroke-miterlimit="10" d="M 136.066299 -42.211277 L 136.066299 42.213714 C 136.066299 45.511443 138.741297 48.190358 142.042943 48.190358 L 305.836669 48.190358 C 309.138314 48.190358 311.813313 45.511443 311.813313 42.213714 L 311.813313 -42.211277 C 311.813313 -45.512923 309.138314 -48.187921 305.836669 -48.187921 L 142.042943 -48.187921 C 138.741297 -48.187921 136.066299 -45.512923 136.066299 -42.211277 Z M 136.066299 -42.211277 " transform="matrix(0.997372, 0, 0, -0.997372, 54.213154, 76.622309)"/>
</g>
<g fill="rgb(29.019165%, 49.412537%, 24.705505%)" fill-opacity="1">
<use xlink:href="#glyph-1-12" x="220.460111" y="20.901128"/>
<use xlink:href="#glyph-1-13" x="227.564301" y="20.901128"/>
<use xlink:href="#glyph-1-1" x="232.035719" y="20.901128"/>
<use xlink:href="#glyph-1-8" x="237.053545" y="20.901128"/>
<use xlink:href="#glyph-1-14" x="241.748534" y="20.901128"/>
<use xlink:href="#glyph-1-10" x="249.49929" y="20.901128"/>
<use xlink:href="#glyph-1-3" x="251.785079" y="20.901128"/>
</g>
<g fill="rgb(29.019165%, 49.412537%, 24.705505%)" fill-opacity="1">
<use xlink:href="#glyph-1-15" x="259.439253" y="20.901128"/>
</g>
<g fill="rgb(29.019165%, 49.412537%, 24.705505%)" fill-opacity="1">
<use xlink:href="#glyph-1-4" x="265.819073" y="20.901128"/>
</g>
<g fill="rgb(29.019165%, 49.412537%, 24.705505%)" fill-opacity="1">
<use xlink:href="#glyph-1-6" x="270.469348" y="20.901128"/>
<use xlink:href="#glyph-1-16" x="273.797871" y="20.901128"/>
<use xlink:href="#glyph-1-17" x="278.542941" y="20.901128"/>
<use xlink:href="#glyph-1-4" x="283.784337" y="20.901128"/>
</g>
<g fill="rgb(29.019165%, 49.412537%, 24.705505%)" fill-opacity="1">
<use xlink:href="#glyph-1-15" x="288.425669" y="20.901128"/>
</g>
</svg>
